<?xml version="1.0" encoding="UTF-8"?><svg xmlns:svg="http://www.w3.org/2000/svg" xmlns="http://www.w3.org/2000/svg" xmlns:xlink="http://www.w3.org/1999/xlink" version="1.0" width="681" height="612" viewBox="0 0 681 612" ><rect x="40" y="1" height="30" width="640" fill="#e4b5f7" /><line x1="40" y1="1" x2="680" y2="1" stroke="#000000" stroke-width="1" /><line x1="40" y1="31" x2="680" y2="31" stroke="#000000" stroke-width="1" /><line x1="680" y1="1" x2="680" y2="31" stroke="#000000" stroke-width="1" /><line x1="40" y1="1" x2="40" y2="31" stroke="#000000" stroke-width="1" /><text font-size="18" font-family="Palatino, Georgia, Times New Roman, serif" font-weight="bold" x="360" y="17" text-anchor="middle" dominant-baseline="middle" >Header:</text><rect x="40" y="31" height="30" width="320" fill="#e4b5f7" /><line x1="40" y1="31" x2="360" y2="31" stroke="#000000" stroke-width="1" /><line x1="40" y1="61" x2="360" y2="61" stroke="#000000" stroke-width="1" /><line x1="360" y1="31" x2="360" y2="61" stroke="#000000" stroke-width="1" /><line x1="40" y1="31" x2="40" y2="61" stroke="#000000" stroke-width="1" /><text font-size="18" font-family="Palatino, Georgia, Times New Roman, serif" x="200" y="47" text-anchor="middle" dominant-baseline="middle" >Binary TrueMap</text><rect x="360" y="31" height="30" width="320" fill="#e4b5f7" /><line x1="360" y1="31" x2="680" y2="31" stroke="#000000" stroke-width="1" /><line x1="360" y1="61" x2="680" y2="61" stroke="#000000" stroke-width="1" /><line x1="680" y1="31" x2="680" y2="61" stroke="#000000" stroke-width="1" /><line x1="360" y1="31" x2="360" y2="61" stroke="#000000" stroke-width="1" /><text font-size="18" font-family="Palatino, Georgia, Times New Roman, serif" x="520" y="47" text-anchor="middle" dominant-baseline="middle" >Data File v2.0</text><rect x="40" y="61" height="30" width="640" fill="none" /><line x1="40" y1="61" x2="680" y2="61" stroke="#000000" stroke-width="1" /><line x1="680" y1="61" x2="680" y2="91" stroke="#000000" stroke-width="1" /><line x1="40" y1="61" x2="40" y2="91" stroke="#000000" stroke-width="1" /><text font-size="18" font-family="Palatino, Georgia, Times New Roman, serif" x="360" y="77" text-anchor="middle" dominant-baseline="middle" > </text><text font-size="11" font-family="Courier New, monospace" font-style="normal" dominant-baseline="middle" x="35" y="76" text-anchor="end" >00</text><text font-size="11" font-family="Courier New, monospace" font-style="normal" dominant-baseline="middle" x="35" y="106" text-anchor="end" >10</text><polygon points=" 40,91 680,91 680,76 40,106" fill="none" /><line x1="40" y1="91" x2="40" y2="106" stroke="#000000" stroke-width="1" /><line x1="680" y1="91" x2="680" y2="76" stroke="#000000" stroke-width="1" /><line stroke-dasharray="1,1" x1="40" y1="106" x2="680" y2="76" stroke="#000000" stroke-width="1" /><polygon points=" 40,116 680,86 680,101 40,101" fill="none" /><line x1="40" y1="116" x2="40" y2="101" stroke="#000000" stroke-width="1" /><line x1="680" y1="86" x2="680" y2="101" stroke="#000000" stroke-width="1" /><line stroke-dasharray="1,1" x1="40" y1="116" x2="680" y2="86" stroke="#000000" stroke-width="1" /><text font-size="11" font-family="Palatino, Georgia, Times New Roman, serif" font-style="italic" dominant-baseline="middle" x="35" y="116" text-anchor="end" >i+<tspan font-size="11" font-family="Courier New, monospace" font-style="normal" dominant-baseline="middle" >00</tspan></text><rect x="40" y="131" height="30" width="640" fill="#a0fafa" /><line x1="40" y1="131" x2="680" y2="131" stroke="#000000" stroke-width="1" /><line x1="40" y1="161" x2="680" y2="161" stroke="#000000" stroke-width="1" /><line x1="680" y1="131" x2="680" y2="161" stroke="#000000" stroke-width="1" /><line x1="40" y1="131" x2="40" y2="161" stroke="#000000" stroke-width="1" /><text font-size="18" font-family="Palatino, Georgia, Times New Roman, serif" font-weight="bold" x="360" y="147" text-anchor="middle" dominant-baseline="middle" >Comment:</text><rect x="40" y="161" height="30" width="640" fill="#a0fafa" /><line x1="40" y1="161" x2="680" y2="161" stroke="#000000" stroke-width="1" /><line x1="40" y1="191" x2="680" y2="191" stroke="#000000" stroke-width="1" /><line x1="680" y1="161" x2="680" y2="191" stroke="#000000" stroke-width="1" /><line x1="40" y1="161" x2="40" y2="191" stroke="#000000" stroke-width="1" /><text font-size="18" font-family="Palatino, Georgia, Times New Roman, serif" x="360" y="177" text-anchor="middle" dominant-baseline="middle" >"Created by TrueMap v6"</text><rect x="40" y="191" height="30" width="640" fill="none" /><line x1="40" y1="191" x2="680" y2="191" stroke="#000000" stroke-width="1" /><line x1="680" y1="191" x2="680" y2="221" stroke="#000000" stroke-width="1" /><line x1="40" y1="191" x2="40" y2="221" stroke="#000000" stroke-width="1" /><text font-size="18" font-family="Palatino, Georgia, Times New Roman, serif" x="360" y="207" text-anchor="middle" dominant-baseline="middle" > </text><text font-size="11" font-family="Palatino, Georgia, Times New Roman, serif" font-style="italic" dominant-baseline="middle" x="35" y="206" text-anchor="end" >i+<tspan font-size="11" font-family="Courier New, monospace" font-style="normal" dominant-baseline="middle" >00</tspan></text><text font-size="11" font-family="Palatino, Georgia, Times New Roman, serif" font-style="italic" dominant-baseline="middle" x="35" y="236" text-anchor="end" >i+<tspan font-size="11" font-family="Courier New, monospace" font-style="normal" dominant-baseline="middle" >10</tspan></text><polygon points=" 40,221 680,221 680,206 40,236" fill="none" /><line x1="40" y1="221" x2="40" y2="236" stroke="#000000" stroke-width="1" /><line x1="680" y1="221" x2="680" y2="206" stroke="#000000" stroke-width="1" /><line stroke-dasharray="1,1" x1="40" y1="236" x2="680" y2="206" stroke="#000000" stroke-width="1" /><polygon points=" 40,246 680,216 680,231 40,231" fill="none" /><line x1="40" y1="246" x2="40" y2="231" stroke="#000000" stroke-width="1" /><line x1="680" y1="216" x2="680" y2="231" stroke="#000000" stroke-width="1" /><line stroke-dasharray="1,1" x1="40" y1="246" x2="680" y2="216" stroke="#000000" stroke-width="1" /><text font-size="11" font-family="Palatino, Georgia, Times New Roman, serif" font-style="italic" dominant-baseline="middle" x="35" y="246" text-anchor="end" >i+<tspan font-size="11" font-family="Courier New, monospace" font-style="normal" dominant-baseline="middle" >00</tspan></text><rect x="40" y="261" height="30" width="160" fill="#a0ffa0" /><line x1="40" y1="261" x2="200" y2="261" stroke="#000000" stroke-width="1" /><line x1="40" y1="291" x2="200" y2="291" stroke="#000000" stroke-width="1" /><line x1="200" y1="261" x2="200" y2="291" stroke="#000000" stroke-width="1" /><line x1="40" y1="261" x2="40" y2="291" stroke="#000000" stroke-width="1" /><text font-size="18" font-family="Palatino, Georgia, Times New Roman, serif" font-style="italic" x="120" y="277" text-anchor="middle" dominant-baseline="middle" >Width (uint32)</text><rect x="200" y="261" height="30" width="160" fill="#a0ffa0" /><line x1="200" y1="261" x2="360" y2="261" stroke="#000000" stroke-width="1" /><line x1="200" y1="291" x2="360" y2="291" stroke="#000000" stroke-width="1" /><line x1="360" y1="261" x2="360" y2="291" stroke="#000000" stroke-width="1" /><line x1="200" y1="261" x2="200" y2="291" stroke="#000000" stroke-width="1" /><text font-size="18" font-family="Palatino, Georgia, Times New Roman, serif" font-style="italic" x="280" y="277" text-anchor="middle" dominant-baseline="middle" >Height (uint32)</text><rect x="360" y="261" height="30" width="320" fill="none" /><line x1="360" y1="261" x2="680" y2="261" stroke="#000000" stroke-width="1" /><line x1="680" y1="261" x2="680" y2="291" stroke="#000000" stroke-width="1" /><line x1="360" y1="261" x2="360" y2="291" stroke="#000000" stroke-width="1" /><text font-size="18" font-family="Palatino, Georgia, Times New Roman, serif" x="520" y="277" text-anchor="middle" dominant-baseline="middle" >Unused</text><text font-size="11" font-family="Palatino, Georgia, Times New Roman, serif" font-style="italic" dominant-baseline="middle" x="35" y="276" text-anchor="end" >i+<tspan font-size="11" font-family="Courier New, monospace" font-style="normal" dominant-baseline="middle" >00</tspan></text><text font-size="11" font-family="Palatino, Georgia, Times New Roman, serif" font-style="italic" dominant-baseline="middle" x="35" y="306" text-anchor="end" >i+<tspan font-size="11" font-family="Courier New, monospace" font-style="normal" dominant-baseline="middle" >10</tspan></text><polygon points=" 40,291 680,291 680,336 40,306" fill="none" /><line x1="40" y1="291" x2="40" y2="306" stroke="#000000" stroke-width="1" /><line x1="680" y1="291" x2="680" y2="336" stroke="#000000" stroke-width="1" /><line stroke-dasharray="1,1" x1="40" y1="306" x2="680" y2="336" stroke="#000000" stroke-width="1" /><polygon points=" 40,316 680,346 680,361 40,361" fill="none" /><line x1="40" y1="316" x2="40" y2="361" stroke="#000000" stroke-width="1" /><line x1="680" y1="346" x2="680" y2="361" stroke="#000000" stroke-width="1" /><line stroke-dasharray="1,1" x1="40" y1="316" x2="680" y2="346" stroke="#000000" stroke-width="1" /><text font-size="11" font-family="Palatino, Georgia, Times New Roman, serif" font-style="italic" dominant-baseline="middle" x="35" y="376" text-anchor="end" >i+<tspan font-size="11" font-family="Courier New, monospace" font-style="normal" dominant-baseline="middle" >00</tspan></text><rect x="40" y="391" height="30" width="640" fill="none" /><line x1="40" y1="391" x2="680" y2="391" stroke="#000000" stroke-width="1" /><line x1="680" y1="391" x2="680" y2="421" stroke="#000000" stroke-width="1" /><line x1="40" y1="391" x2="40" y2="421" stroke="#000000" stroke-width="1" /><text font-size="18" font-family="Palatino, Georgia, Times New Roman, serif" x="360" y="407" text-anchor="middle" dominant-baseline="middle" > </text><text font-size="11" font-family="Palatino, Georgia, Times New Roman, serif" font-style="italic" dominant-baseline="middle" x="35" y="406" text-anchor="end" >i+<tspan font-size="11" font-family="Courier New, monospace" font-style="normal" dominant-baseline="middle" >00</tspan></text><text font-size="11" font-family="Palatino, Georgia, Times New Roman, serif" font-style="italic" dominant-baseline="middle" x="35" y="436" text-anchor="end" >i+<tspan font-size="11" font-family="Courier New, monospace" font-style="normal" dominant-baseline="middle" >10</tspan></text><polygon points=" 40,421 680,421 680,406 40,436" fill="none" /><line x1="40" y1="421" x2="40" y2="436" stroke="#000000" stroke-width="1" /><line x1="680" y1="421" x2="680" y2="406" stroke="#000000" stroke-width="1" /><line stroke-dasharray="1,1" x1="40" y1="436" x2="680" y2="406" stroke="#000000" stroke-width="1" /><polygon points=" 40,446 680,416 680,431 40,431" fill="none" /><line x1="40" y1="446" x2="40" y2="431" stroke="#000000" stroke-width="1" /><line x1="680" y1="416" x2="680" y2="431" stroke="#000000" stroke-width="1" /><line stroke-dasharray="1,1" x1="40" y1="446" x2="680" y2="416" stroke="#000000" stroke-width="1" /><text font-size="11" font-family="Palatino, Georgia, Times New Roman, serif" font-style="italic" dominant-baseline="middle" x="35" y="446" text-anchor="end" >i+<tspan font-size="11" font-family="Courier New, monospace" font-style="normal" dominant-baseline="middle" >00</tspan></text><rect x="40" y="461" height="30" width="160" fill="#ffffa0" /><line x1="40" y1="461" x2="200" y2="461" stroke="#000000" stroke-width="1" /><line x1="40" y1="491" x2="200" y2="491" stroke="#000000" stroke-width="1" /><line x1="200" y1="461" x2="200" y2="491" stroke="#000000" stroke-width="1" /><line x1="40" y1="461" x2="40" y2="491" stroke="#000000" stroke-width="1" /><text font-size="18" font-family="Palatino, Georgia, Times New Roman, serif" font-style="italic" x="120" y="477" text-anchor="middle" dominant-baseline="middle" >x_length (float32)</text><rect x="200" y="461" height="30" width="160" fill="#ffffa0" /><line x1="200" y1="461" x2="360" y2="461" stroke="#000000" stroke-width="1" /><line x1="200" y1="491" x2="360" y2="491" stroke="#000000" stroke-width="1" /><line x1="360" y1="461" x2="360" y2="491" stroke="#000000" stroke-width="1" /><line x1="200" y1="461" x2="200" y2="491" stroke="#000000" stroke-width="1" /><text font-size="18" font-family="Palatino, Georgia, Times New Roman, serif" font-style="italic" x="280" y="477" text-anchor="middle" dominant-baseline="middle" >y_length (float32)</text><rect x="360" y="461" height="30" width="160" fill="#ffffa0" /><line x1="360" y1="461" x2="520" y2="461" stroke="#000000" stroke-width="1" /><line x1="360" y1="491" x2="520" y2="491" stroke="#000000" stroke-width="1" /><line x1="520" y1="461" x2="520" y2="491" stroke="#000000" stroke-width="1" /><line x1="360" y1="461" x2="360" y2="491" stroke="#000000" stroke-width="1" /><text font-size="18" font-family="Palatino, Georgia, Times New Roman, serif" font-style="italic" x="440" y="477" text-anchor="middle" dominant-baseline="middle" >x_offset (float32)</text><rect x="520" y="461" height="30" width="160" fill="#ffffa0" /><line x1="520" y1="461" x2="680" y2="461" stroke="#000000" stroke-width="1" /><line x1="520" y1="491" x2="680" y2="491" stroke="#000000" stroke-width="1" /><line x1="680" y1="461" x2="680" y2="491" stroke="#000000" stroke-width="1" /><line x1="520" y1="461" x2="520" y2="491" stroke="#000000" stroke-width="1" /><text font-size="18" font-family="Palatino, Georgia, Times New Roman, serif" font-style="italic" x="600" y="477" text-anchor="middle" dominant-baseline="middle" >y_offset (float32)</text><rect x="40" y="491" height="30" width="640" fill="none" /><line x1="40" y1="491" x2="680" y2="491" stroke="#000000" stroke-width="1" /><line x1="680" y1="491" x2="680" y2="521" stroke="#000000" stroke-width="1" /><line x1="40" y1="491" x2="40" y2="521" stroke="#000000" stroke-width="1" /><text font-size="18" font-family="Palatino, Georgia, Times New Roman, serif" x="360" y="507" text-anchor="middle" dominant-baseline="middle" > </text><text font-size="11" font-family="Palatino, Georgia, Times New Roman, serif" font-style="italic" dominant-baseline="middle" x="35" y="506" text-anchor="end" >i+<tspan font-size="11" font-family="Courier New, monospace" font-style="normal" dominant-baseline="middle" >00</tspan></text><text font-size="11" font-family="Palatino, Georgia, Times New Roman, serif" font-style="italic" dominant-baseline="middle" x="35" y="536" text-anchor="end" >i+<tspan font-size="11" font-family="Courier New, monospace" font-style="normal" dominant-baseline="middle" >10</tspan></text><polygon points=" 40,521 680,521 680,506 40,536" fill="none" /><line x1="40" y1="521" x2="40" y2="536" stroke="#000000" stroke-width="1" /><line x1="680" y1="521" x2="680" y2="506" stroke="#000000" stroke-width="1" /><line stroke-dasharray="1,1" x1="40" y1="536" x2="680" y2="506" stroke="#000000" stroke-width="1" /><polygon points=" 40,546 680,516 680,531 40,531" fill="none" /><line x1="40" y1="546" x2="40" y2="531" stroke="#000000" stroke-width="1" /><line x1="680" y1="516" x2="680" y2="531" stroke="#000000" stroke-width="1" /><line stroke-dasharray="1,1" x1="40" y1="546" x2="680" y2="516" stroke="#000000" stroke-width="1" /><text font-size="11" font-family="Palatino, Georgia, Times New Roman, serif" font-style="italic" dominant-baseline="middle" x="35" y="546" text-anchor="end" >i+<tspan font-size="11" font-family="Courier New, monospace" font-style="normal" dominant-baseline="middle" >00</tspan></text><rect x="40" y="561" height="30" width="640" fill="#ffb0a0" /><line x1="40" y1="561" x2="680" y2="561" stroke="#000000" stroke-width="1" /><line x1="680" y1="561" x2="680" y2="591" stroke="#000000" stroke-width="1" /><line x1="40" y1="561" x2="40" y2="591" stroke="#000000" stroke-width="1" /><text font-size="18" font-family="Palatino, Georgia, Times New Roman, serif" x="360" y="577" text-anchor="middle" dominant-baseline="middle" >Height Map Data: float32 array (dimensions: height x width)</text><text font-size="11" font-family="Palatino, Georgia, Times New Roman, serif" font-style="italic" dominant-baseline="middle" x="35" y="576" text-anchor="end" >i+<tspan font-size="11" font-family="Courier New, monospace" font-style="normal" dominant-baseline="middle" >00</tspan></text><text font-size="11" font-family="Palatino, Georgia, Times New Roman, serif" font-style="italic" dominant-baseline="middle" x="35" y="606" text-anchor="end" >i+<tspan font-size="11" font-family="Courier New, monospace" font-style="normal" dominant-baseline="middle" >10</tspan></text><polygon points=" 40,591 680,591 680,586 40,606" fill="#ffb0a0" /><line x1="40" y1="591" x2="40" y2="606" stroke="#000000" stroke-width="1" /><line x1="680" y1="591" x2="680" y2="586" stroke="#000000" stroke-width="1" /><line stroke-dasharray="1,1" x1="40" y1="606" x2="680" y2="586" stroke="#000000" stroke-width="1" /><polygon points=" 40,616 680,596 680,611 40,611" fill="#ffb0a0" /><line x1="40" y1="616" x2="40" y2="611" stroke="#000000" stroke-width="1" /><line x1="680" y1="596" x2="680" y2="611" stroke="#000000" stroke-width="1" /><line stroke-dasharray="1,1" x1="40" y1="616" x2="680" y2="596" stroke="#000000" stroke-width="1" /><text font-size="11" font-family="Palatino, Georgia, Times New Roman, serif" font-style="italic" dominant-baseline="middle" x="35" y="626" text-anchor="end" >i+<tspan font-size="11" font-family="Courier New, monospace" font-style="normal" dominant-baseline="middle" >00</tspan></text><line x1="40" y1="611" x2="680" y2="611" stroke="#000000" stroke-width="1" /></svg>
