<?xml version="1.0" encoding="utf-8"?>
<!-- Generator: Adobe Illustrator 25.2.1, SVG Export Plug-In . SVG Version: 6.00 Build 0)  -->
<svg version="1.1" id="Layer_1" xmlns="http://www.w3.org/2000/svg" xmlns:xlink="http://www.w3.org/1999/xlink" x="0px" y="0px"
	 viewBox="0 0 24 24" style="enable-background:new 0 0 24 24;" xml:space="preserve">
<style type="text/css">
	.st0{fill:none;stroke:#0066CC;stroke-width:1.5;stroke-linecap:round;stroke-linejoin:round;}
	.st1{fill:none;stroke:#0066CC;stroke-width:2;stroke-linecap:round;stroke-linejoin:round;}
	.st2{fill:none;stroke:#0066CC;stroke-linecap:round;stroke-linejoin:round;}
</style>
<path class="st0" d="M4.8,6.8c0-1.1,0.9-2,2-2h10.5c1.1,0,2,0.9,2,2v7.5c0,1.1-0.9,2-2,2h-2.6l-2.6,3l-2.6-3H6.8c-1.1,0-2-0.9-2-2
	V6.8z"/>
<path class="st1" d="M12,8v2"/>
<path class="st2" d="M12.5,13c0,0.3-0.2,0.5-0.5,0.5s-0.5-0.2-0.5-0.5s0.2-0.5,0.5-0.5S12.5,12.7,12.5,13z"/>
</svg>
