<?xml version="1.0" encoding="UTF-8" standalone="no"?>
<!-- Created with Inkscape (http://www.inkscape.org/) -->

<svg
   width="134.70522mm"
   height="85.058006mm"
   viewBox="0 0 134.70522 85.058006"
   version="1.1"
   id="svg5"
   inkscape:version="1.1 (c68e22c387, 2021-05-23)"
   sodipodi:docname="icland.svg"
   xmlns:inkscape="http://www.inkscape.org/namespaces/inkscape"
   xmlns:sodipodi="http://sodipodi.sourceforge.net/DTD/sodipodi-0.dtd"
   xmlns="http://www.w3.org/2000/svg"
   xmlns:svg="http://www.w3.org/2000/svg">
  <sodipodi:namedview
     id="namedview7"
     pagecolor="#505050"
     bordercolor="#ffffff"
     borderopacity="1"
     inkscape:pageshadow="0"
     inkscape:pageopacity="0"
     inkscape:pagecheckerboard="1"
     inkscape:document-units="mm"
     showgrid="false"
     inkscape:zoom="1.4289282"
     inkscape:cx="162.00954"
     inkscape:cy="139.61514"
     inkscape:window-width="1920"
     inkscape:window-height="991"
     inkscape:window-x="-9"
     inkscape:window-y="-9"
     inkscape:window-maximized="1"
     inkscape:current-layer="layer1"
     lock-margins="true"
     fit-margin-top="10"
     fit-margin-left="10"
     fit-margin-right="10"
     fit-margin-bottom="10" />
  <defs
     id="defs2" />
  <g
     inkscape:label="Layer 1"
     inkscape:groupmode="layer"
     id="layer1"
     transform="translate(-36.543399,-161.84451)">
    <g
       id="g36680"
       transform="translate(105.15037,40.609287)">
      <path
         style="fill:#a772cf;fill-opacity:1;stroke:none;stroke-width:0.264583px;stroke-linecap:butt;stroke-linejoin:miter;stroke-opacity:1"
         d="m 32.483945,141.58913 -8.843123,-5.10558 8.815231,-5.08948 8.750466,5.05209 z"
         id="path36674" />
      <path
         style="fill:#7b379a;fill-opacity:1;stroke:none;stroke-width:0.264583px;stroke-linecap:butt;stroke-linejoin:miter;stroke-opacity:1"
         d="m 32.483945,141.58913 -0.0182,34.51022 14.88203,8.59177 0.02789,10.19506 -23.725153,-13.69735 -0.0097,-44.70528 8.843124,5.10558 z"
         id="path48202" />
      <path
         style="fill:#5d3069;fill-opacity:1;stroke:none;stroke-width:0.264583px;stroke-linecap:butt;stroke-linejoin:miter;stroke-opacity:1"
         d="m 47.347773,184.69112 0.02789,10.19506 8.722574,-5.14297 -0.0279,-10.19506 -8.722571,5.14297"
         id="path48206" />
      <path
         style="fill:#a772cf;fill-opacity:1;stroke:none;stroke-width:0.264583px;stroke-linecap:butt;stroke-linejoin:miter;stroke-opacity:1"
         d="m 41.188316,170.95638 -8.722575,5.14297 14.882032,8.59177 8.722561,-5.14297 -14.882018,-8.59177"
         id="path48641" />
      <path
         style="fill:#5d3069;fill-opacity:1;stroke:none;stroke-width:0.264583px;stroke-linecap:butt;stroke-linejoin:miter;stroke-opacity:1"
         d="m 41.188316,170.95638 0.0182,-34.51022 -8.722572,5.14297 -0.0182,34.51022 8.722572,-5.14297"
         id="path48643" />
    </g>
    <g
       id="g26785"
       transform="translate(33.02939,36.826544)">
      <path
         style="fill:#302525;fill-opacity:1;stroke:none;stroke-width:0.264583px;stroke-linecap:butt;stroke-linejoin:miter;stroke-opacity:1"
         d="m 72.321303,146.77689 0.01717,17.24488 14.959174,8.69514 -3e-6,-17.293 z"
         id="path14745" />
      <path
         id="path2160"
         style="fill:#deaa87;stroke-width:3.32928;stroke-linecap:round;stroke-linejoin:round"
         inkscape:transform-center-x="8.2961319e-06"
         inkscape:transform-center-y="-1.6780287e-05"
         d="M 72.305802,136.65813 48.580636,150.356 v 27.39575 l 23.725166,13.69735 23.725166,-13.69735 -8.733316,-5.03484 -14.976348,8.6465 -14.976345,-8.6465 v -17.293 l 14.976345,-8.64702 14.976348,8.64702 8.733316,-5.06791 z" />
      <path
         style="fill:#916f6f;stroke:none;stroke-width:0.264583px;stroke-linecap:butt;stroke-linejoin:miter;stroke-opacity:1"
         d="m 48.580637,150.356 8.764323,5.06791 v 17.293 l 14.976342,8.6465 -0.01551,10.08569 -23.725163,-13.69735 z"
         id="path2522" />
      <path
         style="fill:#6c5353;stroke:none;stroke-width:0.264583px;stroke-linecap:butt;stroke-linejoin:miter;stroke-opacity:1"
         d="m 72.321302,181.36341 -0.01551,10.08569 23.725166,-13.69735 -8.733316,-5.03484 -14.976348,8.6465"
         id="path2946" />
      <path
         style="fill:#483737;stroke:none;stroke-width:0.264583px;stroke-linecap:butt;stroke-linejoin:miter;stroke-opacity:1"
         d="m 72.338477,164.02177 -14.993517,8.69514 14.976343,8.6465 14.976337,-8.6465 z"
         id="path14111" />
      <g
         id="g4193"
         style="fill:#61312d;fill-opacity:1"
         transform="rotate(12.747251,162.98038,171.24439)">
        <circle
           style="fill:#61312d;fill-opacity:1;stroke:none;stroke-width:0.426508;stroke-linecap:round;stroke-linejoin:round"
           id="circle4187"
           cx="80.325165"
           cy="166.21484"
           r="3.0768402" />
        <circle
           style="fill:#61312d;fill-opacity:1;stroke:none;stroke-width:0.426508;stroke-linecap:round;stroke-linejoin:round"
           id="circle4189"
           cx="80.325165"
           cy="183.83029"
           r="3.0768402" />
        <rect
           style="fill:#61312d;fill-opacity:1;stroke:none;stroke-width:0.42506;stroke-linecap:round;stroke-linejoin:round"
           id="rect4191"
           width="6.1444969"
           height="17.610001"
           x="77.251724"
           y="166.08391" />
      </g>
      <g
         id="g33659"
         style="fill:#7b4444;fill-opacity:1"
         transform="rotate(12.747251,165.84971,168.28787)">
        <circle
           style="fill:#7b4444;fill-opacity:1;stroke:none;stroke-width:0.426508;stroke-linecap:round;stroke-linejoin:round"
           id="circle33653"
           cx="80.325165"
           cy="166.21484"
           r="3.0768402" />
        <circle
           style="fill:#7b4444;fill-opacity:1;stroke:none;stroke-width:0.426508;stroke-linecap:round;stroke-linejoin:round"
           id="circle33655"
           cx="80.325165"
           cy="183.83029"
           r="3.0768402" />
        <rect
           style="fill:#7b4444;fill-opacity:1;stroke:none;stroke-width:0.42506;stroke-linecap:round;stroke-linejoin:round"
           id="rect33657"
           width="6.1444969"
           height="17.610001"
           x="77.251724"
           y="166.08391" />
      </g>
      <g
         id="g4149"
         style="fill:#c45252;fill-opacity:1"
         transform="rotate(12.747251,170.66683,164.93124)">
        <circle
           style="fill:#c45252;fill-opacity:1;stroke:none;stroke-width:0.426508;stroke-linecap:round;stroke-linejoin:round"
           id="path3771"
           cx="80.325165"
           cy="166.21484"
           r="3.0768402" />
        <circle
           style="fill:#c45252;fill-opacity:1;stroke:none;stroke-width:0.426508;stroke-linecap:round;stroke-linejoin:round"
           id="circle3853"
           cx="80.325165"
           cy="183.83029"
           r="3.0768402" />
        <rect
           style="fill:#c45252;fill-opacity:1;stroke:none;stroke-width:0.42506;stroke-linecap:round;stroke-linejoin:round"
           id="rect4064"
           width="6.1444969"
           height="17.610001"
           x="77.251724"
           y="166.08391" />
      </g>
      <path
         style="fill:#382b2b;fill-opacity:1;stroke:none;stroke-width:0.264583px;stroke-linecap:butt;stroke-linejoin:miter;stroke-opacity:1"
         d="m 57.344958,155.42391 v 17.293 l 14.99352,-8.69514 -0.0172,-17.24488 z"
         id="path14378" />
      <g
         id="g7112">
        <g
           id="g7102">
          <g
             id="g7217"
             transform="rotate(106.60431,69.964866,166.0492)">
            <path
               d="m 65.979126,167.19172 5.231232,0.93878 5.604325,-4.5971 -5.338068,-0.80354 z"
               style="fill:#478143;fill-opacity:1;fill-rule:evenodd;stroke:none;stroke-width:6.98527;stroke-linecap:round;stroke-linejoin:round"
               id="path7120" />
            <path
               d="m 71.210358,168.1305 3.581118,6.16078 5.5708,-4.65478 -3.547593,-6.1031 z"
               style="fill:#59a254;fill-opacity:1;fill-rule:evenodd;stroke:none;stroke-width:6.98527;stroke-linecap:round;stroke-linejoin:round"
               id="path7122" />
            <path
               d="m 65.979126,167.19172 5.231232,0.93878 3.581118,6.16078 -5.330836,-1.11014 z"
               style="fill:#82d688;fill-opacity:1;fill-rule:evenodd;stroke:none;stroke-width:6.98527;stroke-linecap:round;stroke-linejoin:round"
               id="path7124" />
          </g>
        </g>
      </g>
      <path
         style="fill:#382b2b;fill-opacity:1;stroke:none;stroke-width:0.264583px;stroke-linecap:butt;stroke-linejoin:miter;stroke-opacity:1"
         d="m 87.29765,155.42391 -1e-5,17.293 8.733327,5.03484 V 150.356 Z"
         id="path12706" />
    </g>
    <g
       id="g36672"
       transform="matrix(-1,0,0,1,103.69697,40.291964)">
      <path
         style="fill:#72bdcf;fill-opacity:1;stroke:none;stroke-width:0.264583px;stroke-linecap:butt;stroke-linejoin:miter;stroke-opacity:1"
         d="m 30.791325,176.25783 -8.843123,-5.10558 8.815231,-5.08948 8.750466,5.05209 z"
         id="path43368" />
      <path
         style="fill:none;stroke:#000000;stroke-width:0.264583px;stroke-linecap:butt;stroke-linejoin:miter;stroke-opacity:1"
         d="M 23.704055,137.75282 47.42921,151.45017"
         id="path42863" />
      <path
         style="fill:#72bdcf;fill-opacity:1;stroke:none;stroke-width:0.264583px;stroke-linecap:butt;stroke-linejoin:miter;stroke-opacity:1"
         d="m 48.384912,186.4155 -8.843123,-5.10558 8.815231,-5.08948 8.750466,5.05209 z"
         id="path43374" />
      <path
         style="fill:#305e69;fill-opacity:1;stroke:none;stroke-width:0.264583px;stroke-linecap:butt;stroke-linejoin:miter;stroke-opacity:1"
         d="m 48.384914,186.4155 0.02789,10.19506 8.722574,-5.14297 -0.02789,-10.19506 -8.722571,5.14297"
         id="path43413" />
      <path
         style="fill:#37869a;fill-opacity:1;stroke:none;stroke-width:0.264583px;stroke-linecap:butt;stroke-linejoin:miter;stroke-opacity:1"
         d="m 21.966394,136.64203 0.12055,10.24855 8.843122,5.10558 -0.138742,24.26167 -8.843122,-5.10558 0.02789,10.19506 26.436709,15.26325 -0.02789,-10.19506 -8.843122,-5.10558 0.09534,-24.37104 8.793866,5.16146 -0.02789,-10.19506 z"
         id="path43848" />
      <path
         style="fill:#305e69;fill-opacity:1;stroke:none;stroke-width:0.264583px;stroke-linecap:butt;stroke-linejoin:miter;stroke-opacity:1"
         d="m 48.430996,162.10034 8.722575,-5.14297 -0.02789,-10.19506 -8.722574,5.14297 z"
         id="path45115" />
      <path
         style="fill:#72bdcf;fill-opacity:1;stroke:none;stroke-width:0.264583px;stroke-linecap:butt;stroke-linejoin:miter;stroke-opacity:1"
         d="m 21.966394,136.64203 26.436713,15.26325 8.722571,-5.14297 -26.344054,-15.20976 -8.81523,5.08948"
         id="path45117" />
      <path
         style="fill:#305e69;fill-opacity:1;stroke:none;stroke-width:0.264583px;stroke-linecap:butt;stroke-linejoin:miter;stroke-opacity:1"
         d="m 39.541788,181.30992 8.815231,-5.08948 0.07397,-14.1201 -8.793867,-5.16146 -0.09534,24.37104"
         id="path45588" />
    </g>
  </g>
</svg>
