<svg width="21" height="18" viewBox="0 0 21 18" fill="none" xmlns="http://www.w3.org/2000/svg">
<path d="M0.244742 2.85589C0.331838 1.88395 1.05519 1.09872 2.01666 0.931944C4.11017 0.568804 7.8181 0 10.5044 0C13.1889 0 16.8937 0.568037 18.988 0.931209C19.9515 1.0983 20.6756 1.8863 20.7609 2.86051C20.8698 4.1039 20.995 5.85672 20.9998 7.38889C21.0051 9.01942 20.8759 10.9657 20.7623 12.3523C20.6757 13.4085 19.8439 14.241 18.7902 14.3538L15.024 14.7567C13.5738 14.9119 12.2535 15.6633 11.3795 16.8309L10.5044 18L9.62038 16.8236C8.74627 15.6604 7.42862 14.9121 5.98185 14.7573L2.20979 14.3538C1.1561 14.241 0.324268 13.4085 0.237744 12.3523C0.124146 10.9657 -0.00505397 9.01942 0.000152361 7.38889C0.00505071 5.85481 0.133298 4.09954 0.244742 2.85589Z" fill="#D9D9D9"/>
<path d="M0.244742 2.85589C0.331838 1.88395 1.05519 1.09872 2.01666 0.931944C4.11017 0.568804 7.8181 0 10.5044 0C13.1889 0 16.8937 0.568037 18.988 0.931209C19.9515 1.0983 20.6756 1.8863 20.7609 2.86051C20.8698 4.1039 20.995 5.85672 20.9998 7.38889C21.0051 9.01942 20.8759 10.9657 20.7623 12.3523C20.6757 13.4085 19.8439 14.241 18.7902 14.3538L15.024 14.7567C13.5738 14.9119 12.2535 15.6633 11.3795 16.8309L10.5044 18L9.62038 16.8236C8.74627 15.6604 7.42862 14.9121 5.98185 14.7573L2.20979 14.3538C1.1561 14.241 0.324268 13.4085 0.237744 12.3523C0.124146 10.9657 -0.00505397 9.01942 0.000152361 7.38889C0.00505071 5.85481 0.133298 4.09954 0.244742 2.85589Z" fill="url(#paint0_linear_3638_1261)"/>
<path d="M3.74948 4.12541C3.74951 4.12516 3.74931 4.12504 3.74955 4.125C3.75824 4.12337 7.75212 3.375 10.498 3.375C13.2434 3.375 17.2502 4.12315 17.2601 4.125C17.2604 4.12505 17.2601 4.12519 17.2602 4.12546C17.5022 6.27445 17.5227 8.44263 17.3212 10.5958L17.26 11.2497C17.26 11.2499 17.2598 11.25 17.2597 11.25H14.6998C13.011 11.25 11.434 12.0944 10.4979 13.5C9.56171 12.0944 7.98475 11.25 6.29596 11.25H3.74978C3.74958 11.25 3.74941 11.2498 3.74939 11.2497L3.64826 10.1355C3.46661 8.13429 3.50055 6.11936 3.74948 4.12541Z" fill="white"/>
<defs>
<linearGradient id="paint0_linear_3638_1261" x1="-24.6709" y1="19.2639" x2="-10.9287" y2="38.1584" gradientUnits="userSpaceOnUse">
<stop stop-color="#FFB800"/>
<stop offset="0.232579" stop-color="#B4E64A"/>
<stop offset="0.511397" stop-color="#87DAC6"/>
<stop offset="0.75" stop-color="#FF68C3"/>
<stop offset="1" stop-color="#005CE7"/>
</linearGradient>
</defs>
</svg>
