%TF.GenerationSoftware,KiCad,Pcbnew,8.0.4-8.0.4-0~ubuntu22.04.1*%
%TF.CreationDate,2024-09-28T14:33:57-04:00*%
%TF.ProjectId,hivemind-pcb,68697665-6d69-46e6-942d-7063622e6b69,rev?*%
%TF.SameCoordinates,Original*%
%TF.FileFunction,Copper,L1,Top*%
%TF.FilePolarity,Positive*%
%FSLAX46Y46*%
G04 Gerber Fmt 4.6, Leading zero omitted, Abs format (unit mm)*
G04 Created by KiCad (PCBNEW 8.0.4-8.0.4-0~ubuntu22.04.1) date 2024-09-28 14:33:57*
%MOMM*%
%LPD*%
G01*
G04 APERTURE LIST*
G04 Aperture macros list*
%AMRoundRect*
0 Rectangle with rounded corners*
0 $1 Rounding radius*
0 $2 $3 $4 $5 $6 $7 $8 $9 X,Y pos of 4 corners*
0 Add a 4 corners polygon primitive as box body*
4,1,4,$2,$3,$4,$5,$6,$7,$8,$9,$2,$3,0*
0 Add four circle primitives for the rounded corners*
1,1,$1+$1,$2,$3*
1,1,$1+$1,$4,$5*
1,1,$1+$1,$6,$7*
1,1,$1+$1,$8,$9*
0 Add four rect primitives between the rounded corners*
20,1,$1+$1,$2,$3,$4,$5,0*
20,1,$1+$1,$4,$5,$6,$7,0*
20,1,$1+$1,$6,$7,$8,$9,0*
20,1,$1+$1,$8,$9,$2,$3,0*%
G04 Aperture macros list end*
%TA.AperFunction,ComponentPad*%
%ADD10O,1.950000X1.700000*%
%TD*%
%TA.AperFunction,ComponentPad*%
%ADD11RoundRect,0.250000X-0.725000X0.600000X-0.725000X-0.600000X0.725000X-0.600000X0.725000X0.600000X0*%
%TD*%
%TA.AperFunction,ComponentPad*%
%ADD12C,7.000000*%
%TD*%
%TA.AperFunction,ComponentPad*%
%ADD13RoundRect,0.250000X0.725000X-0.600000X0.725000X0.600000X-0.725000X0.600000X-0.725000X-0.600000X0*%
%TD*%
%TA.AperFunction,ComponentPad*%
%ADD14O,1.700000X1.700000*%
%TD*%
%TA.AperFunction,ComponentPad*%
%ADD15R,1.700000X1.700000*%
%TD*%
%TA.AperFunction,ViaPad*%
%ADD16C,0.600000*%
%TD*%
%TA.AperFunction,Conductor*%
%ADD17C,0.200000*%
%TD*%
G04 APERTURE END LIST*
D10*
%TO.P,Queen,4,Pin_4*%
%TO.N,Net-(OPiZero3-PC5)*%
X246500000Y-55250000D03*
%TO.P,Queen,3,Pin_3*%
%TO.N,Net-(OPiZero3-PC6)*%
X246500000Y-52750000D03*
%TO.P,Queen,2,Pin_2*%
%TO.N,Net-(Abs1-Pin_2)*%
X246500000Y-50250000D03*
D11*
%TO.P,Queen,1,Pin_1*%
%TO.N,Net-(Abs1-Pin_1)*%
X246500000Y-47750000D03*
%TD*%
D10*
%TO.P,Checkers1,4,Pin_4*%
%TO.N,N/C*%
X246500000Y-103250000D03*
%TO.P,Checkers1,3,Pin_3*%
X246500000Y-100750000D03*
%TO.P,Checkers1,2,Pin_2*%
%TO.N,Net-(Abs1-Pin_2)*%
X246500000Y-98250000D03*
D11*
%TO.P,Checkers1,1,Pin_1*%
%TO.N,Net-(Abs1-Pin_1)*%
X246500000Y-95750000D03*
%TD*%
D12*
%TO.P,REF\u002A\u002A,1*%
%TO.N,N/C*%
X228500000Y-64000000D03*
%TD*%
D10*
%TO.P,Abs,4,Pin_4*%
%TO.N,N/C*%
X159500000Y-48500000D03*
%TO.P,Abs,3,Pin_3*%
X159500000Y-51000000D03*
%TO.P,Abs,2,Pin_2*%
X159500000Y-53500000D03*
D13*
%TO.P,Abs,1,Pin_1*%
X159500000Y-56000000D03*
%TD*%
D10*
%TO.P,Skulls1,4,Pin_4*%
%TO.N,Net-(OPiZero3-Pin_19)*%
X246500000Y-79250000D03*
%TO.P,Skulls1,3,Pin_3*%
%TO.N,Net-(OPiZero3-PC8)*%
X246500000Y-76750000D03*
%TO.P,Skulls1,2,Pin_2*%
%TO.N,Net-(Abs1-Pin_2)*%
X246500000Y-74250000D03*
D11*
%TO.P,Skulls1,1,Pin_1*%
%TO.N,Net-(Abs1-Pin_1)*%
X246500000Y-71750000D03*
%TD*%
D12*
%TO.P,REF\u002A\u002A,1*%
%TO.N,N/C*%
X228500000Y-109150000D03*
%TD*%
D10*
%TO.P,LCD,4,GND*%
%TO.N,Net-(LCD1-GND)*%
X170500000Y-61250000D03*
%TO.P,LCD,3,VCC*%
%TO.N,Net-(LCD1-VCC)*%
X170500000Y-63750000D03*
%TO.P,LCD,2,SDA*%
%TO.N,Net-(LCD1-SDA)*%
X170500000Y-66250000D03*
D13*
%TO.P,LCD,1,SCK*%
%TO.N,Net-(LCD1-SCK)*%
X170500000Y-68750000D03*
%TD*%
D12*
%TO.P,REF\u002A\u002A,1*%
%TO.N,N/C*%
X178500000Y-64000000D03*
%TD*%
D10*
%TO.P,Stripes,4,Pin_4*%
%TO.N,Net-(OPiZero3-Pin_26)*%
X159500000Y-74000000D03*
%TO.P,Stripes,3,Pin_3*%
%TO.N,Net-(OPiZero3-Pin_24)*%
X159500000Y-76500000D03*
%TO.P,Stripes,2,Pin_2*%
%TO.N,Net-(Abs1-Pin_2)*%
X159500000Y-79000000D03*
D13*
%TO.P,Stripes,1,Pin_1*%
%TO.N,Net-(Abs1-Pin_1)*%
X159500000Y-81500000D03*
%TD*%
D14*
%TO.P,OPiZero3,26,Pin_26*%
%TO.N,Net-(OPiZero3-Pin_26)*%
X226860000Y-99730000D03*
%TO.P,OPiZero3,25,Pin_25*%
%TO.N,Net-(Abs1-Pin_2)*%
X229400000Y-99730000D03*
%TO.P,OPiZero3,24,Pin_24*%
%TO.N,Net-(OPiZero3-Pin_24)*%
X226860000Y-97190000D03*
%TO.P,OPiZero3,23,Pin_23*%
%TO.N,Net-(Checkers1-Pin_4)*%
X229400000Y-97190000D03*
%TO.P,OPiZero3,22,Pin_22*%
%TO.N,Net-(Abs1-Pin_4)*%
X226860000Y-94650000D03*
%TO.P,OPiZero3,21,Pin_21*%
%TO.N,Net-(Checkers1-Pin_3)*%
X229400000Y-94650000D03*
%TO.P,OPiZero3,20,Pin_20*%
%TO.N,unconnected-(OPiZero3-Pin_20-Pad20)*%
X226860000Y-92110000D03*
%TO.P,OPiZero3,19,Pin_19*%
%TO.N,Net-(OPiZero3-Pin_19)*%
X229400000Y-92110000D03*
%TO.P,OPiZero3,18,Pin_18*%
%TO.N,Net-(Abs1-Pin_3)*%
X226860000Y-89570000D03*
%TO.P,OPiZero3,17,Pin_17*%
%TO.N,unconnected-(OPiZero3-Pin_17-Pad17)*%
X229400000Y-89570000D03*
%TO.P,OPiZero3,16,Pin_16*%
%TO.N,unconnected-(OPiZero3-Pin_16-Pad16)*%
X226860000Y-87030000D03*
%TO.P,OPiZero3,15,PC8*%
%TO.N,Net-(OPiZero3-PC8)*%
X229400000Y-87030000D03*
%TO.P,OPiZero3,14,Pin_14*%
%TO.N,unconnected-(OPiZero3-Pin_14-Pad14)*%
X226860000Y-84490000D03*
%TO.P,OPiZero3,13,PC5*%
%TO.N,Net-(OPiZero3-PC5)*%
X229400000Y-84490000D03*
%TO.P,OPiZero3,12,Pin_12*%
%TO.N,unconnected-(OPiZero3-Pin_12-Pad12)*%
X226860000Y-81950000D03*
%TO.P,OPiZero3,11,PC6*%
%TO.N,Net-(OPiZero3-PC6)*%
X229400000Y-81950000D03*
%TO.P,OPiZero3,10,Pin_10*%
%TO.N,unconnected-(OPiZero3-Pin_10-Pad10)*%
X226860000Y-79410000D03*
%TO.P,OPiZero3,9,GND*%
%TO.N,unconnected-(OPiZero3-GND-Pad9)*%
X229400000Y-79410000D03*
%TO.P,OPiZero3,8,Pin_8*%
%TO.N,unconnected-(OPiZero3-Pin_8-Pad8)*%
X226860000Y-76870000D03*
%TO.P,OPiZero3,7,PC9*%
%TO.N,unconnected-(OPiZero3-PC9-Pad7)*%
X229400000Y-76870000D03*
%TO.P,OPiZero3,6,Pin_6*%
%TO.N,Net-(LCD1-GND)*%
X226860000Y-74330000D03*
%TO.P,OPiZero3,5,SCK*%
%TO.N,Net-(LCD1-SCK)*%
X229400000Y-74330000D03*
%TO.P,OPiZero3,4,Pin_4*%
%TO.N,Net-(LCD1-VCC)*%
X226860000Y-71790000D03*
%TO.P,OPiZero3,3,SDA*%
%TO.N,Net-(LCD1-SDA)*%
X229400000Y-71790000D03*
%TO.P,OPiZero3,2,Pin_2*%
%TO.N,unconnected-(OPiZero3-Pin_2-Pad2)*%
X226860000Y-69250000D03*
D15*
%TO.P,OPiZero3,1,3.3V*%
%TO.N,Net-(Abs1-Pin_1)*%
X229400000Y-69250000D03*
%TD*%
D16*
%TO.N,Net-(Abs1-Pin_2)*%
X168750000Y-46500000D03*
%TO.N,Net-(LCD1-SDA)*%
X202290000Y-80000000D03*
%TO.N,Net-(LCD1-SCK)*%
X199750000Y-80000000D03*
%TO.N,Net-(LCD1-VCC)*%
X204830000Y-80000000D03*
%TO.N,Net-(LCD1-GND)*%
X207370000Y-80000000D03*
%TD*%
D17*
%TO.N,Net-(Abs1-Pin_2)*%
X247775000Y-99525000D02*
X247775000Y-74250000D01*
X247775000Y-51525000D02*
X246500000Y-50250000D01*
X247775000Y-51525000D02*
X247775000Y-46915256D01*
X184250000Y-46500000D02*
X168750000Y-46500000D01*
X247775000Y-46915256D02*
X247359744Y-46500000D01*
X234070000Y-104400000D02*
X247350000Y-104400000D01*
X229400000Y-99730000D02*
X234070000Y-104400000D01*
X246500000Y-74250000D02*
X247775000Y-74250000D01*
X247775000Y-103975000D02*
X247775000Y-99525000D01*
X247775000Y-99525000D02*
X246500000Y-98250000D01*
X247359744Y-46500000D02*
X246500000Y-46500000D01*
X247350000Y-104400000D02*
X247775000Y-103975000D01*
X246500000Y-46500000D02*
X184500000Y-46500000D01*
X247775000Y-74250000D02*
X247775000Y-51525000D01*
X184500000Y-46500000D02*
X184250000Y-46500000D01*
%TO.N,Net-(Checkers1-Pin_3)*%
X229400000Y-94650000D02*
X235500000Y-100750000D01*
X235500000Y-100750000D02*
X246500000Y-100750000D01*
%TO.N,Net-(Checkers1-Pin_4)*%
X229400000Y-97190000D02*
X235460000Y-103250000D01*
X235460000Y-103250000D02*
X246500000Y-103250000D01*
%TO.N,Net-(LCD1-SDA)*%
X169225000Y-72290686D02*
X181709314Y-84775000D01*
X169225000Y-67525000D02*
X169225000Y-72290686D01*
X201015000Y-84775000D02*
X190750000Y-84775000D01*
X235600000Y-61665686D02*
X235600000Y-65590000D01*
X202290000Y-83500000D02*
X201015000Y-84775000D01*
X231834314Y-57900000D02*
X235600000Y-61665686D01*
X181709314Y-84775000D02*
X192000000Y-84775000D01*
X202290000Y-80000000D02*
X202290000Y-57900000D01*
X202290000Y-83500000D02*
X202290000Y-80000000D01*
X235600000Y-65590000D02*
X229400000Y-71790000D01*
X170500000Y-66250000D02*
X169225000Y-67525000D01*
X202290000Y-57900000D02*
X231834314Y-57900000D01*
%TO.N,Net-(LCD1-SCK)*%
X236000000Y-61500000D02*
X236000000Y-67730000D01*
X199750000Y-57500000D02*
X232000000Y-57500000D01*
X199750000Y-80000000D02*
X199750000Y-57500000D01*
X198875000Y-84375000D02*
X199750000Y-83500000D01*
X181875000Y-84375000D02*
X198875000Y-84375000D01*
X232000000Y-57500000D02*
X236000000Y-61500000D01*
X170500000Y-68750000D02*
X169625000Y-69625000D01*
X236000000Y-67730000D02*
X229400000Y-74330000D01*
X169625000Y-72125000D02*
X181875000Y-84375000D01*
X169625000Y-69625000D02*
X169625000Y-72125000D01*
X199750000Y-83500000D02*
X199750000Y-80000000D01*
%TO.N,Net-(LCD1-VCC)*%
X168825000Y-65425000D02*
X168825000Y-72456372D01*
X203155000Y-85175000D02*
X204830000Y-83500000D01*
X204830000Y-83500000D02*
X204830000Y-80000000D01*
X224000000Y-60134314D02*
X224000000Y-68930000D01*
X222165686Y-58300000D02*
X224000000Y-60134314D01*
X224000000Y-68930000D02*
X226860000Y-71790000D01*
X187250000Y-85175000D02*
X203155000Y-85175000D01*
X204830000Y-80000000D02*
X204830000Y-58300000D01*
X170500000Y-63750000D02*
X168825000Y-65425000D01*
X181543628Y-85175000D02*
X187250000Y-85175000D01*
X168825000Y-72456372D02*
X181543628Y-85175000D01*
X204830000Y-58300000D02*
X222165686Y-58300000D01*
%TO.N,Net-(LCD1-GND)*%
X205295000Y-85575000D02*
X207370000Y-83500000D01*
X168425000Y-63325000D02*
X168425000Y-72622058D01*
X207370000Y-83500000D02*
X207370000Y-80000000D01*
X223600000Y-60300000D02*
X223600000Y-71070000D01*
X223600000Y-71070000D02*
X226860000Y-74330000D01*
X168425000Y-72622058D02*
X181377942Y-85575000D01*
X207370000Y-80000000D02*
X207370000Y-58700000D01*
X207370000Y-58700000D02*
X208000000Y-58700000D01*
X222000000Y-58700000D02*
X223600000Y-60300000D01*
X208000000Y-58700000D02*
X222000000Y-58700000D01*
X181377942Y-85575000D02*
X190500000Y-85575000D01*
X170500000Y-61250000D02*
X168425000Y-63325000D01*
X190500000Y-85575000D02*
X205295000Y-85575000D01*
%TO.N,Net-(OPiZero3-Pin_24)*%
X226860000Y-97190000D02*
X226860000Y-96445786D01*
%TO.N,Net-(OPiZero3-PC6)*%
X229400000Y-81950000D02*
X244675000Y-66675000D01*
X244675000Y-66675000D02*
X245225000Y-66125000D01*
X245225000Y-66125000D02*
X245225000Y-54025000D01*
X245225000Y-54025000D02*
X246500000Y-52750000D01*
%TO.N,Net-(OPiZero3-Pin_19)*%
X229400000Y-92110000D02*
X233640000Y-92110000D01*
X233640000Y-92110000D02*
X246500000Y-79250000D01*
%TO.N,Net-(OPiZero3-PC8)*%
X229400000Y-87030000D02*
X239680000Y-76750000D01*
X239680000Y-76750000D02*
X246500000Y-76750000D01*
%TO.N,Net-(OPiZero3-PC5)*%
X229400000Y-84490000D02*
X246500000Y-67390000D01*
X246500000Y-67390000D02*
X246500000Y-55250000D01*
%TO.N,Net-(Abs1-Pin_3)*%
X156972000Y-48472000D02*
X159500000Y-51000000D01*
X156972000Y-45974000D02*
X156972000Y-48472000D01*
X247822487Y-44700000D02*
X158246000Y-44700000D01*
X249400000Y-46277513D02*
X247822487Y-44700000D01*
X249400000Y-104850000D02*
X249400000Y-46277513D01*
X248250000Y-106000000D02*
X249400000Y-104850000D01*
X227716801Y-102298173D02*
X231418628Y-106000000D01*
X158246000Y-44700000D02*
X156972000Y-45974000D01*
X226670455Y-102298173D02*
X227716801Y-102298173D01*
X231418628Y-106000000D02*
X248250000Y-106000000D01*
X224910000Y-100537718D02*
X226670455Y-102298173D01*
X224910000Y-91520000D02*
X224910000Y-100537718D01*
X226860000Y-89570000D02*
X224910000Y-91520000D01*
%TO.N,Net-(Abs1-Pin_4)*%
X159500000Y-47510000D02*
X159500000Y-48500000D01*
X226860000Y-94650000D02*
X225310000Y-96200000D01*
X226836141Y-101898173D02*
X227882487Y-101898173D01*
X161402000Y-45100000D02*
X159512000Y-46990000D01*
X225310000Y-100372032D02*
X226836141Y-101898173D01*
X231584314Y-105600000D02*
X247847058Y-105600000D01*
X247847058Y-105600000D02*
X249000000Y-104447058D01*
X225310000Y-96200000D02*
X225310000Y-100372032D01*
X249000000Y-104447058D02*
X249000000Y-46443199D01*
X249000000Y-46443199D02*
X247656801Y-45100000D01*
X227882487Y-101898173D02*
X231584314Y-105600000D01*
X247656801Y-45100000D02*
X161402000Y-45100000D01*
X159512000Y-46990000D02*
X159512000Y-47498000D01*
X159512000Y-47498000D02*
X159500000Y-47510000D01*
%TO.N,Net-(OPiZero3-Pin_24)*%
X226860000Y-97190000D02*
X225710000Y-98340000D01*
X231750000Y-105200000D02*
X247681372Y-105200000D01*
X248575000Y-104306372D02*
X248575000Y-46583885D01*
X225710000Y-100206346D02*
X227001827Y-101498173D01*
X227001827Y-101498173D02*
X228048173Y-101498173D01*
X247491115Y-45500000D02*
X168335785Y-45500000D01*
X228048173Y-101498173D02*
X231750000Y-105200000D01*
X248575000Y-46583885D02*
X247491115Y-45500000D01*
X225710000Y-98340000D02*
X225710000Y-100206346D01*
X247681372Y-105200000D02*
X248575000Y-104306372D01*
X168335785Y-45500000D02*
X163068000Y-50767785D01*
X163068000Y-60242256D02*
X163068000Y-57658000D01*
X157226000Y-66084256D02*
X163068000Y-60242256D01*
X157226000Y-74226000D02*
X157226000Y-66084256D01*
X159500000Y-76500000D02*
X157226000Y-74226000D01*
X163068000Y-50767785D02*
X163068000Y-57658000D01*
%TO.N,Net-(OPiZero3-Pin_26)*%
X159500000Y-64375942D02*
X159500000Y-74000000D01*
X163468000Y-50933471D02*
X163468000Y-60407942D01*
X168501471Y-45900000D02*
X163468000Y-50933471D01*
X248175000Y-46749571D02*
X247325429Y-45900000D01*
X248175000Y-104140686D02*
X248175000Y-46749571D01*
X247325429Y-45900000D02*
X168501471Y-45900000D01*
X247515686Y-104800000D02*
X248175000Y-104140686D01*
X231930000Y-104800000D02*
X247515686Y-104800000D01*
X163468000Y-60407942D02*
X159500000Y-64375942D01*
X226860000Y-99730000D02*
X231930000Y-104800000D01*
%TD*%
M02*
