<svg width="179" height="36" viewBox="0 0 179 36" fill="none" xmlns="http://www.w3.org/2000/svg">
<path d="M18.8463 24C22.1275 24 24.7875 21.3137 24.7875 18C24.7875 14.6863 22.1275 12 18.8463 12C17.0151 12 15.5773 12.6846 14.4874 14C13.3976 15.3154 13.3125 17.0438 13.3125 17.0438" stroke="#151515" stroke-width="1.6" stroke-linecap="square"/>
<path d="M13.3065 19.7856C13.1094 19.9461 12.8144 19.8845 12.6982 19.6584L10.7844 15.9374C10.6304 15.6381 10.8925 15.2941 11.222 15.363L16.3801 16.4415C16.7096 16.5104 16.8118 16.9306 16.5508 17.1432L13.3065 19.7856Z" fill="#151515"/>
<path d="M32.9911 23V13.466C33.3831 13.3727 33.8171 13.3073 34.2931 13.27C34.7691 13.2233 35.2031 13.2 35.5951 13.2C36.9671 13.2 38.0124 13.4567 38.7311 13.97C39.4498 14.4833 39.8091 15.2533 39.8091 16.28C39.8091 16.98 39.6318 17.5447 39.2771 17.974C38.9318 18.4033 38.4511 18.7207 37.8351 18.926C38.0031 19.1407 38.1991 19.402 38.4231 19.71C38.6471 20.018 38.8758 20.3587 39.1091 20.732C39.3518 21.096 39.5851 21.474 39.8091 21.866C40.0331 22.258 40.2291 22.636 40.3971 23H38.8011C38.5584 22.5333 38.2878 22.0667 37.9891 21.6C37.6998 21.124 37.4104 20.6807 37.1211 20.27C36.8411 19.85 36.5844 19.4953 36.3511 19.206C36.2578 19.206 36.1644 19.2107 36.0711 19.22C35.9871 19.2293 35.8984 19.234 35.8051 19.234H34.4331V23H32.9911ZM34.4331 18.058H35.4691C36.0478 18.058 36.5471 18.016 36.9671 17.932C37.3964 17.8387 37.7278 17.6613 37.9611 17.4C38.1944 17.1387 38.3111 16.7607 38.3111 16.266C38.3111 15.79 38.1944 15.4213 37.9611 15.16C37.7371 14.8987 37.4244 14.7167 37.0231 14.614C36.6311 14.502 36.1924 14.446 35.7071 14.446C35.4364 14.446 35.1938 14.4553 34.9791 14.474C34.7644 14.4927 34.5824 14.5113 34.4331 14.53V18.058ZM44.9881 23.168C44.1295 23.168 43.4248 23.0047 42.8741 22.678C42.3328 22.342 41.9315 21.8893 41.6701 21.32C41.4181 20.7507 41.2921 20.102 41.2921 19.374C41.2921 18.5153 41.4508 17.806 41.7681 17.246C42.0855 16.6767 42.4961 16.252 43.0001 15.972C43.5135 15.6827 44.0501 15.538 44.6101 15.538C45.2448 15.538 45.7908 15.6733 46.2481 15.944C46.7148 16.2053 47.0741 16.6067 47.3261 17.148C47.5781 17.68 47.7041 18.3567 47.7041 19.178C47.7041 19.262 47.6995 19.3553 47.6901 19.458C47.6901 19.5607 47.6855 19.6587 47.6761 19.752H42.7201C42.7668 20.4427 42.9815 20.984 43.3641 21.376C43.7561 21.7587 44.3395 21.95 45.1141 21.95C45.5621 21.95 45.9448 21.908 46.2621 21.824C46.5888 21.74 46.8361 21.6607 47.0041 21.586L47.2141 22.734C47.0555 22.818 46.7661 22.9113 46.3461 23.014C45.9355 23.1167 45.4828 23.168 44.9881 23.168ZM42.7481 18.702H46.3321C46.3228 18.31 46.2528 17.9647 46.1221 17.666C45.9915 17.3673 45.8001 17.134 45.5481 16.966C45.3055 16.798 44.9975 16.714 44.6241 16.714C44.2415 16.714 43.9148 16.8073 43.6441 16.994C43.3735 17.1807 43.1635 17.428 43.0141 17.736C42.8648 18.0347 42.7761 18.3567 42.7481 18.702ZM51.9395 25.632C51.4821 25.632 51.0481 25.5947 50.6375 25.52C50.2268 25.4453 49.8675 25.352 49.5595 25.24L49.8115 24.05C50.0821 24.1527 50.4041 24.2413 50.7775 24.316C51.1508 24.4 51.5475 24.442 51.9675 24.442C52.4715 24.442 52.8775 24.3767 53.1855 24.246C53.5028 24.1153 53.7315 23.91 53.8715 23.63C54.0208 23.35 54.0955 22.9953 54.0955 22.566V22.174C53.9368 22.2673 53.7081 22.37 53.4095 22.482C53.1201 22.5847 52.7655 22.636 52.3455 22.636C51.7388 22.636 51.1928 22.5147 50.7075 22.272C50.2221 22.02 49.8395 21.6373 49.5595 21.124C49.2888 20.6107 49.1535 19.9573 49.1535 19.164C49.1535 18.464 49.2935 17.8433 49.5735 17.302C49.8628 16.7607 50.2735 16.336 50.8055 16.028C51.3375 15.72 51.9721 15.566 52.7095 15.566C53.3068 15.566 53.8388 15.608 54.3055 15.692C54.7721 15.776 55.1595 15.8647 55.4675 15.958V22.412C55.4675 23.5413 55.1735 24.358 54.5855 24.862C54.0068 25.3753 53.1248 25.632 51.9395 25.632ZM52.4995 21.474C52.8261 21.474 53.1295 21.4273 53.4095 21.334C53.6988 21.2407 53.9228 21.1287 54.0815 20.998V16.882C53.9508 16.8447 53.7781 16.812 53.5635 16.784C53.3581 16.7467 53.0781 16.728 52.7235 16.728C52.2661 16.728 51.8788 16.8307 51.5615 17.036C51.2441 17.2413 51.0015 17.5307 50.8335 17.904C50.6655 18.268 50.5815 18.6927 50.5815 19.178C50.5815 19.5793 50.6328 19.9247 50.7355 20.214C50.8381 20.5033 50.9781 20.7413 51.1555 20.928C51.3328 21.1147 51.5335 21.2547 51.7575 21.348C51.9908 21.432 52.2381 21.474 52.4995 21.474ZM60.9842 23.168C60.1256 23.168 59.4209 23.0047 58.8702 22.678C58.3289 22.342 57.9276 21.8893 57.6662 21.32C57.4142 20.7507 57.2882 20.102 57.2882 19.374C57.2882 18.5153 57.4469 17.806 57.7642 17.246C58.0816 16.6767 58.4922 16.252 58.9962 15.972C59.5096 15.6827 60.0462 15.538 60.6062 15.538C61.2409 15.538 61.7869 15.6733 62.2442 15.944C62.7109 16.2053 63.0702 16.6067 63.3222 17.148C63.5742 17.68 63.7002 18.3567 63.7002 19.178C63.7002 19.262 63.6956 19.3553 63.6862 19.458C63.6862 19.5607 63.6816 19.6587 63.6722 19.752H58.7162C58.7629 20.4427 58.9776 20.984 59.3602 21.376C59.7522 21.7587 60.3356 21.95 61.1102 21.95C61.5582 21.95 61.9409 21.908 62.2582 21.824C62.5849 21.74 62.8322 21.6607 63.0002 21.586L63.2102 22.734C63.0516 22.818 62.7622 22.9113 62.3422 23.014C61.9316 23.1167 61.4789 23.168 60.9842 23.168ZM58.7442 18.702H62.3282C62.3189 18.31 62.2489 17.9647 62.1182 17.666C61.9876 17.3673 61.7962 17.134 61.5442 16.966C61.3016 16.798 60.9936 16.714 60.6202 16.714C60.2376 16.714 59.9109 16.8073 59.6402 16.994C59.3696 17.1807 59.1596 17.428 59.0102 17.736C58.8609 18.0347 58.7722 18.3567 58.7442 18.702ZM65.5415 23V15.958C65.8589 15.874 66.2649 15.79 66.7595 15.706C67.2542 15.6127 67.8235 15.566 68.4675 15.566C69.2515 15.566 69.8582 15.706 70.2875 15.986C70.7262 16.266 71.0342 16.658 71.2115 17.162C71.3889 17.6567 71.4775 18.24 71.4775 18.912V23H70.0915V19.192C70.0915 18.5947 70.0355 18.1233 69.9235 17.778C69.8209 17.4233 69.6435 17.1667 69.3915 17.008C69.1395 16.8493 68.7849 16.77 68.3275 16.77C68.0195 16.77 67.7349 16.7887 67.4735 16.826C67.2215 16.854 67.0442 16.882 66.9415 16.91V23H65.5415ZM76.9256 23.168C76.067 23.168 75.3623 23.0047 74.8116 22.678C74.2703 22.342 73.869 21.8893 73.6076 21.32C73.3556 20.7507 73.2296 20.102 73.2296 19.374C73.2296 18.5153 73.3883 17.806 73.7056 17.246C74.023 16.6767 74.4336 16.252 74.9376 15.972C75.451 15.6827 75.9876 15.538 76.5476 15.538C77.1823 15.538 77.7283 15.6733 78.1856 15.944C78.6523 16.2053 79.0116 16.6067 79.2636 17.148C79.5156 17.68 79.6416 18.3567 79.6416 19.178C79.6416 19.262 79.637 19.3553 79.6276 19.458C79.6276 19.5607 79.623 19.6587 79.6136 19.752H74.6576C74.7043 20.4427 74.919 20.984 75.3016 21.376C75.6936 21.7587 76.277 21.95 77.0516 21.95C77.4996 21.95 77.8823 21.908 78.1996 21.824C78.5263 21.74 78.7736 21.6607 78.9416 21.586L79.1516 22.734C78.993 22.818 78.7036 22.9113 78.2836 23.014C77.873 23.1167 77.4203 23.168 76.9256 23.168ZM74.6856 18.702H78.2696C78.2603 18.31 78.1903 17.9647 78.0596 17.666C77.929 17.3673 77.7376 17.134 77.4856 16.966C77.243 16.798 76.935 16.714 76.5616 16.714C76.179 16.714 75.8523 16.8073 75.5816 16.994C75.311 17.1807 75.101 17.428 74.9516 17.736C74.8023 18.0347 74.7136 18.3567 74.6856 18.702ZM81.483 23V16.07C81.7723 15.958 82.141 15.846 82.589 15.734C83.0463 15.622 83.5783 15.566 84.185 15.566C84.3623 15.566 84.549 15.58 84.745 15.608C84.9503 15.6267 85.1416 15.6547 85.319 15.692C85.4963 15.72 85.6316 15.7573 85.725 15.804L85.473 16.966C85.3516 16.9287 85.1696 16.8867 84.927 16.84C84.6936 16.7933 84.409 16.77 84.073 16.77C83.793 16.77 83.541 16.7933 83.317 16.84C83.1023 16.8773 82.9576 16.9147 82.883 16.952V23H81.483ZM89.2904 23.154C88.7304 23.154 88.231 23.0793 87.7924 22.93C87.363 22.7807 87.027 22.5333 86.7844 22.188C86.5417 21.8427 86.4204 21.39 86.4204 20.83C86.4204 20.2793 86.5557 19.8407 86.8264 19.514C87.097 19.178 87.4657 18.9353 87.9324 18.786C88.399 18.6367 88.917 18.562 89.4864 18.562C89.7477 18.562 90.009 18.5807 90.2704 18.618C90.541 18.6553 90.7184 18.6927 90.8024 18.73V18.394C90.8024 18.0953 90.7604 17.82 90.6764 17.568C90.5924 17.316 90.4337 17.1107 90.2004 16.952C89.9764 16.7933 89.6404 16.714 89.1924 16.714C88.7257 16.714 88.343 16.7467 88.0444 16.812C87.755 16.8773 87.5264 16.9427 87.3584 17.008L87.1764 15.86C87.363 15.7853 87.6477 15.7153 88.0304 15.65C88.413 15.5753 88.8424 15.538 89.3184 15.538C90.0277 15.538 90.5877 15.6547 90.9984 15.888C91.4184 16.1213 91.717 16.4527 91.8944 16.882C92.0717 17.302 92.1604 17.7873 92.1604 18.338V22.818C91.927 22.874 91.5537 22.944 91.0404 23.028C90.527 23.112 89.9437 23.154 89.2904 23.154ZM89.4304 22.02C89.7197 22.02 89.981 22.0107 90.2144 21.992C90.457 21.9733 90.653 21.95 90.8024 21.922V19.766C90.7184 19.7287 90.5737 19.6913 90.3684 19.654C90.163 19.6167 89.9157 19.598 89.6264 19.598C89.337 19.598 89.0524 19.6307 88.7724 19.696C88.5017 19.752 88.273 19.864 88.0864 20.032C87.909 20.2 87.8204 20.4567 87.8204 20.802C87.8204 21.2593 87.965 21.5767 88.2544 21.754C88.5437 21.9313 88.9357 22.02 89.4304 22.02ZM96.8412 23.154C96.1785 23.154 95.6558 23.042 95.2732 22.818C94.8998 22.5847 94.6338 22.244 94.4752 21.796C94.3258 21.348 94.2512 20.8067 94.2512 20.172V13.704L95.6372 13.466V15.706H98.3672V16.868H95.6372V20.214C95.6372 20.6527 95.6885 21.0027 95.7912 21.264C95.8938 21.516 96.0432 21.6933 96.2392 21.796C96.4445 21.8987 96.6965 21.95 96.9952 21.95C97.3125 21.95 97.5878 21.9173 97.8212 21.852C98.0638 21.7773 98.2645 21.7073 98.4232 21.642L98.6612 22.748C98.4838 22.832 98.2365 22.9207 97.9192 23.014C97.6018 23.1073 97.2425 23.154 96.8412 23.154ZM103.244 23.168C102.385 23.168 101.681 23.0047 101.13 22.678C100.589 22.342 100.187 21.8893 99.926 21.32C99.674 20.7507 99.548 20.102 99.548 19.374C99.548 18.5153 99.7067 17.806 100.024 17.246C100.341 16.6767 100.752 16.252 101.256 15.972C101.769 15.6827 102.306 15.538 102.866 15.538C103.501 15.538 104.047 15.6733 104.504 15.944C104.971 16.2053 105.33 16.6067 105.582 17.148C105.834 17.68 105.96 18.3567 105.96 19.178C105.96 19.262 105.955 19.3553 105.946 19.458C105.946 19.5607 105.941 19.6587 105.932 19.752H100.976C101.023 20.4427 101.237 20.984 101.62 21.376C102.012 21.7587 102.595 21.95 103.37 21.95C103.818 21.95 104.201 21.908 104.518 21.824C104.845 21.74 105.092 21.6607 105.26 21.586L105.47 22.734C105.311 22.818 105.022 22.9113 104.602 23.014C104.191 23.1167 103.739 23.168 103.244 23.168ZM101.004 18.702H104.588C104.579 18.31 104.509 17.9647 104.378 17.666C104.247 17.3673 104.056 17.134 103.804 16.966C103.561 16.798 103.253 16.714 102.88 16.714C102.497 16.714 102.171 16.8073 101.9 16.994C101.629 17.1807 101.419 17.428 101.27 17.736C101.121 18.0347 101.032 18.3567 101.004 18.702ZM110.915 23C110.952 22.1693 110.994 21.3293 111.041 20.48C111.088 19.6213 111.139 18.7767 111.195 17.946C111.26 17.106 111.326 16.294 111.391 15.51C111.466 14.726 111.545 13.9887 111.629 13.298H112.973C113.206 13.6993 113.458 14.1753 113.729 14.726C114.009 15.2673 114.289 15.846 114.569 16.462C114.858 17.0687 115.138 17.6753 115.409 18.282C115.68 18.8793 115.922 19.4253 116.137 19.92C116.361 19.4253 116.604 18.8793 116.865 18.282C117.136 17.6753 117.411 17.0687 117.691 16.462C117.98 15.846 118.265 15.2673 118.545 14.726C118.825 14.1753 119.082 13.6993 119.315 13.298H120.575C120.668 13.9887 120.748 14.726 120.813 15.51C120.888 16.294 120.953 17.106 121.009 17.946C121.065 18.7767 121.116 19.6213 121.163 20.48C121.219 21.3293 121.266 22.1693 121.303 23H119.875C119.847 22.1507 119.814 21.3013 119.777 20.452C119.74 19.6027 119.693 18.7673 119.637 17.946C119.59 17.1153 119.53 16.322 119.455 15.566C119.352 15.79 119.208 16.098 119.021 16.49C118.834 16.882 118.629 17.3207 118.405 17.806C118.181 18.282 117.957 18.7673 117.733 19.262C117.509 19.7567 117.299 20.2187 117.103 20.648C116.916 21.068 116.772 21.4087 116.669 21.67H115.535C115.423 21.4087 115.274 21.068 115.087 20.648C114.9 20.2187 114.695 19.7567 114.471 19.262C114.247 18.7673 114.023 18.282 113.799 17.806C113.575 17.3207 113.37 16.882 113.183 16.49C112.996 16.098 112.852 15.79 112.749 15.566C112.674 16.322 112.609 17.1153 112.553 17.946C112.506 18.7673 112.464 19.6027 112.427 20.452C112.39 21.3013 112.357 22.1507 112.329 23H110.915ZM126.664 23.168C125.805 23.168 125.101 23.0047 124.55 22.678C124.009 22.342 123.607 21.8893 123.346 21.32C123.094 20.7507 122.968 20.102 122.968 19.374C122.968 18.5153 123.127 17.806 123.444 17.246C123.761 16.6767 124.172 16.252 124.676 15.972C125.189 15.6827 125.726 15.538 126.286 15.538C126.921 15.538 127.467 15.6733 127.924 15.944C128.391 16.2053 128.75 16.6067 129.002 17.148C129.254 17.68 129.38 18.3567 129.38 19.178C129.38 19.262 129.375 19.3553 129.366 19.458C129.366 19.5607 129.361 19.6587 129.352 19.752H124.396C124.443 20.4427 124.657 20.984 125.04 21.376C125.432 21.7587 126.015 21.95 126.79 21.95C127.238 21.95 127.621 21.908 127.938 21.824C128.265 21.74 128.512 21.6607 128.68 21.586L128.89 22.734C128.731 22.818 128.442 22.9113 128.022 23.014C127.611 23.1167 127.159 23.168 126.664 23.168ZM124.424 18.702H128.008C127.999 18.31 127.929 17.9647 127.798 17.666C127.667 17.3673 127.476 17.134 127.224 16.966C126.981 16.798 126.673 16.714 126.3 16.714C125.917 16.714 125.591 16.8073 125.32 16.994C125.049 17.1807 124.839 17.428 124.69 17.736C124.541 18.0347 124.452 18.3567 124.424 18.702ZM132.957 23.182C132.323 23.182 131.814 23.126 131.431 23.014C131.058 22.902 130.806 22.818 130.675 22.762L130.955 21.586C131.142 21.6513 131.403 21.74 131.739 21.852C132.075 21.9547 132.481 22.006 132.957 22.006C133.433 22.006 133.802 21.9407 134.063 21.81C134.334 21.6793 134.469 21.446 134.469 21.11C134.469 20.9047 134.413 20.7367 134.301 20.606C134.199 20.4753 134.035 20.354 133.811 20.242C133.587 20.1207 133.284 19.9853 132.901 19.836C132.519 19.6773 132.169 19.514 131.851 19.346C131.534 19.1687 131.282 18.9447 131.095 18.674C130.909 18.4033 130.815 18.0487 130.815 17.61C130.815 17.19 130.923 16.826 131.137 16.518C131.352 16.21 131.655 15.972 132.047 15.804C132.449 15.6267 132.92 15.538 133.461 15.538C133.937 15.538 134.353 15.58 134.707 15.664C135.071 15.7387 135.342 15.8133 135.519 15.888L135.239 17.036C135.081 16.9613 134.861 16.8867 134.581 16.812C134.311 16.728 133.951 16.686 133.503 16.686C133.13 16.686 132.817 16.756 132.565 16.896C132.323 17.036 132.201 17.2553 132.201 17.554C132.201 17.7593 132.248 17.9273 132.341 18.058C132.444 18.1887 132.603 18.31 132.817 18.422C133.032 18.534 133.312 18.6553 133.657 18.786C134.124 18.9633 134.521 19.1453 134.847 19.332C135.174 19.5187 135.421 19.752 135.589 20.032C135.767 20.3027 135.855 20.6573 135.855 21.096C135.855 21.5533 135.739 21.936 135.505 22.244C135.281 22.552 134.95 22.7853 134.511 22.944C134.082 23.1027 133.564 23.182 132.957 23.182ZM139.274 23.182C138.639 23.182 138.13 23.126 137.748 23.014C137.374 22.902 137.122 22.818 136.992 22.762L137.272 21.586C137.458 21.6513 137.72 21.74 138.056 21.852C138.392 21.9547 138.798 22.006 139.274 22.006C139.75 22.006 140.118 21.9407 140.38 21.81C140.65 21.6793 140.786 21.446 140.786 21.11C140.786 20.9047 140.73 20.7367 140.618 20.606C140.515 20.4753 140.352 20.354 140.128 20.242C139.904 20.1207 139.6 19.9853 139.218 19.836C138.835 19.6773 138.485 19.514 138.168 19.346C137.85 19.1687 137.598 18.9447 137.412 18.674C137.225 18.4033 137.132 18.0487 137.132 17.61C137.132 17.19 137.239 16.826 137.454 16.518C137.668 16.21 137.972 15.972 138.364 15.804C138.765 15.6267 139.236 15.538 139.778 15.538C140.254 15.538 140.669 15.58 141.024 15.664C141.388 15.7387 141.658 15.8133 141.836 15.888L141.556 17.036C141.397 16.9613 141.178 16.8867 140.898 16.812C140.627 16.728 140.268 16.686 139.82 16.686C139.446 16.686 139.134 16.756 138.882 16.896C138.639 17.036 138.518 17.2553 138.518 17.554C138.518 17.7593 138.564 17.9273 138.658 18.058C138.76 18.1887 138.919 18.31 139.134 18.422C139.348 18.534 139.628 18.6553 139.974 18.786C140.44 18.9633 140.837 19.1453 141.164 19.332C141.49 19.5187 141.738 19.752 141.906 20.032C142.083 20.3027 142.172 20.6573 142.172 21.096C142.172 21.5533 142.055 21.936 141.822 22.244C141.598 22.552 141.266 22.7853 140.828 22.944C140.398 23.1027 139.88 23.182 139.274 23.182ZM146.22 23.154C145.66 23.154 145.161 23.0793 144.722 22.93C144.293 22.7807 143.957 22.5333 143.714 22.188C143.471 21.8427 143.35 21.39 143.35 20.83C143.35 20.2793 143.485 19.8407 143.756 19.514C144.027 19.178 144.395 18.9353 144.862 18.786C145.329 18.6367 145.847 18.562 146.416 18.562C146.677 18.562 146.939 18.5807 147.2 18.618C147.471 18.6553 147.648 18.6927 147.732 18.73V18.394C147.732 18.0953 147.69 17.82 147.606 17.568C147.522 17.316 147.363 17.1107 147.13 16.952C146.906 16.7933 146.57 16.714 146.122 16.714C145.655 16.714 145.273 16.7467 144.974 16.812C144.685 16.8773 144.456 16.9427 144.288 17.008L144.106 15.86C144.293 15.7853 144.577 15.7153 144.96 15.65C145.343 15.5753 145.772 15.538 146.248 15.538C146.957 15.538 147.517 15.6547 147.928 15.888C148.348 16.1213 148.647 16.4527 148.824 16.882C149.001 17.302 149.09 17.7873 149.09 18.338V22.818C148.857 22.874 148.483 22.944 147.97 23.028C147.457 23.112 146.873 23.154 146.22 23.154ZM146.36 22.02C146.649 22.02 146.911 22.0107 147.144 21.992C147.387 21.9733 147.583 21.95 147.732 21.922V19.766C147.648 19.7287 147.503 19.6913 147.298 19.654C147.093 19.6167 146.845 19.598 146.556 19.598C146.267 19.598 145.982 19.6307 145.702 19.696C145.431 19.752 145.203 19.864 145.016 20.032C144.839 20.2 144.75 20.4567 144.75 20.802C144.75 21.2593 144.895 21.5767 145.184 21.754C145.473 21.9313 145.865 22.02 146.36 22.02ZM153.631 25.632C153.174 25.632 152.74 25.5947 152.329 25.52C151.918 25.4453 151.559 25.352 151.251 25.24L151.503 24.05C151.774 24.1527 152.096 24.2413 152.469 24.316C152.842 24.4 153.239 24.442 153.659 24.442C154.163 24.442 154.569 24.3767 154.877 24.246C155.194 24.1153 155.423 23.91 155.563 23.63C155.712 23.35 155.787 22.9953 155.787 22.566V22.174C155.628 22.2673 155.4 22.37 155.101 22.482C154.812 22.5847 154.457 22.636 154.037 22.636C153.43 22.636 152.884 22.5147 152.399 22.272C151.914 22.02 151.531 21.6373 151.251 21.124C150.98 20.6107 150.845 19.9573 150.845 19.164C150.845 18.464 150.985 17.8433 151.265 17.302C151.554 16.7607 151.965 16.336 152.497 16.028C153.029 15.72 153.664 15.566 154.401 15.566C154.998 15.566 155.53 15.608 155.997 15.692C156.464 15.776 156.851 15.8647 157.159 15.958V22.412C157.159 23.5413 156.865 24.358 156.277 24.862C155.698 25.3753 154.816 25.632 153.631 25.632ZM154.191 21.474C154.518 21.474 154.821 21.4273 155.101 21.334C155.39 21.2407 155.614 21.1287 155.773 20.998V16.882C155.642 16.8447 155.47 16.812 155.255 16.784C155.05 16.7467 154.77 16.728 154.415 16.728C153.958 16.728 153.57 16.8307 153.253 17.036C152.936 17.2413 152.693 17.5307 152.525 17.904C152.357 18.268 152.273 18.6927 152.273 19.178C152.273 19.5793 152.324 19.9247 152.427 20.214C152.53 20.5033 152.67 20.7413 152.847 20.928C153.024 21.1147 153.225 21.2547 153.449 21.348C153.682 21.432 153.93 21.474 154.191 21.474ZM162.676 23.168C161.817 23.168 161.112 23.0047 160.562 22.678C160.02 22.342 159.619 21.8893 159.358 21.32C159.106 20.7507 158.98 20.102 158.98 19.374C158.98 18.5153 159.138 17.806 159.456 17.246C159.773 16.6767 160.184 16.252 160.688 15.972C161.201 15.6827 161.738 15.538 162.298 15.538C162.932 15.538 163.478 15.6733 163.936 15.944C164.402 16.2053 164.762 16.6067 165.014 17.148C165.266 17.68 165.392 18.3567 165.392 19.178C165.392 19.262 165.387 19.3553 165.378 19.458C165.378 19.5607 165.373 19.6587 165.364 19.752H160.408C160.454 20.4427 160.669 20.984 161.052 21.376C161.444 21.7587 162.027 21.95 162.802 21.95C163.25 21.95 163.632 21.908 163.95 21.824C164.276 21.74 164.524 21.6607 164.692 21.586L164.902 22.734C164.743 22.818 164.454 22.9113 164.034 23.014C163.623 23.1167 163.17 23.168 162.676 23.168ZM160.436 18.702H164.02C164.01 18.31 163.94 17.9647 163.81 17.666C163.679 17.3673 163.488 17.134 163.236 16.966C162.993 16.798 162.685 16.714 162.312 16.714C161.929 16.714 161.602 16.8073 161.332 16.994C161.061 17.1807 160.851 17.428 160.702 17.736C160.552 18.0347 160.464 18.3567 160.436 18.702Z" fill="#151515"/>
</svg>
