%TF.GenerationSoftware,KiCad,Pcbnew,8.0.4-8.0.4-0~ubuntu22.04.1*%
%TF.CreationDate,2024-09-02T17:21:27-04:00*%
%TF.ProjectId,hivemind-pcb,68697665-6d69-46e6-942d-7063622e6b69,rev?*%
%TF.SameCoordinates,Original*%
%TF.FileFunction,Legend,Top*%
%TF.FilePolarity,Positive*%
%FSLAX46Y46*%
G04 Gerber Fmt 4.6, Leading zero omitted, Abs format (unit mm)*
G04 Created by KiCad (PCBNEW 8.0.4-8.0.4-0~ubuntu22.04.1) date 2024-09-02 17:21:27*
%MOMM*%
%LPD*%
G01*
G04 APERTURE LIST*
%ADD10C,0.100000*%
%ADD11C,0.200000*%
%ADD12C,0.150000*%
%ADD13C,0.120000*%
G04 APERTURE END LIST*
D10*
X193500000Y-47750000D02*
X173500000Y-47750000D01*
X194250000Y-52500000D02*
X194250000Y-48500000D01*
X173500000Y-53250000D02*
X193500000Y-53250000D01*
X172750000Y-48500000D02*
X172750000Y-52500000D01*
X173500000Y-53250000D02*
G75*
G02*
X172750000Y-52500000I0J750000D01*
G01*
X194250000Y-52500000D02*
G75*
G02*
X193500000Y-53250000I-750000J0D01*
G01*
X193500000Y-47750000D02*
G75*
G02*
X194250000Y-48500000I0J-750000D01*
G01*
X172750000Y-48500000D02*
G75*
G02*
X173500000Y-47750000I750000J0D01*
G01*
D11*
X201819600Y-78677945D02*
X201867219Y-78535088D01*
X201867219Y-78535088D02*
X201867219Y-78296993D01*
X201867219Y-78296993D02*
X201819600Y-78201755D01*
X201819600Y-78201755D02*
X201771980Y-78154136D01*
X201771980Y-78154136D02*
X201676742Y-78106517D01*
X201676742Y-78106517D02*
X201581504Y-78106517D01*
X201581504Y-78106517D02*
X201486266Y-78154136D01*
X201486266Y-78154136D02*
X201438647Y-78201755D01*
X201438647Y-78201755D02*
X201391028Y-78296993D01*
X201391028Y-78296993D02*
X201343409Y-78487469D01*
X201343409Y-78487469D02*
X201295790Y-78582707D01*
X201295790Y-78582707D02*
X201248171Y-78630326D01*
X201248171Y-78630326D02*
X201152933Y-78677945D01*
X201152933Y-78677945D02*
X201057695Y-78677945D01*
X201057695Y-78677945D02*
X200962457Y-78630326D01*
X200962457Y-78630326D02*
X200914838Y-78582707D01*
X200914838Y-78582707D02*
X200867219Y-78487469D01*
X200867219Y-78487469D02*
X200867219Y-78249374D01*
X200867219Y-78249374D02*
X200914838Y-78106517D01*
X201867219Y-77677945D02*
X200867219Y-77677945D01*
X200867219Y-77677945D02*
X200867219Y-77439850D01*
X200867219Y-77439850D02*
X200914838Y-77296993D01*
X200914838Y-77296993D02*
X201010076Y-77201755D01*
X201010076Y-77201755D02*
X201105314Y-77154136D01*
X201105314Y-77154136D02*
X201295790Y-77106517D01*
X201295790Y-77106517D02*
X201438647Y-77106517D01*
X201438647Y-77106517D02*
X201629123Y-77154136D01*
X201629123Y-77154136D02*
X201724361Y-77201755D01*
X201724361Y-77201755D02*
X201819600Y-77296993D01*
X201819600Y-77296993D02*
X201867219Y-77439850D01*
X201867219Y-77439850D02*
X201867219Y-77677945D01*
X201581504Y-76725564D02*
X201581504Y-76249374D01*
X201867219Y-76820802D02*
X200867219Y-76487469D01*
X200867219Y-76487469D02*
X201867219Y-76154136D01*
X205914838Y-78106517D02*
X205867219Y-78201755D01*
X205867219Y-78201755D02*
X205867219Y-78344612D01*
X205867219Y-78344612D02*
X205914838Y-78487469D01*
X205914838Y-78487469D02*
X206010076Y-78582707D01*
X206010076Y-78582707D02*
X206105314Y-78630326D01*
X206105314Y-78630326D02*
X206295790Y-78677945D01*
X206295790Y-78677945D02*
X206438647Y-78677945D01*
X206438647Y-78677945D02*
X206629123Y-78630326D01*
X206629123Y-78630326D02*
X206724361Y-78582707D01*
X206724361Y-78582707D02*
X206819600Y-78487469D01*
X206819600Y-78487469D02*
X206867219Y-78344612D01*
X206867219Y-78344612D02*
X206867219Y-78249374D01*
X206867219Y-78249374D02*
X206819600Y-78106517D01*
X206819600Y-78106517D02*
X206771980Y-78058898D01*
X206771980Y-78058898D02*
X206438647Y-78058898D01*
X206438647Y-78058898D02*
X206438647Y-78249374D01*
X206867219Y-77630326D02*
X205867219Y-77630326D01*
X205867219Y-77630326D02*
X206867219Y-77058898D01*
X206867219Y-77058898D02*
X205867219Y-77058898D01*
X206867219Y-76582707D02*
X205867219Y-76582707D01*
X205867219Y-76582707D02*
X205867219Y-76344612D01*
X205867219Y-76344612D02*
X205914838Y-76201755D01*
X205914838Y-76201755D02*
X206010076Y-76106517D01*
X206010076Y-76106517D02*
X206105314Y-76058898D01*
X206105314Y-76058898D02*
X206295790Y-76011279D01*
X206295790Y-76011279D02*
X206438647Y-76011279D01*
X206438647Y-76011279D02*
X206629123Y-76058898D01*
X206629123Y-76058898D02*
X206724361Y-76106517D01*
X206724361Y-76106517D02*
X206819600Y-76201755D01*
X206819600Y-76201755D02*
X206867219Y-76344612D01*
X206867219Y-76344612D02*
X206867219Y-76582707D01*
X203367219Y-78773183D02*
X204367219Y-78439850D01*
X204367219Y-78439850D02*
X203367219Y-78106517D01*
X204271980Y-77201755D02*
X204319600Y-77249374D01*
X204319600Y-77249374D02*
X204367219Y-77392231D01*
X204367219Y-77392231D02*
X204367219Y-77487469D01*
X204367219Y-77487469D02*
X204319600Y-77630326D01*
X204319600Y-77630326D02*
X204224361Y-77725564D01*
X204224361Y-77725564D02*
X204129123Y-77773183D01*
X204129123Y-77773183D02*
X203938647Y-77820802D01*
X203938647Y-77820802D02*
X203795790Y-77820802D01*
X203795790Y-77820802D02*
X203605314Y-77773183D01*
X203605314Y-77773183D02*
X203510076Y-77725564D01*
X203510076Y-77725564D02*
X203414838Y-77630326D01*
X203414838Y-77630326D02*
X203367219Y-77487469D01*
X203367219Y-77487469D02*
X203367219Y-77392231D01*
X203367219Y-77392231D02*
X203414838Y-77249374D01*
X203414838Y-77249374D02*
X203462457Y-77201755D01*
X204271980Y-76201755D02*
X204319600Y-76249374D01*
X204319600Y-76249374D02*
X204367219Y-76392231D01*
X204367219Y-76392231D02*
X204367219Y-76487469D01*
X204367219Y-76487469D02*
X204319600Y-76630326D01*
X204319600Y-76630326D02*
X204224361Y-76725564D01*
X204224361Y-76725564D02*
X204129123Y-76773183D01*
X204129123Y-76773183D02*
X203938647Y-76820802D01*
X203938647Y-76820802D02*
X203795790Y-76820802D01*
X203795790Y-76820802D02*
X203605314Y-76773183D01*
X203605314Y-76773183D02*
X203510076Y-76725564D01*
X203510076Y-76725564D02*
X203414838Y-76630326D01*
X203414838Y-76630326D02*
X203367219Y-76487469D01*
X203367219Y-76487469D02*
X203367219Y-76392231D01*
X203367219Y-76392231D02*
X203414838Y-76249374D01*
X203414838Y-76249374D02*
X203462457Y-76201755D01*
X199319600Y-78677945D02*
X199367219Y-78535088D01*
X199367219Y-78535088D02*
X199367219Y-78296993D01*
X199367219Y-78296993D02*
X199319600Y-78201755D01*
X199319600Y-78201755D02*
X199271980Y-78154136D01*
X199271980Y-78154136D02*
X199176742Y-78106517D01*
X199176742Y-78106517D02*
X199081504Y-78106517D01*
X199081504Y-78106517D02*
X198986266Y-78154136D01*
X198986266Y-78154136D02*
X198938647Y-78201755D01*
X198938647Y-78201755D02*
X198891028Y-78296993D01*
X198891028Y-78296993D02*
X198843409Y-78487469D01*
X198843409Y-78487469D02*
X198795790Y-78582707D01*
X198795790Y-78582707D02*
X198748171Y-78630326D01*
X198748171Y-78630326D02*
X198652933Y-78677945D01*
X198652933Y-78677945D02*
X198557695Y-78677945D01*
X198557695Y-78677945D02*
X198462457Y-78630326D01*
X198462457Y-78630326D02*
X198414838Y-78582707D01*
X198414838Y-78582707D02*
X198367219Y-78487469D01*
X198367219Y-78487469D02*
X198367219Y-78249374D01*
X198367219Y-78249374D02*
X198414838Y-78106517D01*
X199271980Y-77106517D02*
X199319600Y-77154136D01*
X199319600Y-77154136D02*
X199367219Y-77296993D01*
X199367219Y-77296993D02*
X199367219Y-77392231D01*
X199367219Y-77392231D02*
X199319600Y-77535088D01*
X199319600Y-77535088D02*
X199224361Y-77630326D01*
X199224361Y-77630326D02*
X199129123Y-77677945D01*
X199129123Y-77677945D02*
X198938647Y-77725564D01*
X198938647Y-77725564D02*
X198795790Y-77725564D01*
X198795790Y-77725564D02*
X198605314Y-77677945D01*
X198605314Y-77677945D02*
X198510076Y-77630326D01*
X198510076Y-77630326D02*
X198414838Y-77535088D01*
X198414838Y-77535088D02*
X198367219Y-77392231D01*
X198367219Y-77392231D02*
X198367219Y-77296993D01*
X198367219Y-77296993D02*
X198414838Y-77154136D01*
X198414838Y-77154136D02*
X198462457Y-77106517D01*
X199367219Y-76201755D02*
X199367219Y-76677945D01*
X199367219Y-76677945D02*
X198367219Y-76677945D01*
X238618421Y-55867219D02*
X238142231Y-55867219D01*
X238142231Y-55867219D02*
X238142231Y-54867219D01*
X238951755Y-55343409D02*
X239285088Y-55343409D01*
X239427945Y-55867219D02*
X238951755Y-55867219D01*
X238951755Y-55867219D02*
X238951755Y-54867219D01*
X238951755Y-54867219D02*
X239427945Y-54867219D01*
X239856517Y-55867219D02*
X239856517Y-54867219D01*
X239856517Y-54867219D02*
X240094612Y-54867219D01*
X240094612Y-54867219D02*
X240237469Y-54914838D01*
X240237469Y-54914838D02*
X240332707Y-55010076D01*
X240332707Y-55010076D02*
X240380326Y-55105314D01*
X240380326Y-55105314D02*
X240427945Y-55295790D01*
X240427945Y-55295790D02*
X240427945Y-55438647D01*
X240427945Y-55438647D02*
X240380326Y-55629123D01*
X240380326Y-55629123D02*
X240332707Y-55724361D01*
X240332707Y-55724361D02*
X240237469Y-55819600D01*
X240237469Y-55819600D02*
X240094612Y-55867219D01*
X240094612Y-55867219D02*
X239856517Y-55867219D01*
X236332706Y-52843409D02*
X236475563Y-52891028D01*
X236475563Y-52891028D02*
X236523182Y-52938647D01*
X236523182Y-52938647D02*
X236570801Y-53033885D01*
X236570801Y-53033885D02*
X236570801Y-53176742D01*
X236570801Y-53176742D02*
X236523182Y-53271980D01*
X236523182Y-53271980D02*
X236475563Y-53319600D01*
X236475563Y-53319600D02*
X236380325Y-53367219D01*
X236380325Y-53367219D02*
X235999373Y-53367219D01*
X235999373Y-53367219D02*
X235999373Y-52367219D01*
X235999373Y-52367219D02*
X236332706Y-52367219D01*
X236332706Y-52367219D02*
X236427944Y-52414838D01*
X236427944Y-52414838D02*
X236475563Y-52462457D01*
X236475563Y-52462457D02*
X236523182Y-52557695D01*
X236523182Y-52557695D02*
X236523182Y-52652933D01*
X236523182Y-52652933D02*
X236475563Y-52748171D01*
X236475563Y-52748171D02*
X236427944Y-52795790D01*
X236427944Y-52795790D02*
X236332706Y-52843409D01*
X236332706Y-52843409D02*
X235999373Y-52843409D01*
X237427944Y-52700552D02*
X237427944Y-53367219D01*
X236999373Y-52700552D02*
X236999373Y-53224361D01*
X236999373Y-53224361D02*
X237046992Y-53319600D01*
X237046992Y-53319600D02*
X237142230Y-53367219D01*
X237142230Y-53367219D02*
X237285087Y-53367219D01*
X237285087Y-53367219D02*
X237380325Y-53319600D01*
X237380325Y-53319600D02*
X237427944Y-53271980D01*
X237761278Y-52700552D02*
X238142230Y-52700552D01*
X237904135Y-52367219D02*
X237904135Y-53224361D01*
X237904135Y-53224361D02*
X237951754Y-53319600D01*
X237951754Y-53319600D02*
X238046992Y-53367219D01*
X238046992Y-53367219D02*
X238142230Y-53367219D01*
X238332707Y-52700552D02*
X238713659Y-52700552D01*
X238475564Y-52367219D02*
X238475564Y-53224361D01*
X238475564Y-53224361D02*
X238523183Y-53319600D01*
X238523183Y-53319600D02*
X238618421Y-53367219D01*
X238618421Y-53367219D02*
X238713659Y-53367219D01*
X239189850Y-53367219D02*
X239094612Y-53319600D01*
X239094612Y-53319600D02*
X239046993Y-53271980D01*
X239046993Y-53271980D02*
X238999374Y-53176742D01*
X238999374Y-53176742D02*
X238999374Y-52891028D01*
X238999374Y-52891028D02*
X239046993Y-52795790D01*
X239046993Y-52795790D02*
X239094612Y-52748171D01*
X239094612Y-52748171D02*
X239189850Y-52700552D01*
X239189850Y-52700552D02*
X239332707Y-52700552D01*
X239332707Y-52700552D02*
X239427945Y-52748171D01*
X239427945Y-52748171D02*
X239475564Y-52795790D01*
X239475564Y-52795790D02*
X239523183Y-52891028D01*
X239523183Y-52891028D02*
X239523183Y-53176742D01*
X239523183Y-53176742D02*
X239475564Y-53271980D01*
X239475564Y-53271980D02*
X239427945Y-53319600D01*
X239427945Y-53319600D02*
X239332707Y-53367219D01*
X239332707Y-53367219D02*
X239189850Y-53367219D01*
X239951755Y-52700552D02*
X239951755Y-53367219D01*
X239951755Y-52795790D02*
X239999374Y-52748171D01*
X239999374Y-52748171D02*
X240094612Y-52700552D01*
X240094612Y-52700552D02*
X240237469Y-52700552D01*
X240237469Y-52700552D02*
X240332707Y-52748171D01*
X240332707Y-52748171D02*
X240380326Y-52843409D01*
X240380326Y-52843409D02*
X240380326Y-53367219D01*
X238332707Y-49914838D02*
X238237469Y-49867219D01*
X238237469Y-49867219D02*
X238094612Y-49867219D01*
X238094612Y-49867219D02*
X237951755Y-49914838D01*
X237951755Y-49914838D02*
X237856517Y-50010076D01*
X237856517Y-50010076D02*
X237808898Y-50105314D01*
X237808898Y-50105314D02*
X237761279Y-50295790D01*
X237761279Y-50295790D02*
X237761279Y-50438647D01*
X237761279Y-50438647D02*
X237808898Y-50629123D01*
X237808898Y-50629123D02*
X237856517Y-50724361D01*
X237856517Y-50724361D02*
X237951755Y-50819600D01*
X237951755Y-50819600D02*
X238094612Y-50867219D01*
X238094612Y-50867219D02*
X238189850Y-50867219D01*
X238189850Y-50867219D02*
X238332707Y-50819600D01*
X238332707Y-50819600D02*
X238380326Y-50771980D01*
X238380326Y-50771980D02*
X238380326Y-50438647D01*
X238380326Y-50438647D02*
X238189850Y-50438647D01*
X238808898Y-50867219D02*
X238808898Y-49867219D01*
X238808898Y-49867219D02*
X239380326Y-50867219D01*
X239380326Y-50867219D02*
X239380326Y-49867219D01*
X239856517Y-50867219D02*
X239856517Y-49867219D01*
X239856517Y-49867219D02*
X240094612Y-49867219D01*
X240094612Y-49867219D02*
X240237469Y-49914838D01*
X240237469Y-49914838D02*
X240332707Y-50010076D01*
X240332707Y-50010076D02*
X240380326Y-50105314D01*
X240380326Y-50105314D02*
X240427945Y-50295790D01*
X240427945Y-50295790D02*
X240427945Y-50438647D01*
X240427945Y-50438647D02*
X240380326Y-50629123D01*
X240380326Y-50629123D02*
X240332707Y-50724361D01*
X240332707Y-50724361D02*
X240237469Y-50819600D01*
X240237469Y-50819600D02*
X240094612Y-50867219D01*
X240094612Y-50867219D02*
X239856517Y-50867219D01*
X237523184Y-47367219D02*
X238142231Y-47367219D01*
X238142231Y-47367219D02*
X237808898Y-47748171D01*
X237808898Y-47748171D02*
X237951755Y-47748171D01*
X237951755Y-47748171D02*
X238046993Y-47795790D01*
X238046993Y-47795790D02*
X238094612Y-47843409D01*
X238094612Y-47843409D02*
X238142231Y-47938647D01*
X238142231Y-47938647D02*
X238142231Y-48176742D01*
X238142231Y-48176742D02*
X238094612Y-48271980D01*
X238094612Y-48271980D02*
X238046993Y-48319600D01*
X238046993Y-48319600D02*
X237951755Y-48367219D01*
X237951755Y-48367219D02*
X237666041Y-48367219D01*
X237666041Y-48367219D02*
X237570803Y-48319600D01*
X237570803Y-48319600D02*
X237523184Y-48271980D01*
X238570803Y-48271980D02*
X238618422Y-48319600D01*
X238618422Y-48319600D02*
X238570803Y-48367219D01*
X238570803Y-48367219D02*
X238523184Y-48319600D01*
X238523184Y-48319600D02*
X238570803Y-48271980D01*
X238570803Y-48271980D02*
X238570803Y-48367219D01*
X238951755Y-47367219D02*
X239570802Y-47367219D01*
X239570802Y-47367219D02*
X239237469Y-47748171D01*
X239237469Y-47748171D02*
X239380326Y-47748171D01*
X239380326Y-47748171D02*
X239475564Y-47795790D01*
X239475564Y-47795790D02*
X239523183Y-47843409D01*
X239523183Y-47843409D02*
X239570802Y-47938647D01*
X239570802Y-47938647D02*
X239570802Y-48176742D01*
X239570802Y-48176742D02*
X239523183Y-48271980D01*
X239523183Y-48271980D02*
X239475564Y-48319600D01*
X239475564Y-48319600D02*
X239380326Y-48367219D01*
X239380326Y-48367219D02*
X239094612Y-48367219D01*
X239094612Y-48367219D02*
X238999374Y-48319600D01*
X238999374Y-48319600D02*
X238951755Y-48271980D01*
X239856517Y-47367219D02*
X240189850Y-48367219D01*
X240189850Y-48367219D02*
X240523183Y-47367219D01*
D10*
G36*
X179273378Y-49375000D02*
G01*
X179034264Y-49375000D01*
X179034264Y-48937316D01*
X178617830Y-48937316D01*
X178617830Y-49375000D01*
X178378716Y-49375000D01*
X178378716Y-48343318D01*
X178617830Y-48343318D01*
X178617830Y-48773674D01*
X179034264Y-48773674D01*
X179034264Y-48343318D01*
X179273378Y-48343318D01*
X179273378Y-49375000D01*
G37*
G36*
X179990230Y-48905076D02*
G01*
X180012208Y-48950583D01*
X180017097Y-48961496D01*
X180036960Y-49007805D01*
X180042254Y-49021092D01*
X180060756Y-48975021D01*
X180067167Y-48960031D01*
X180088586Y-48914879D01*
X180095011Y-48902878D01*
X180358060Y-48378977D01*
X180372470Y-48357972D01*
X180388835Y-48346981D01*
X180409595Y-48343318D01*
X180436706Y-48343318D01*
X180618423Y-48343318D01*
X180618423Y-49375000D01*
X180408618Y-49375000D01*
X180408618Y-48786374D01*
X180410009Y-48735850D01*
X180413015Y-48693562D01*
X180141417Y-49218928D01*
X180108557Y-49255492D01*
X180107223Y-49256297D01*
X180058374Y-49268754D01*
X180026134Y-49268754D01*
X179978391Y-49257064D01*
X179977041Y-49256297D01*
X179943092Y-49218928D01*
X179670028Y-48693073D01*
X179674180Y-48741922D01*
X179675646Y-48786374D01*
X179675646Y-49375000D01*
X179466085Y-49375000D01*
X179466085Y-48343318D01*
X179647558Y-48343318D01*
X179674669Y-48343318D01*
X179695429Y-48346981D01*
X179711794Y-48357972D01*
X179726448Y-48378977D01*
X179990230Y-48905076D01*
G37*
G36*
X180783531Y-48859159D02*
G01*
X181163329Y-48859159D01*
X181163329Y-49031106D01*
X180783531Y-49031106D01*
X180783531Y-48859159D01*
G37*
G36*
X181690420Y-48338555D02*
G01*
X181742600Y-48348966D01*
X181792010Y-48366765D01*
X181837922Y-48392212D01*
X181879274Y-48425567D01*
X181912910Y-48462752D01*
X181942644Y-48506521D01*
X181965693Y-48551581D01*
X181985225Y-48602013D01*
X181992778Y-48626151D01*
X182005493Y-48677610D01*
X182013640Y-48726318D01*
X182019004Y-48778462D01*
X182021587Y-48834042D01*
X182021842Y-48858914D01*
X182020821Y-48908027D01*
X182017046Y-48962135D01*
X182010489Y-49012806D01*
X181999590Y-49066509D01*
X181992778Y-49091678D01*
X181976978Y-49138786D01*
X181955883Y-49186747D01*
X181931271Y-49229375D01*
X181912910Y-49254832D01*
X181879274Y-49292065D01*
X181837922Y-49325583D01*
X181792010Y-49351308D01*
X181742600Y-49369246D01*
X181690420Y-49379738D01*
X181640579Y-49382815D01*
X181590786Y-49379738D01*
X181538769Y-49369246D01*
X181489637Y-49351308D01*
X181444142Y-49325583D01*
X181403034Y-49292065D01*
X181369470Y-49254832D01*
X181340018Y-49211088D01*
X181317181Y-49166089D01*
X181297823Y-49115759D01*
X181290335Y-49091678D01*
X181277940Y-49040219D01*
X181269999Y-48991511D01*
X181264770Y-48939367D01*
X181262252Y-48883786D01*
X181262003Y-48858914D01*
X181487195Y-48858914D01*
X181488004Y-48910297D01*
X181490848Y-48962190D01*
X181496410Y-49012508D01*
X181500140Y-49034769D01*
X181512068Y-49085420D01*
X181529338Y-49132142D01*
X181534578Y-49142480D01*
X181563925Y-49181998D01*
X181583915Y-49196458D01*
X181631597Y-49210516D01*
X181640579Y-49210868D01*
X181688693Y-49200609D01*
X181697488Y-49196458D01*
X181734836Y-49162648D01*
X181747802Y-49142480D01*
X181767769Y-49095769D01*
X181780665Y-49047295D01*
X181783217Y-49034769D01*
X181790865Y-48983245D01*
X181794761Y-48934134D01*
X181796441Y-48885224D01*
X181796650Y-48858914D01*
X181795811Y-48807730D01*
X181792859Y-48755951D01*
X181787087Y-48705623D01*
X181783217Y-48683304D01*
X181771010Y-48632418D01*
X181753217Y-48585824D01*
X181747802Y-48575593D01*
X181717730Y-48536380D01*
X181697488Y-48522103D01*
X181649568Y-48507807D01*
X181640579Y-48507449D01*
X181592640Y-48517882D01*
X181583915Y-48522103D01*
X181547170Y-48555562D01*
X181534578Y-48575593D01*
X181515222Y-48622060D01*
X181502642Y-48670695D01*
X181500140Y-48683304D01*
X181492770Y-48734909D01*
X181489015Y-48783959D01*
X181487309Y-48839151D01*
X181487195Y-48858914D01*
X181262003Y-48858914D01*
X181262999Y-48809802D01*
X181266679Y-48755694D01*
X181273070Y-48705022D01*
X181283695Y-48651319D01*
X181290335Y-48626151D01*
X181305997Y-48578936D01*
X181326901Y-48530891D01*
X181351283Y-48488218D01*
X181369470Y-48462752D01*
X181403034Y-48425567D01*
X181444142Y-48392212D01*
X181489637Y-48366765D01*
X181538769Y-48348966D01*
X181590786Y-48338555D01*
X181640579Y-48335502D01*
X181690420Y-48338555D01*
G37*
G36*
X182502283Y-48338555D02*
G01*
X182554464Y-48348966D01*
X182603873Y-48366765D01*
X182649785Y-48392212D01*
X182691137Y-48425567D01*
X182724773Y-48462752D01*
X182754507Y-48506521D01*
X182777556Y-48551581D01*
X182797088Y-48602013D01*
X182804641Y-48626151D01*
X182817357Y-48677610D01*
X182825503Y-48726318D01*
X182830867Y-48778462D01*
X182833450Y-48834042D01*
X182833706Y-48858914D01*
X182832684Y-48908027D01*
X182828909Y-48962135D01*
X182822352Y-49012806D01*
X182811453Y-49066509D01*
X182804641Y-49091678D01*
X182788841Y-49138786D01*
X182767746Y-49186747D01*
X182743134Y-49229375D01*
X182724773Y-49254832D01*
X182691137Y-49292065D01*
X182649785Y-49325583D01*
X182603873Y-49351308D01*
X182554464Y-49369246D01*
X182502283Y-49379738D01*
X182452443Y-49382815D01*
X182402649Y-49379738D01*
X182350632Y-49369246D01*
X182301500Y-49351308D01*
X182256005Y-49325583D01*
X182214897Y-49292065D01*
X182181333Y-49254832D01*
X182151881Y-49211088D01*
X182129045Y-49166089D01*
X182109686Y-49115759D01*
X182102198Y-49091678D01*
X182089803Y-49040219D01*
X182081862Y-48991511D01*
X182076633Y-48939367D01*
X182074115Y-48883786D01*
X182073866Y-48858914D01*
X182299058Y-48858914D01*
X182299867Y-48910297D01*
X182302711Y-48962190D01*
X182308274Y-49012508D01*
X182312003Y-49034769D01*
X182323931Y-49085420D01*
X182341201Y-49132142D01*
X182346441Y-49142480D01*
X182375788Y-49181998D01*
X182395778Y-49196458D01*
X182443460Y-49210516D01*
X182452443Y-49210868D01*
X182500556Y-49200609D01*
X182509351Y-49196458D01*
X182546699Y-49162648D01*
X182559665Y-49142480D01*
X182579632Y-49095769D01*
X182592528Y-49047295D01*
X182595080Y-49034769D01*
X182602728Y-48983245D01*
X182606625Y-48934134D01*
X182608304Y-48885224D01*
X182608514Y-48858914D01*
X182607674Y-48807730D01*
X182604722Y-48755951D01*
X182598950Y-48705623D01*
X182595080Y-48683304D01*
X182582873Y-48632418D01*
X182565080Y-48585824D01*
X182559665Y-48575593D01*
X182529593Y-48536380D01*
X182509351Y-48522103D01*
X182461431Y-48507807D01*
X182452443Y-48507449D01*
X182404503Y-48517882D01*
X182395778Y-48522103D01*
X182359033Y-48555562D01*
X182346441Y-48575593D01*
X182327085Y-48622060D01*
X182314505Y-48670695D01*
X182312003Y-48683304D01*
X182304633Y-48734909D01*
X182300878Y-48783959D01*
X182299172Y-48839151D01*
X182299058Y-48858914D01*
X182073866Y-48858914D01*
X182074862Y-48809802D01*
X182078542Y-48755694D01*
X182084933Y-48705022D01*
X182095558Y-48651319D01*
X182102198Y-48626151D01*
X182117860Y-48578936D01*
X182138765Y-48530891D01*
X182163146Y-48488218D01*
X182181333Y-48462752D01*
X182214897Y-48425567D01*
X182256005Y-48392212D01*
X182301500Y-48366765D01*
X182350632Y-48348966D01*
X182402649Y-48338555D01*
X182452443Y-48335502D01*
X182502283Y-48338555D01*
G37*
G36*
X183012980Y-49211357D02*
G01*
X183210084Y-49211357D01*
X183210084Y-48696004D01*
X183211031Y-48644844D01*
X183212282Y-48616870D01*
X183096022Y-48713101D01*
X183065492Y-48727512D01*
X183036916Y-48727512D01*
X183012980Y-48718475D01*
X182997593Y-48704797D01*
X182928716Y-48613206D01*
X183247941Y-48343318D01*
X183428193Y-48343318D01*
X183428193Y-49211357D01*
X183596965Y-49211357D01*
X183596965Y-49375000D01*
X183012980Y-49375000D01*
X183012980Y-49211357D01*
G37*
G36*
X184478956Y-48344753D02*
G01*
X184528385Y-48349057D01*
X184579102Y-48357331D01*
X184614969Y-48366277D01*
X184661155Y-48382391D01*
X184705459Y-48404194D01*
X184742952Y-48430268D01*
X184778921Y-48465908D01*
X184807558Y-48509879D01*
X184815248Y-48526988D01*
X184829797Y-48573887D01*
X184836928Y-48624091D01*
X184837718Y-48648377D01*
X184833927Y-48700060D01*
X184824285Y-48743143D01*
X184805076Y-48791065D01*
X184784473Y-48825453D01*
X184753069Y-48863212D01*
X184719749Y-48892864D01*
X184678655Y-48919792D01*
X184631577Y-48941468D01*
X184673237Y-48969490D01*
X184675785Y-48971755D01*
X184708323Y-49008620D01*
X184712422Y-49014741D01*
X184930530Y-49375000D01*
X184715353Y-49375000D01*
X184666659Y-49365018D01*
X184629379Y-49329570D01*
X184459142Y-49028419D01*
X184432519Y-49000575D01*
X184390265Y-48991538D01*
X184329937Y-48991538D01*
X184329937Y-49375000D01*
X184092045Y-49375000D01*
X184092045Y-48827896D01*
X184329937Y-48827896D01*
X184425436Y-48827896D01*
X184475479Y-48824109D01*
X184507990Y-48815928D01*
X184552275Y-48792526D01*
X184563922Y-48782466D01*
X184592322Y-48741392D01*
X184595674Y-48732641D01*
X184605100Y-48683302D01*
X184605443Y-48671092D01*
X184598188Y-48622267D01*
X184571784Y-48577753D01*
X184561480Y-48568021D01*
X184517818Y-48543984D01*
X184468469Y-48533217D01*
X184425436Y-48530896D01*
X184329937Y-48530896D01*
X184329937Y-48827896D01*
X184092045Y-48827896D01*
X184092045Y-48343318D01*
X184425436Y-48343318D01*
X184478956Y-48344753D01*
G37*
G36*
X185312274Y-48635661D02*
G01*
X185361344Y-48645141D01*
X185392149Y-48654972D01*
X185438344Y-48676615D01*
X185478896Y-48705030D01*
X185495708Y-48720429D01*
X185527689Y-48758341D01*
X185553382Y-48802623D01*
X185563119Y-48825209D01*
X185578003Y-48874073D01*
X185585612Y-48922968D01*
X185587544Y-48965893D01*
X185585346Y-49006193D01*
X185577530Y-49030617D01*
X185562387Y-49043318D01*
X185538207Y-49046737D01*
X185117620Y-49046737D01*
X185127548Y-49098634D01*
X185146236Y-49144425D01*
X185173064Y-49178384D01*
X185217556Y-49206267D01*
X185267744Y-49218177D01*
X185289323Y-49219173D01*
X185338318Y-49214504D01*
X185354536Y-49210136D01*
X185400704Y-49191231D01*
X185403385Y-49189863D01*
X185442708Y-49169591D01*
X185480565Y-49160310D01*
X185519888Y-49179361D01*
X185583147Y-49258251D01*
X185548099Y-49293239D01*
X185510363Y-49321022D01*
X185465704Y-49344704D01*
X185430007Y-49358635D01*
X185381281Y-49371864D01*
X185347941Y-49377442D01*
X185298082Y-49382060D01*
X185269540Y-49382815D01*
X185217939Y-49379871D01*
X185168590Y-49371040D01*
X185125681Y-49357903D01*
X185077675Y-49335818D01*
X185034410Y-49306932D01*
X185008200Y-49283897D01*
X184973418Y-49243711D01*
X184946724Y-49200961D01*
X184928577Y-49161775D01*
X184913249Y-49113795D01*
X184903599Y-49061140D01*
X184899767Y-49009753D01*
X184899512Y-48991782D01*
X184902455Y-48942499D01*
X184906455Y-48921685D01*
X185119574Y-48921685D01*
X185391905Y-48921685D01*
X185385066Y-48872836D01*
X185363329Y-48830582D01*
X185323517Y-48800296D01*
X185274651Y-48789097D01*
X185263922Y-48788817D01*
X185214448Y-48795362D01*
X185170728Y-48818870D01*
X185166225Y-48823011D01*
X185136977Y-48864776D01*
X185121102Y-48913743D01*
X185119574Y-48921685D01*
X184906455Y-48921685D01*
X184912382Y-48890841D01*
X184924424Y-48853541D01*
X184946200Y-48806898D01*
X184974158Y-48764789D01*
X184996232Y-48739235D01*
X185034150Y-48705267D01*
X185077565Y-48676999D01*
X185109560Y-48661322D01*
X185157283Y-48644913D01*
X185209104Y-48635316D01*
X185259770Y-48632501D01*
X185312274Y-48635661D01*
G37*
G36*
X186076274Y-49375000D02*
G01*
X185877948Y-49375000D01*
X185595115Y-48640317D01*
X185776832Y-48640317D01*
X185815667Y-48651308D01*
X185837160Y-48678663D01*
X185938521Y-49009612D01*
X185953267Y-49057070D01*
X185961968Y-49088747D01*
X185973837Y-49136680D01*
X185980042Y-49165439D01*
X185990861Y-49117506D01*
X185998360Y-49088747D01*
X186012919Y-49039746D01*
X186023029Y-49009612D01*
X186128542Y-48678663D01*
X186149547Y-48651308D01*
X186186183Y-48640317D01*
X186359107Y-48640317D01*
X186076274Y-49375000D01*
G37*
G36*
X186348604Y-49257763D02*
G01*
X186358130Y-49208914D01*
X186384264Y-49169347D01*
X186423343Y-49142725D01*
X186472436Y-49132711D01*
X186521040Y-49142725D01*
X186560363Y-49169347D01*
X186586741Y-49208914D01*
X186596267Y-49257763D01*
X186586741Y-49307100D01*
X186560363Y-49346912D01*
X186521040Y-49373290D01*
X186472436Y-49382815D01*
X186423343Y-49373290D01*
X186384264Y-49346912D01*
X186358130Y-49307100D01*
X186348604Y-49257763D01*
G37*
G36*
X187932519Y-49375000D02*
G01*
X187748360Y-49375000D01*
X187700719Y-49362120D01*
X187698290Y-49360345D01*
X187669470Y-49322732D01*
X187608898Y-49140526D01*
X187219330Y-49140526D01*
X187158758Y-49322732D01*
X187130914Y-49358879D01*
X187083171Y-49374984D01*
X187081333Y-49375000D01*
X186895708Y-49375000D01*
X187048772Y-48976884D01*
X187274285Y-48976884D01*
X187554187Y-48976884D01*
X187459909Y-48696981D01*
X187442605Y-48649570D01*
X187437439Y-48634211D01*
X187422479Y-48586736D01*
X187413503Y-48556053D01*
X187399989Y-48604657D01*
X187390544Y-48635432D01*
X187374421Y-48682699D01*
X187368318Y-48698447D01*
X187274285Y-48976884D01*
X187048772Y-48976884D01*
X187292359Y-48343318D01*
X187535869Y-48343318D01*
X187932519Y-49375000D01*
G37*
G36*
X188063922Y-49211357D02*
G01*
X188261026Y-49211357D01*
X188261026Y-48696004D01*
X188261973Y-48644844D01*
X188263224Y-48616870D01*
X188146965Y-48713101D01*
X188116434Y-48727512D01*
X188087858Y-48727512D01*
X188063922Y-48718475D01*
X188048535Y-48704797D01*
X187979658Y-48613206D01*
X188298884Y-48343318D01*
X188479135Y-48343318D01*
X188479135Y-49211357D01*
X188647907Y-49211357D01*
X188647907Y-49375000D01*
X188063922Y-49375000D01*
X188063922Y-49211357D01*
G37*
G36*
X176248186Y-51055000D02*
G01*
X176009072Y-51055000D01*
X176009072Y-50617316D01*
X175592638Y-50617316D01*
X175592638Y-51055000D01*
X175353524Y-51055000D01*
X175353524Y-50023318D01*
X175592638Y-50023318D01*
X175592638Y-50453674D01*
X176009072Y-50453674D01*
X176009072Y-50023318D01*
X176248186Y-50023318D01*
X176248186Y-51055000D01*
G37*
G36*
X176628716Y-50320317D02*
G01*
X176628716Y-51055000D01*
X176410851Y-51055000D01*
X176410851Y-50320317D01*
X176628716Y-50320317D01*
G37*
G36*
X176651431Y-50125655D02*
G01*
X176641985Y-50173698D01*
X176640684Y-50176702D01*
X176613001Y-50217577D01*
X176611863Y-50218712D01*
X176570871Y-50246610D01*
X176569365Y-50247288D01*
X176521022Y-50257750D01*
X176517586Y-50257791D01*
X176469213Y-50247935D01*
X176467760Y-50247288D01*
X176426483Y-50218712D01*
X176399044Y-50178192D01*
X176398395Y-50176702D01*
X176388147Y-50127347D01*
X176388137Y-50125655D01*
X176397153Y-50076669D01*
X176398395Y-50073632D01*
X176425376Y-50032040D01*
X176426483Y-50030889D01*
X176467760Y-50002313D01*
X176515925Y-49992065D01*
X176517586Y-49992055D01*
X176566329Y-50001071D01*
X176569365Y-50002313D01*
X176610713Y-50029752D01*
X176611863Y-50030889D01*
X176640020Y-50072111D01*
X176640684Y-50073632D01*
X176651389Y-50122189D01*
X176651431Y-50125655D01*
G37*
G36*
X177183392Y-51055000D02*
G01*
X176985066Y-51055000D01*
X176702233Y-50320317D01*
X176883950Y-50320317D01*
X176922784Y-50331308D01*
X176944278Y-50358663D01*
X177045639Y-50689612D01*
X177060385Y-50737070D01*
X177069086Y-50768747D01*
X177080955Y-50816680D01*
X177087160Y-50845439D01*
X177097979Y-50797506D01*
X177105478Y-50768747D01*
X177120037Y-50719746D01*
X177130147Y-50689612D01*
X177235659Y-50358663D01*
X177256664Y-50331308D01*
X177293301Y-50320317D01*
X177466225Y-50320317D01*
X177183392Y-51055000D01*
G37*
G36*
X177882895Y-50315661D02*
G01*
X177931965Y-50325141D01*
X177962770Y-50334972D01*
X178008965Y-50356615D01*
X178049517Y-50385030D01*
X178066329Y-50400429D01*
X178098310Y-50438341D01*
X178124003Y-50482623D01*
X178133740Y-50505209D01*
X178148624Y-50554073D01*
X178156233Y-50602968D01*
X178158165Y-50645893D01*
X178155967Y-50686193D01*
X178148151Y-50710617D01*
X178133008Y-50723318D01*
X178108828Y-50726737D01*
X177688241Y-50726737D01*
X177698169Y-50778634D01*
X177716857Y-50824425D01*
X177743685Y-50858384D01*
X177788177Y-50886267D01*
X177838365Y-50898177D01*
X177859944Y-50899173D01*
X177908939Y-50894504D01*
X177925157Y-50890136D01*
X177971325Y-50871231D01*
X177974006Y-50869863D01*
X178013329Y-50849591D01*
X178051186Y-50840310D01*
X178090509Y-50859361D01*
X178153768Y-50938251D01*
X178118719Y-50973239D01*
X178080984Y-51001022D01*
X178036325Y-51024704D01*
X178000628Y-51038635D01*
X177951902Y-51051864D01*
X177918562Y-51057442D01*
X177868703Y-51062060D01*
X177840161Y-51062815D01*
X177788560Y-51059871D01*
X177739211Y-51051040D01*
X177696301Y-51037903D01*
X177648296Y-51015818D01*
X177605031Y-50986932D01*
X177578821Y-50963897D01*
X177544039Y-50923711D01*
X177517345Y-50880961D01*
X177499198Y-50841775D01*
X177483870Y-50793795D01*
X177474220Y-50741140D01*
X177470388Y-50689753D01*
X177470133Y-50671782D01*
X177473076Y-50622499D01*
X177477076Y-50601685D01*
X177690195Y-50601685D01*
X177962526Y-50601685D01*
X177955687Y-50552836D01*
X177933950Y-50510582D01*
X177894138Y-50480296D01*
X177845271Y-50469097D01*
X177834543Y-50468817D01*
X177785068Y-50475362D01*
X177741349Y-50498870D01*
X177736846Y-50503011D01*
X177707598Y-50544776D01*
X177691723Y-50593743D01*
X177690195Y-50601685D01*
X177477076Y-50601685D01*
X177483003Y-50570841D01*
X177495045Y-50533541D01*
X177516821Y-50486898D01*
X177544779Y-50444789D01*
X177566853Y-50419235D01*
X177604771Y-50385267D01*
X177648186Y-50356999D01*
X177680181Y-50341322D01*
X177727904Y-50324913D01*
X177779725Y-50315316D01*
X177830391Y-50312501D01*
X177882895Y-50315661D01*
G37*
G36*
X178700964Y-50024554D02*
G01*
X178753750Y-50028901D01*
X178806511Y-50037402D01*
X178830565Y-50043101D01*
X178878548Y-50058636D01*
X178923519Y-50079994D01*
X178952198Y-50099033D01*
X178988536Y-50133487D01*
X179016575Y-50177147D01*
X179020830Y-50186716D01*
X179035523Y-50234147D01*
X179041988Y-50286253D01*
X179042324Y-50301999D01*
X179036691Y-50352420D01*
X179032310Y-50368677D01*
X179011198Y-50414839D01*
X179001291Y-50429249D01*
X178966753Y-50465561D01*
X178947313Y-50480540D01*
X178903422Y-50505651D01*
X178867934Y-50520352D01*
X178915211Y-50534732D01*
X178960550Y-50555507D01*
X179001184Y-50584301D01*
X179017655Y-50600952D01*
X179045327Y-50642850D01*
X179061513Y-50692309D01*
X179066260Y-50743834D01*
X179062067Y-50795765D01*
X179049491Y-50844794D01*
X179040858Y-50866444D01*
X179016350Y-50910106D01*
X178984102Y-50949011D01*
X178966609Y-50965362D01*
X178926744Y-50994328D01*
X178880421Y-51018210D01*
X178845953Y-51031308D01*
X178794300Y-51044796D01*
X178743085Y-51052200D01*
X178693525Y-51054907D01*
X178682066Y-51055000D01*
X178272715Y-51055000D01*
X178272715Y-50867421D01*
X178510607Y-50867421D01*
X178677913Y-50867421D01*
X178727777Y-50863288D01*
X178754850Y-50855697D01*
X178797325Y-50829945D01*
X178801745Y-50825411D01*
X178824948Y-50783401D01*
X178831298Y-50735774D01*
X178823726Y-50686193D01*
X178798325Y-50649068D01*
X178754590Y-50626685D01*
X178750942Y-50625621D01*
X178700609Y-50617973D01*
X178676448Y-50617316D01*
X178510607Y-50617316D01*
X178510607Y-50867421D01*
X178272715Y-50867421D01*
X178272715Y-50453674D01*
X178510607Y-50453674D01*
X178634194Y-50453674D01*
X178684789Y-50451134D01*
X178705269Y-50448300D01*
X178751894Y-50433495D01*
X178759002Y-50429494D01*
X178792708Y-50392369D01*
X178804145Y-50343869D01*
X178804431Y-50333018D01*
X178798304Y-50283766D01*
X178795150Y-50274644D01*
X178767062Y-50237274D01*
X178720768Y-50217392D01*
X178718946Y-50217002D01*
X178669167Y-50211278D01*
X178649826Y-50210896D01*
X178510607Y-50210896D01*
X178510607Y-50453674D01*
X178272715Y-50453674D01*
X178272715Y-50023318D01*
X178649826Y-50023318D01*
X178700964Y-50024554D01*
G37*
G36*
X179561228Y-50315053D02*
G01*
X179613359Y-50323756D01*
X179661968Y-50338635D01*
X179706676Y-50359090D01*
X179750182Y-50387460D01*
X179779204Y-50412885D01*
X179812784Y-50452075D01*
X179840250Y-50497103D01*
X179855164Y-50530366D01*
X179870599Y-50579935D01*
X179879071Y-50628555D01*
X179882248Y-50680562D01*
X179882275Y-50685949D01*
X179879627Y-50738623D01*
X179871685Y-50787958D01*
X179856832Y-50838370D01*
X179855164Y-50842752D01*
X179833957Y-50888295D01*
X179804962Y-50932316D01*
X179779204Y-50961454D01*
X179739820Y-50994782D01*
X179694941Y-51021859D01*
X179661968Y-51036437D01*
X179613359Y-51051455D01*
X179561228Y-51060239D01*
X179510782Y-51062815D01*
X179459901Y-51060239D01*
X179407348Y-51051455D01*
X179358374Y-51036437D01*
X179313580Y-51015676D01*
X179269782Y-50987036D01*
X179240405Y-50961454D01*
X179206379Y-50921864D01*
X179178672Y-50876366D01*
X179163713Y-50842752D01*
X179148277Y-50792708D01*
X179139805Y-50743707D01*
X179136628Y-50691366D01*
X179136609Y-50687414D01*
X179361549Y-50687414D01*
X179363793Y-50737499D01*
X179371682Y-50785707D01*
X179389038Y-50832926D01*
X179397453Y-50846905D01*
X179433477Y-50880746D01*
X179483207Y-50897335D01*
X179510782Y-50899173D01*
X179561603Y-50891822D01*
X179604024Y-50867271D01*
X179621424Y-50846905D01*
X179643154Y-50799861D01*
X179653601Y-50748957D01*
X179657048Y-50694047D01*
X179657083Y-50687414D01*
X179654854Y-50637359D01*
X179645800Y-50584451D01*
X179627796Y-50538649D01*
X179621424Y-50528412D01*
X179586078Y-50494570D01*
X179537592Y-50477981D01*
X179510782Y-50476144D01*
X179458552Y-50483494D01*
X179415148Y-50508046D01*
X179397453Y-50528412D01*
X179375574Y-50575158D01*
X179365055Y-50625919D01*
X179361584Y-50680782D01*
X179361549Y-50687414D01*
X179136609Y-50687414D01*
X179136602Y-50685949D01*
X179139249Y-50633603D01*
X179147192Y-50584645D01*
X179162045Y-50534703D01*
X179163713Y-50530366D01*
X179185006Y-50485299D01*
X179214293Y-50441730D01*
X179240405Y-50412885D01*
X179280235Y-50379775D01*
X179325355Y-50352984D01*
X179358374Y-50338635D01*
X179407348Y-50323756D01*
X179459901Y-50315053D01*
X179510782Y-50312501D01*
X179561228Y-50315053D01*
G37*
G36*
X180118702Y-50679110D02*
G01*
X179883740Y-50320317D01*
X180093545Y-50320317D01*
X180127495Y-50326423D01*
X180147034Y-50347184D01*
X180276971Y-50569200D01*
X180297728Y-50524054D01*
X180301640Y-50517909D01*
X180394452Y-50350603D01*
X180415213Y-50327644D01*
X180442324Y-50320317D01*
X180642114Y-50320317D01*
X180407153Y-50669340D01*
X180651884Y-51055000D01*
X180442324Y-51055000D01*
X180404710Y-51043764D01*
X180381752Y-51017142D01*
X180251814Y-50794392D01*
X180232763Y-50836402D01*
X180125785Y-51017142D01*
X180102582Y-51043032D01*
X180068144Y-51055000D01*
X179873971Y-51055000D01*
X180118702Y-50679110D01*
G37*
G36*
X181038032Y-50539159D02*
G01*
X181417830Y-50539159D01*
X181417830Y-50711106D01*
X181038032Y-50711106D01*
X181038032Y-50539159D01*
G37*
G36*
X182339205Y-50024554D02*
G01*
X182391992Y-50028901D01*
X182444752Y-50037402D01*
X182468807Y-50043101D01*
X182516789Y-50058636D01*
X182561760Y-50079994D01*
X182590440Y-50099033D01*
X182626777Y-50133487D01*
X182654816Y-50177147D01*
X182659072Y-50186716D01*
X182673765Y-50234147D01*
X182680229Y-50286253D01*
X182680565Y-50301999D01*
X182674932Y-50352420D01*
X182670551Y-50368677D01*
X182649440Y-50414839D01*
X182639532Y-50429249D01*
X182604994Y-50465561D01*
X182585555Y-50480540D01*
X182541664Y-50505651D01*
X182506176Y-50520352D01*
X182553452Y-50534732D01*
X182598792Y-50555507D01*
X182639426Y-50584301D01*
X182655897Y-50600952D01*
X182683569Y-50642850D01*
X182699755Y-50692309D01*
X182704501Y-50743834D01*
X182700309Y-50795765D01*
X182687732Y-50844794D01*
X182679100Y-50866444D01*
X182654592Y-50910106D01*
X182622344Y-50949011D01*
X182604850Y-50965362D01*
X182564985Y-50994328D01*
X182518663Y-51018210D01*
X182484194Y-51031308D01*
X182432541Y-51044796D01*
X182381327Y-51052200D01*
X182331766Y-51054907D01*
X182320307Y-51055000D01*
X181910956Y-51055000D01*
X181910956Y-50867421D01*
X182148849Y-50867421D01*
X182316155Y-50867421D01*
X182366019Y-50863288D01*
X182393091Y-50855697D01*
X182435567Y-50829945D01*
X182439986Y-50825411D01*
X182463189Y-50783401D01*
X182469539Y-50735774D01*
X182461968Y-50686193D01*
X182436567Y-50649068D01*
X182392832Y-50626685D01*
X182389184Y-50625621D01*
X182338850Y-50617973D01*
X182314689Y-50617316D01*
X182148849Y-50617316D01*
X182148849Y-50867421D01*
X181910956Y-50867421D01*
X181910956Y-50453674D01*
X182148849Y-50453674D01*
X182272435Y-50453674D01*
X182323031Y-50451134D01*
X182343510Y-50448300D01*
X182390136Y-50433495D01*
X182397244Y-50429494D01*
X182430949Y-50392369D01*
X182442387Y-50343869D01*
X182442673Y-50333018D01*
X182436546Y-50283766D01*
X182433392Y-50274644D01*
X182405304Y-50237274D01*
X182359009Y-50217392D01*
X182357188Y-50217002D01*
X182307408Y-50211278D01*
X182288067Y-50210896D01*
X182148849Y-50210896D01*
X182148849Y-50453674D01*
X181910956Y-50453674D01*
X181910956Y-50023318D01*
X182288067Y-50023318D01*
X182339205Y-50024554D01*
G37*
G36*
X182810747Y-51055000D02*
G01*
X182810747Y-50320317D01*
X182940195Y-50320317D01*
X182967306Y-50323492D01*
X182985625Y-50333018D01*
X182996860Y-50350115D01*
X183003699Y-50376249D01*
X183014201Y-50443415D01*
X183041369Y-50401444D01*
X183073825Y-50364192D01*
X183092603Y-50347672D01*
X183136663Y-50322427D01*
X183186412Y-50312639D01*
X183193475Y-50312501D01*
X183243106Y-50319070D01*
X183273587Y-50333262D01*
X183259665Y-50503011D01*
X183247941Y-50525481D01*
X183225960Y-50531343D01*
X183211061Y-50531343D01*
X183192010Y-50531343D01*
X183171982Y-50531343D01*
X183153419Y-50531343D01*
X183103374Y-50539781D01*
X183076971Y-50555279D01*
X183043467Y-50594158D01*
X183028856Y-50620736D01*
X183028856Y-51055000D01*
X182810747Y-51055000D01*
G37*
G36*
X183705645Y-50315661D02*
G01*
X183754715Y-50325141D01*
X183785520Y-50334972D01*
X183831715Y-50356615D01*
X183872266Y-50385030D01*
X183889079Y-50400429D01*
X183921060Y-50438341D01*
X183946753Y-50482623D01*
X183956490Y-50505209D01*
X183971373Y-50554073D01*
X183978982Y-50602968D01*
X183980914Y-50645893D01*
X183978716Y-50686193D01*
X183970900Y-50710617D01*
X183955757Y-50723318D01*
X183931577Y-50726737D01*
X183510991Y-50726737D01*
X183520918Y-50778634D01*
X183539607Y-50824425D01*
X183566434Y-50858384D01*
X183610926Y-50886267D01*
X183661115Y-50898177D01*
X183682694Y-50899173D01*
X183731688Y-50894504D01*
X183747907Y-50890136D01*
X183794074Y-50871231D01*
X183796755Y-50869863D01*
X183836078Y-50849591D01*
X183873936Y-50840310D01*
X183913259Y-50859361D01*
X183976518Y-50938251D01*
X183941469Y-50973239D01*
X183903733Y-51001022D01*
X183859074Y-51024704D01*
X183823378Y-51038635D01*
X183774651Y-51051864D01*
X183741312Y-51057442D01*
X183691452Y-51062060D01*
X183662910Y-51062815D01*
X183611310Y-51059871D01*
X183561960Y-51051040D01*
X183519051Y-51037903D01*
X183471046Y-51015818D01*
X183427780Y-50986932D01*
X183401570Y-50963897D01*
X183366788Y-50923711D01*
X183340095Y-50880961D01*
X183321947Y-50841775D01*
X183306620Y-50793795D01*
X183296969Y-50741140D01*
X183293138Y-50689753D01*
X183292882Y-50671782D01*
X183295826Y-50622499D01*
X183299825Y-50601685D01*
X183512945Y-50601685D01*
X183785276Y-50601685D01*
X183778437Y-50552836D01*
X183756699Y-50510582D01*
X183716888Y-50480296D01*
X183668021Y-50469097D01*
X183657292Y-50468817D01*
X183607818Y-50475362D01*
X183564099Y-50498870D01*
X183559595Y-50503011D01*
X183530347Y-50544776D01*
X183514472Y-50593743D01*
X183512945Y-50601685D01*
X183299825Y-50601685D01*
X183305752Y-50570841D01*
X183317795Y-50533541D01*
X183339571Y-50486898D01*
X183367529Y-50444789D01*
X183389602Y-50419235D01*
X183427521Y-50385267D01*
X183470935Y-50356999D01*
X183502931Y-50341322D01*
X183550653Y-50324913D01*
X183602474Y-50315316D01*
X183653140Y-50312501D01*
X183705645Y-50315661D01*
G37*
G36*
X184440488Y-50316048D02*
G01*
X184491111Y-50327803D01*
X184507990Y-50333995D01*
X184554312Y-50357672D01*
X184593442Y-50388863D01*
X184598116Y-50393590D01*
X184629056Y-50432706D01*
X184652269Y-50478154D01*
X184654780Y-50484692D01*
X184668304Y-50532557D01*
X184674255Y-50584256D01*
X184674564Y-50599731D01*
X184674564Y-51055000D01*
X184574669Y-51055000D01*
X184527774Y-51046695D01*
X184501396Y-51011524D01*
X184486008Y-50971468D01*
X184446075Y-51001922D01*
X184433252Y-51010792D01*
X184389170Y-51035753D01*
X184380740Y-51039612D01*
X184332620Y-51055049D01*
X184323098Y-51056953D01*
X184273456Y-51062449D01*
X184255199Y-51062815D01*
X184204810Y-51059162D01*
X184164585Y-51049870D01*
X184118369Y-51029014D01*
X184095220Y-51012013D01*
X184063504Y-50973735D01*
X184051256Y-50949487D01*
X184038408Y-50901064D01*
X184035869Y-50863269D01*
X184037435Y-50853255D01*
X184243964Y-50853255D01*
X184258396Y-50901381D01*
X184264236Y-50906744D01*
X184312420Y-50921756D01*
X184324320Y-50922131D01*
X184372939Y-50916407D01*
X184398081Y-50907477D01*
X184439965Y-50880033D01*
X184462073Y-50859361D01*
X184462073Y-50758000D01*
X184412718Y-50759411D01*
X184362488Y-50765021D01*
X184354362Y-50766549D01*
X184306692Y-50779662D01*
X184287683Y-50788042D01*
X184253489Y-50817595D01*
X184243964Y-50853255D01*
X184037435Y-50853255D01*
X184043501Y-50814478D01*
X184055408Y-50784378D01*
X184084562Y-50743437D01*
X184123796Y-50710861D01*
X184168850Y-50685686D01*
X184215662Y-50667218D01*
X184254710Y-50655418D01*
X184304391Y-50644556D01*
X184354228Y-50637885D01*
X184409407Y-50634023D01*
X184462073Y-50632948D01*
X184462073Y-50600952D01*
X184457024Y-50550262D01*
X184435694Y-50505697D01*
X184391501Y-50479636D01*
X184360712Y-50476144D01*
X184310657Y-50481090D01*
X184297453Y-50484937D01*
X184253489Y-50504476D01*
X184215876Y-50524016D01*
X184172401Y-50532564D01*
X184134299Y-50521329D01*
X184108897Y-50494462D01*
X184069574Y-50425830D01*
X184112326Y-50392843D01*
X184157845Y-50365628D01*
X184206131Y-50344185D01*
X184216120Y-50340589D01*
X184267640Y-50325777D01*
X184315966Y-50317137D01*
X184366146Y-50312940D01*
X184389044Y-50312501D01*
X184440488Y-50316048D01*
G37*
G36*
X185027739Y-49992055D02*
G01*
X185027739Y-50586053D01*
X185060223Y-50586053D01*
X185090998Y-50580191D01*
X185112247Y-50560163D01*
X185250000Y-50355488D01*
X185278821Y-50329110D01*
X185320342Y-50320317D01*
X185520133Y-50320317D01*
X185331577Y-50579947D01*
X185296433Y-50617235D01*
X185268318Y-50637588D01*
X185297872Y-50665921D01*
X185323273Y-50701580D01*
X185528681Y-51055000D01*
X185331577Y-51055000D01*
X185289567Y-51046939D01*
X185260014Y-51017875D01*
X185122017Y-50755314D01*
X185101500Y-50732110D01*
X185069993Y-50726737D01*
X185027739Y-50726737D01*
X185027739Y-51055000D01*
X184809630Y-51055000D01*
X184809630Y-49992055D01*
X185027739Y-49992055D01*
G37*
G36*
X185944759Y-50315053D02*
G01*
X185996890Y-50323756D01*
X186045499Y-50338635D01*
X186090207Y-50359090D01*
X186133713Y-50387460D01*
X186162736Y-50412885D01*
X186196315Y-50452075D01*
X186223781Y-50497103D01*
X186238695Y-50530366D01*
X186254130Y-50579935D01*
X186262602Y-50628555D01*
X186265780Y-50680562D01*
X186265806Y-50685949D01*
X186263158Y-50738623D01*
X186255216Y-50787958D01*
X186240363Y-50838370D01*
X186238695Y-50842752D01*
X186217488Y-50888295D01*
X186188493Y-50932316D01*
X186162736Y-50961454D01*
X186123351Y-50994782D01*
X186078472Y-51021859D01*
X186045499Y-51036437D01*
X185996890Y-51051455D01*
X185944759Y-51060239D01*
X185894313Y-51062815D01*
X185843432Y-51060239D01*
X185790879Y-51051455D01*
X185741905Y-51036437D01*
X185697111Y-51015676D01*
X185653313Y-50987036D01*
X185623936Y-50961454D01*
X185589910Y-50921864D01*
X185562203Y-50876366D01*
X185547244Y-50842752D01*
X185531808Y-50792708D01*
X185523336Y-50743707D01*
X185520159Y-50691366D01*
X185520140Y-50687414D01*
X185745080Y-50687414D01*
X185747324Y-50737499D01*
X185755213Y-50785707D01*
X185772569Y-50832926D01*
X185780984Y-50846905D01*
X185817008Y-50880746D01*
X185866738Y-50897335D01*
X185894313Y-50899173D01*
X185945134Y-50891822D01*
X185987555Y-50867271D01*
X186004955Y-50846905D01*
X186026685Y-50799861D01*
X186037132Y-50748957D01*
X186040579Y-50694047D01*
X186040614Y-50687414D01*
X186038385Y-50637359D01*
X186029331Y-50584451D01*
X186011327Y-50538649D01*
X186004955Y-50528412D01*
X185969609Y-50494570D01*
X185921123Y-50477981D01*
X185894313Y-50476144D01*
X185842083Y-50483494D01*
X185798679Y-50508046D01*
X185780984Y-50528412D01*
X185759105Y-50575158D01*
X185748586Y-50625919D01*
X185745115Y-50680782D01*
X185745080Y-50687414D01*
X185520140Y-50687414D01*
X185520133Y-50685949D01*
X185522780Y-50633603D01*
X185530723Y-50584645D01*
X185545576Y-50534703D01*
X185547244Y-50530366D01*
X185568538Y-50485299D01*
X185597824Y-50441730D01*
X185623936Y-50412885D01*
X185663766Y-50379775D01*
X185708887Y-50352984D01*
X185741905Y-50338635D01*
X185790879Y-50323756D01*
X185843432Y-50315053D01*
X185894313Y-50312501D01*
X185944759Y-50315053D01*
G37*
G36*
X186581856Y-50320317D02*
G01*
X186581856Y-50785355D01*
X186588818Y-50836264D01*
X186606525Y-50869619D01*
X186648895Y-50895680D01*
X186679065Y-50899173D01*
X186728279Y-50891602D01*
X186746232Y-50884518D01*
X186788410Y-50858711D01*
X186807048Y-50843241D01*
X186807048Y-50320317D01*
X187025157Y-50320317D01*
X187025157Y-51055000D01*
X186890091Y-51055000D01*
X186844707Y-51034117D01*
X186836602Y-51017875D01*
X186823168Y-50975132D01*
X186785288Y-51006949D01*
X186779693Y-51011036D01*
X186736157Y-51036442D01*
X186731333Y-51038635D01*
X186683461Y-51054557D01*
X186676134Y-51056221D01*
X186626528Y-51062500D01*
X186611410Y-51062815D01*
X186561835Y-51058842D01*
X186514426Y-51045765D01*
X186505652Y-51042055D01*
X186463093Y-51017142D01*
X186427739Y-50983925D01*
X186400079Y-50943197D01*
X186380112Y-50895753D01*
X186368541Y-50845979D01*
X186364133Y-50795650D01*
X186363992Y-50784378D01*
X186363992Y-50320317D01*
X186581856Y-50320317D01*
G37*
G36*
X187429135Y-51062815D02*
G01*
X187380164Y-51059091D01*
X187337299Y-51047916D01*
X187292496Y-51024122D01*
X187270377Y-51005174D01*
X187240584Y-50964006D01*
X187229344Y-50938496D01*
X187217516Y-50888818D01*
X187215178Y-50851057D01*
X187215178Y-50476632D01*
X187153385Y-50476632D01*
X187124564Y-50465397D01*
X187112596Y-50431692D01*
X187112596Y-50342787D01*
X187228611Y-50319584D01*
X187271598Y-50136158D01*
X187307868Y-50102322D01*
X187319470Y-50101475D01*
X187433287Y-50101475D01*
X187433287Y-50320317D01*
X187614027Y-50320317D01*
X187614027Y-50476632D01*
X187433287Y-50476632D01*
X187433287Y-50840554D01*
X187445499Y-50882564D01*
X187481158Y-50899173D01*
X187501186Y-50896730D01*
X187515108Y-50891113D01*
X187526343Y-50885251D01*
X187538800Y-50882808D01*
X187554431Y-50887449D01*
X187566888Y-50901371D01*
X187633077Y-51002243D01*
X187588198Y-51028743D01*
X187541354Y-51046711D01*
X187538067Y-51047672D01*
X187487857Y-51058541D01*
X187436143Y-51062756D01*
X187429135Y-51062815D01*
G37*
G36*
X188482401Y-50024554D02*
G01*
X188535188Y-50028901D01*
X188587948Y-50037402D01*
X188612003Y-50043101D01*
X188659985Y-50058636D01*
X188704956Y-50079994D01*
X188733636Y-50099033D01*
X188769974Y-50133487D01*
X188798013Y-50177147D01*
X188802268Y-50186716D01*
X188816961Y-50234147D01*
X188823426Y-50286253D01*
X188823761Y-50301999D01*
X188818129Y-50352420D01*
X188813747Y-50368677D01*
X188792636Y-50414839D01*
X188782729Y-50429249D01*
X188748190Y-50465561D01*
X188728751Y-50480540D01*
X188684860Y-50505651D01*
X188649372Y-50520352D01*
X188696648Y-50534732D01*
X188741988Y-50555507D01*
X188782622Y-50584301D01*
X188799093Y-50600952D01*
X188826765Y-50642850D01*
X188842951Y-50692309D01*
X188847697Y-50743834D01*
X188843505Y-50795765D01*
X188830928Y-50844794D01*
X188822296Y-50866444D01*
X188797788Y-50910106D01*
X188765540Y-50949011D01*
X188748046Y-50965362D01*
X188708181Y-50994328D01*
X188661859Y-51018210D01*
X188627390Y-51031308D01*
X188575737Y-51044796D01*
X188524523Y-51052200D01*
X188474963Y-51054907D01*
X188463503Y-51055000D01*
X188054152Y-51055000D01*
X188054152Y-50867421D01*
X188292045Y-50867421D01*
X188459351Y-50867421D01*
X188509215Y-50863288D01*
X188536288Y-50855697D01*
X188578763Y-50829945D01*
X188583182Y-50825411D01*
X188606385Y-50783401D01*
X188612736Y-50735774D01*
X188605164Y-50686193D01*
X188579763Y-50649068D01*
X188536028Y-50626685D01*
X188532380Y-50625621D01*
X188482046Y-50617973D01*
X188457886Y-50617316D01*
X188292045Y-50617316D01*
X188292045Y-50867421D01*
X188054152Y-50867421D01*
X188054152Y-50453674D01*
X188292045Y-50453674D01*
X188415632Y-50453674D01*
X188466227Y-50451134D01*
X188486706Y-50448300D01*
X188533332Y-50433495D01*
X188540440Y-50429494D01*
X188574145Y-50392369D01*
X188585583Y-50343869D01*
X188585869Y-50333018D01*
X188579742Y-50283766D01*
X188576588Y-50274644D01*
X188548500Y-50237274D01*
X188502205Y-50217392D01*
X188500384Y-50217002D01*
X188450604Y-50211278D01*
X188431263Y-50210896D01*
X188292045Y-50210896D01*
X188292045Y-50453674D01*
X188054152Y-50453674D01*
X188054152Y-50023318D01*
X188431263Y-50023318D01*
X188482401Y-50024554D01*
G37*
G36*
X189342666Y-50315053D02*
G01*
X189394796Y-50323756D01*
X189443405Y-50338635D01*
X189488113Y-50359090D01*
X189531619Y-50387460D01*
X189560642Y-50412885D01*
X189594222Y-50452075D01*
X189621687Y-50497103D01*
X189636602Y-50530366D01*
X189652037Y-50579935D01*
X189660509Y-50628555D01*
X189663686Y-50680562D01*
X189663713Y-50685949D01*
X189661065Y-50738623D01*
X189653122Y-50787958D01*
X189638270Y-50838370D01*
X189636602Y-50842752D01*
X189615394Y-50888295D01*
X189586400Y-50932316D01*
X189560642Y-50961454D01*
X189521258Y-50994782D01*
X189476378Y-51021859D01*
X189443405Y-51036437D01*
X189394796Y-51051455D01*
X189342666Y-51060239D01*
X189292219Y-51062815D01*
X189241338Y-51060239D01*
X189188786Y-51051455D01*
X189139812Y-51036437D01*
X189095017Y-51015676D01*
X189051219Y-50987036D01*
X189021842Y-50961454D01*
X188987816Y-50921864D01*
X188960110Y-50876366D01*
X188945150Y-50842752D01*
X188929715Y-50792708D01*
X188921243Y-50743707D01*
X188918066Y-50691366D01*
X188918046Y-50687414D01*
X189142987Y-50687414D01*
X189145231Y-50737499D01*
X189153120Y-50785707D01*
X189170476Y-50832926D01*
X189178890Y-50846905D01*
X189214915Y-50880746D01*
X189264645Y-50897335D01*
X189292219Y-50899173D01*
X189343041Y-50891822D01*
X189385462Y-50867271D01*
X189402861Y-50846905D01*
X189424591Y-50799861D01*
X189435038Y-50748957D01*
X189438486Y-50694047D01*
X189438521Y-50687414D01*
X189436292Y-50637359D01*
X189427238Y-50584451D01*
X189409234Y-50538649D01*
X189402861Y-50528412D01*
X189367516Y-50494570D01*
X189319030Y-50477981D01*
X189292219Y-50476144D01*
X189239989Y-50483494D01*
X189196585Y-50508046D01*
X189178890Y-50528412D01*
X189157012Y-50575158D01*
X189146493Y-50625919D01*
X189143022Y-50680782D01*
X189142987Y-50687414D01*
X188918046Y-50687414D01*
X188918039Y-50685949D01*
X188920687Y-50633603D01*
X188928629Y-50584645D01*
X188943482Y-50534703D01*
X188945150Y-50530366D01*
X188966444Y-50485299D01*
X188995730Y-50441730D01*
X189021842Y-50412885D01*
X189061673Y-50379775D01*
X189106793Y-50352984D01*
X189139812Y-50338635D01*
X189188786Y-50323756D01*
X189241338Y-50315053D01*
X189292219Y-50312501D01*
X189342666Y-50315053D01*
G37*
G36*
X190123531Y-50316048D02*
G01*
X190174154Y-50327803D01*
X190191033Y-50333995D01*
X190237354Y-50357672D01*
X190276484Y-50388863D01*
X190281158Y-50393590D01*
X190312099Y-50432706D01*
X190335312Y-50478154D01*
X190337823Y-50484692D01*
X190351347Y-50532557D01*
X190357297Y-50584256D01*
X190357606Y-50599731D01*
X190357606Y-51055000D01*
X190257711Y-51055000D01*
X190210816Y-51046695D01*
X190184438Y-51011524D01*
X190169051Y-50971468D01*
X190129117Y-51001922D01*
X190116295Y-51010792D01*
X190072213Y-51035753D01*
X190063782Y-51039612D01*
X190015663Y-51055049D01*
X190006141Y-51056953D01*
X189956499Y-51062449D01*
X189938241Y-51062815D01*
X189887852Y-51059162D01*
X189847627Y-51049870D01*
X189801412Y-51029014D01*
X189778262Y-51012013D01*
X189746546Y-50973735D01*
X189734299Y-50949487D01*
X189721451Y-50901064D01*
X189718911Y-50863269D01*
X189720478Y-50853255D01*
X189927006Y-50853255D01*
X189941438Y-50901381D01*
X189947278Y-50906744D01*
X189995463Y-50921756D01*
X190007362Y-50922131D01*
X190055982Y-50916407D01*
X190081124Y-50907477D01*
X190123008Y-50880033D01*
X190145115Y-50859361D01*
X190145115Y-50758000D01*
X190095761Y-50759411D01*
X190045531Y-50765021D01*
X190037404Y-50766549D01*
X189989734Y-50779662D01*
X189970726Y-50788042D01*
X189936532Y-50817595D01*
X189927006Y-50853255D01*
X189720478Y-50853255D01*
X189726544Y-50814478D01*
X189738451Y-50784378D01*
X189767605Y-50743437D01*
X189806839Y-50710861D01*
X189851893Y-50685686D01*
X189898705Y-50667218D01*
X189937753Y-50655418D01*
X189987433Y-50644556D01*
X190037270Y-50637885D01*
X190092450Y-50634023D01*
X190145115Y-50632948D01*
X190145115Y-50600952D01*
X190140066Y-50550262D01*
X190118737Y-50505697D01*
X190074544Y-50479636D01*
X190043754Y-50476144D01*
X189993700Y-50481090D01*
X189980495Y-50484937D01*
X189936532Y-50504476D01*
X189898918Y-50524016D01*
X189855443Y-50532564D01*
X189817341Y-50521329D01*
X189791940Y-50494462D01*
X189752617Y-50425830D01*
X189795369Y-50392843D01*
X189840888Y-50365628D01*
X189889173Y-50344185D01*
X189899163Y-50340589D01*
X189950683Y-50325777D01*
X189999008Y-50317137D01*
X190049189Y-50312940D01*
X190072087Y-50312501D01*
X190123531Y-50316048D01*
G37*
G36*
X190492673Y-51055000D02*
G01*
X190492673Y-50320317D01*
X190622121Y-50320317D01*
X190649232Y-50323492D01*
X190667551Y-50333018D01*
X190678786Y-50350115D01*
X190685625Y-50376249D01*
X190696127Y-50443415D01*
X190723295Y-50401444D01*
X190755751Y-50364192D01*
X190774529Y-50347672D01*
X190818589Y-50322427D01*
X190868338Y-50312639D01*
X190875401Y-50312501D01*
X190925032Y-50319070D01*
X190955513Y-50333262D01*
X190941591Y-50503011D01*
X190929867Y-50525481D01*
X190907886Y-50531343D01*
X190892987Y-50531343D01*
X190873936Y-50531343D01*
X190853908Y-50531343D01*
X190835345Y-50531343D01*
X190785300Y-50539781D01*
X190758897Y-50555279D01*
X190725393Y-50594158D01*
X190710782Y-50620736D01*
X190710782Y-51055000D01*
X190492673Y-51055000D01*
G37*
G36*
X191676029Y-51055000D02*
G01*
X191540963Y-51055000D01*
X191495580Y-51034941D01*
X191487474Y-51019340D01*
X191470621Y-50964874D01*
X191433611Y-50998015D01*
X191424703Y-51004930D01*
X191381768Y-51031714D01*
X191373168Y-51035949D01*
X191327128Y-51052448D01*
X191313329Y-51055732D01*
X191264559Y-51062255D01*
X191243964Y-51062815D01*
X191192437Y-51057288D01*
X191144559Y-51040705D01*
X191138451Y-51037658D01*
X191096011Y-51009136D01*
X191061630Y-50973607D01*
X191054920Y-50964874D01*
X191028843Y-50922670D01*
X191009208Y-50877487D01*
X190999721Y-50848370D01*
X190988318Y-50798766D01*
X190982060Y-50749765D01*
X190979713Y-50697043D01*
X190979707Y-50695474D01*
X191204641Y-50695474D01*
X191206465Y-50745083D01*
X191212945Y-50791706D01*
X191227816Y-50838397D01*
X191236636Y-50854965D01*
X191272784Y-50889403D01*
X191319923Y-50899905D01*
X191363154Y-50895509D01*
X191398814Y-50882564D01*
X191429344Y-50862048D01*
X191457920Y-50832983D01*
X191457920Y-50529145D01*
X191419766Y-50495873D01*
X191403943Y-50487868D01*
X191355646Y-50476556D01*
X191343859Y-50476144D01*
X191294839Y-50485307D01*
X191288416Y-50488112D01*
X191249200Y-50519848D01*
X191244452Y-50526214D01*
X191221806Y-50571983D01*
X191215143Y-50594357D01*
X191206948Y-50643696D01*
X191204641Y-50695474D01*
X190979707Y-50695474D01*
X190979693Y-50691566D01*
X190981887Y-50642007D01*
X190989370Y-50590081D01*
X191002163Y-50540868D01*
X191019805Y-50495263D01*
X191044054Y-50450647D01*
X191065666Y-50420701D01*
X191101905Y-50383092D01*
X191143545Y-50352819D01*
X191164585Y-50341322D01*
X191213394Y-50322662D01*
X191261954Y-50313880D01*
X191291835Y-50312501D01*
X191340865Y-50316258D01*
X191387090Y-50329598D01*
X191430913Y-50353690D01*
X191457920Y-50374539D01*
X191457920Y-49992055D01*
X191676029Y-49992055D01*
X191676029Y-51055000D01*
G37*
G36*
X180148011Y-51695502D02*
G01*
X180198583Y-51698128D01*
X180249605Y-51706984D01*
X180285031Y-51717728D01*
X180331462Y-51738450D01*
X180374792Y-51767168D01*
X180388590Y-51779033D01*
X180422324Y-51816339D01*
X180448296Y-51859442D01*
X180454292Y-51872822D01*
X180469986Y-51922537D01*
X180476690Y-51972385D01*
X180477251Y-51992501D01*
X180473762Y-52043341D01*
X180462352Y-52093549D01*
X180461375Y-52096549D01*
X180442751Y-52143077D01*
X180418144Y-52187407D01*
X180388529Y-52229783D01*
X180356662Y-52268402D01*
X180354396Y-52270938D01*
X180319488Y-52308988D01*
X180285067Y-52344985D01*
X180277460Y-52352759D01*
X180077181Y-52557679D01*
X180125037Y-52544837D01*
X180153385Y-52538872D01*
X180203025Y-52532481D01*
X180224215Y-52531789D01*
X180415457Y-52531789D01*
X180462774Y-52545011D01*
X180470900Y-52551817D01*
X180491096Y-52596350D01*
X180491417Y-52604330D01*
X180491417Y-52735000D01*
X179771145Y-52735000D01*
X179771145Y-52665146D01*
X179779449Y-52621915D01*
X179807702Y-52581085D01*
X179809002Y-52579905D01*
X180104536Y-52284616D01*
X180139951Y-52247857D01*
X180170482Y-52212808D01*
X180200596Y-52172430D01*
X180217132Y-52145397D01*
X180237933Y-52099724D01*
X180244487Y-52078963D01*
X180252809Y-52029321D01*
X180253524Y-52008866D01*
X180247084Y-51958075D01*
X180224215Y-51915565D01*
X180181857Y-51889298D01*
X180135555Y-51883080D01*
X180085666Y-51891581D01*
X180053489Y-51909947D01*
X180019772Y-51948587D01*
X180007327Y-51976625D01*
X179982790Y-52019213D01*
X179968737Y-52029870D01*
X179918964Y-52037408D01*
X179900593Y-52035244D01*
X179785066Y-52014972D01*
X179794116Y-51966624D01*
X179808753Y-51918125D01*
X179828297Y-51874532D01*
X179854607Y-51832320D01*
X179887915Y-51793024D01*
X179907921Y-51774637D01*
X179948677Y-51745477D01*
X179993947Y-51723090D01*
X180016364Y-51715041D01*
X180067666Y-51702390D01*
X180117669Y-51696437D01*
X180148011Y-51695502D01*
G37*
G36*
X180997259Y-51698555D02*
G01*
X181049439Y-51708966D01*
X181098849Y-51726765D01*
X181144761Y-51752212D01*
X181186113Y-51785567D01*
X181219749Y-51822752D01*
X181249483Y-51866521D01*
X181272531Y-51911581D01*
X181292064Y-51962013D01*
X181299616Y-51986151D01*
X181312332Y-52037610D01*
X181320478Y-52086318D01*
X181325843Y-52138462D01*
X181328426Y-52194042D01*
X181328681Y-52218914D01*
X181327659Y-52268027D01*
X181323884Y-52322135D01*
X181317328Y-52372806D01*
X181306428Y-52426509D01*
X181299616Y-52451678D01*
X181283817Y-52498786D01*
X181262722Y-52546747D01*
X181238110Y-52589375D01*
X181219749Y-52614832D01*
X181186113Y-52652065D01*
X181144761Y-52685583D01*
X181098849Y-52711308D01*
X181049439Y-52729246D01*
X180997259Y-52739738D01*
X180947418Y-52742815D01*
X180897625Y-52739738D01*
X180845607Y-52729246D01*
X180796476Y-52711308D01*
X180750981Y-52685583D01*
X180709873Y-52652065D01*
X180676309Y-52614832D01*
X180646856Y-52571088D01*
X180624020Y-52526089D01*
X180604661Y-52475759D01*
X180597174Y-52451678D01*
X180584778Y-52400219D01*
X180576838Y-52351511D01*
X180571608Y-52299367D01*
X180569091Y-52243786D01*
X180568842Y-52218914D01*
X180794034Y-52218914D01*
X180794843Y-52270297D01*
X180797687Y-52322190D01*
X180803249Y-52372508D01*
X180806978Y-52394769D01*
X180818907Y-52445420D01*
X180836177Y-52492142D01*
X180841417Y-52502480D01*
X180870764Y-52541998D01*
X180890754Y-52556458D01*
X180938435Y-52570516D01*
X180947418Y-52570868D01*
X180995531Y-52560609D01*
X181004327Y-52556458D01*
X181041675Y-52522648D01*
X181054641Y-52502480D01*
X181074608Y-52455769D01*
X181087504Y-52407295D01*
X181090056Y-52394769D01*
X181097704Y-52343245D01*
X181101600Y-52294134D01*
X181103279Y-52245224D01*
X181103489Y-52218914D01*
X181102650Y-52167730D01*
X181099698Y-52115951D01*
X181093926Y-52065623D01*
X181090056Y-52043304D01*
X181077848Y-51992418D01*
X181060056Y-51945824D01*
X181054641Y-51935593D01*
X181024568Y-51896380D01*
X181004327Y-51882103D01*
X180956407Y-51867807D01*
X180947418Y-51867449D01*
X180899479Y-51877882D01*
X180890754Y-51882103D01*
X180854009Y-51915562D01*
X180841417Y-51935593D01*
X180822060Y-51982060D01*
X180809481Y-52030695D01*
X180806978Y-52043304D01*
X180799608Y-52094909D01*
X180795854Y-52143959D01*
X180794147Y-52199151D01*
X180794034Y-52218914D01*
X180568842Y-52218914D01*
X180569838Y-52169802D01*
X180573518Y-52115694D01*
X180579909Y-52065022D01*
X180590533Y-52011319D01*
X180597174Y-51986151D01*
X180612836Y-51938936D01*
X180633740Y-51890891D01*
X180658122Y-51848218D01*
X180676309Y-51822752D01*
X180709873Y-51785567D01*
X180750981Y-51752212D01*
X180796476Y-51726765D01*
X180845607Y-51708966D01*
X180897625Y-51698555D01*
X180947418Y-51695502D01*
X180997259Y-51698555D01*
G37*
G36*
X181771738Y-51695502D02*
G01*
X181822310Y-51698128D01*
X181873331Y-51706984D01*
X181908758Y-51717728D01*
X181955188Y-51738450D01*
X181998519Y-51767168D01*
X182012317Y-51779033D01*
X182046050Y-51816339D01*
X182072023Y-51859442D01*
X182078018Y-51872822D01*
X182093713Y-51922537D01*
X182100417Y-51972385D01*
X182100977Y-51992501D01*
X182097489Y-52043341D01*
X182086078Y-52093549D01*
X182085101Y-52096549D01*
X182066478Y-52143077D01*
X182041870Y-52187407D01*
X182012256Y-52229783D01*
X181980389Y-52268402D01*
X181978123Y-52270938D01*
X181943215Y-52308988D01*
X181908793Y-52344985D01*
X181901186Y-52352759D01*
X181700907Y-52557679D01*
X181748764Y-52544837D01*
X181777111Y-52538872D01*
X181826751Y-52532481D01*
X181847941Y-52531789D01*
X182039184Y-52531789D01*
X182086501Y-52545011D01*
X182094627Y-52551817D01*
X182114823Y-52596350D01*
X182115143Y-52604330D01*
X182115143Y-52735000D01*
X181394871Y-52735000D01*
X181394871Y-52665146D01*
X181403175Y-52621915D01*
X181431428Y-52581085D01*
X181432729Y-52579905D01*
X181728262Y-52284616D01*
X181763678Y-52247857D01*
X181794208Y-52212808D01*
X181824322Y-52172430D01*
X181840858Y-52145397D01*
X181861659Y-52099724D01*
X181868214Y-52078963D01*
X181876536Y-52029321D01*
X181877251Y-52008866D01*
X181870811Y-51958075D01*
X181847941Y-51915565D01*
X181805583Y-51889298D01*
X181759281Y-51883080D01*
X181709393Y-51891581D01*
X181677216Y-51909947D01*
X181643499Y-51948587D01*
X181631054Y-51976625D01*
X181606517Y-52019213D01*
X181592463Y-52029870D01*
X181542691Y-52037408D01*
X181524320Y-52035244D01*
X181408793Y-52014972D01*
X181417842Y-51966624D01*
X181432480Y-51918125D01*
X181452024Y-51874532D01*
X181478333Y-51832320D01*
X181511641Y-51793024D01*
X181531647Y-51774637D01*
X181572403Y-51745477D01*
X181617674Y-51723090D01*
X181640091Y-51715041D01*
X181691393Y-51702390D01*
X181741396Y-51696437D01*
X181771738Y-51695502D01*
G37*
G36*
X182843231Y-52328579D02*
G01*
X182948744Y-52328579D01*
X182948744Y-52451922D01*
X182937753Y-52480254D01*
X182906490Y-52492222D01*
X182843231Y-52492222D01*
X182843231Y-52735000D01*
X182653454Y-52735000D01*
X182653454Y-52492222D01*
X182241172Y-52492222D01*
X182204048Y-52479521D01*
X182183531Y-52448014D01*
X182161061Y-52340303D01*
X182169787Y-52328579D01*
X182389672Y-52328579D01*
X182653454Y-52328579D01*
X182653454Y-52062110D01*
X182654957Y-52012880D01*
X182655164Y-52009354D01*
X182659266Y-51960088D01*
X182660293Y-51950736D01*
X182389672Y-52328579D01*
X182169787Y-52328579D01*
X182635136Y-51703318D01*
X182843231Y-51703318D01*
X182843231Y-52328579D01*
G37*
G36*
X183049616Y-52219159D02*
G01*
X183429414Y-52219159D01*
X183429414Y-52391106D01*
X183049616Y-52391106D01*
X183049616Y-52219159D01*
G37*
G36*
X183956505Y-51698555D02*
G01*
X184008685Y-51708966D01*
X184058095Y-51726765D01*
X184104007Y-51752212D01*
X184145359Y-51785567D01*
X184178995Y-51822752D01*
X184208729Y-51866521D01*
X184231778Y-51911581D01*
X184251310Y-51962013D01*
X184258863Y-51986151D01*
X184271578Y-52037610D01*
X184279725Y-52086318D01*
X184285089Y-52138462D01*
X184287672Y-52194042D01*
X184287927Y-52218914D01*
X184286906Y-52268027D01*
X184283131Y-52322135D01*
X184276574Y-52372806D01*
X184265675Y-52426509D01*
X184258863Y-52451678D01*
X184243063Y-52498786D01*
X184221968Y-52546747D01*
X184197356Y-52589375D01*
X184178995Y-52614832D01*
X184145359Y-52652065D01*
X184104007Y-52685583D01*
X184058095Y-52711308D01*
X184008685Y-52729246D01*
X183956505Y-52739738D01*
X183906664Y-52742815D01*
X183856871Y-52739738D01*
X183804854Y-52729246D01*
X183755722Y-52711308D01*
X183710227Y-52685583D01*
X183669119Y-52652065D01*
X183635555Y-52614832D01*
X183606103Y-52571088D01*
X183583266Y-52526089D01*
X183563908Y-52475759D01*
X183556420Y-52451678D01*
X183544025Y-52400219D01*
X183536084Y-52351511D01*
X183530855Y-52299367D01*
X183528337Y-52243786D01*
X183528088Y-52218914D01*
X183753280Y-52218914D01*
X183754089Y-52270297D01*
X183756933Y-52322190D01*
X183762496Y-52372508D01*
X183766225Y-52394769D01*
X183778153Y-52445420D01*
X183795423Y-52492142D01*
X183800663Y-52502480D01*
X183830010Y-52541998D01*
X183850000Y-52556458D01*
X183897682Y-52570516D01*
X183906664Y-52570868D01*
X183954778Y-52560609D01*
X183963573Y-52556458D01*
X184000921Y-52522648D01*
X184013887Y-52502480D01*
X184033854Y-52455769D01*
X184046750Y-52407295D01*
X184049302Y-52394769D01*
X184056950Y-52343245D01*
X184060847Y-52294134D01*
X184062526Y-52245224D01*
X184062736Y-52218914D01*
X184061896Y-52167730D01*
X184058944Y-52115951D01*
X184053172Y-52065623D01*
X184049302Y-52043304D01*
X184037095Y-51992418D01*
X184019302Y-51945824D01*
X184013887Y-51935593D01*
X183983815Y-51896380D01*
X183963573Y-51882103D01*
X183915653Y-51867807D01*
X183906664Y-51867449D01*
X183858725Y-51877882D01*
X183850000Y-51882103D01*
X183813255Y-51915562D01*
X183800663Y-51935593D01*
X183781307Y-51982060D01*
X183768727Y-52030695D01*
X183766225Y-52043304D01*
X183758855Y-52094909D01*
X183755100Y-52143959D01*
X183753394Y-52199151D01*
X183753280Y-52218914D01*
X183528088Y-52218914D01*
X183529084Y-52169802D01*
X183532764Y-52115694D01*
X183539155Y-52065022D01*
X183549780Y-52011319D01*
X183556420Y-51986151D01*
X183572082Y-51938936D01*
X183592986Y-51890891D01*
X183617368Y-51848218D01*
X183635555Y-51822752D01*
X183669119Y-51785567D01*
X183710227Y-51752212D01*
X183755722Y-51726765D01*
X183804854Y-51708966D01*
X183856871Y-51698555D01*
X183906664Y-51695502D01*
X183956505Y-51698555D01*
G37*
G36*
X184766514Y-51697983D02*
G01*
X184817749Y-51706441D01*
X184864829Y-51720903D01*
X184911071Y-51742839D01*
X184951612Y-51770546D01*
X184975471Y-51792222D01*
X185008875Y-51832392D01*
X185035266Y-51878286D01*
X185045080Y-51901399D01*
X185059964Y-51950514D01*
X185067573Y-51998796D01*
X185069505Y-52040617D01*
X185067612Y-52089740D01*
X185060957Y-52141866D01*
X185049511Y-52190668D01*
X185039218Y-52221357D01*
X185018310Y-52270239D01*
X184993442Y-52317356D01*
X184964615Y-52362708D01*
X184958374Y-52371566D01*
X184737334Y-52686395D01*
X184698135Y-52718124D01*
X184692638Y-52720833D01*
X184643408Y-52734114D01*
X184624983Y-52735000D01*
X184423727Y-52735000D01*
X184748569Y-52340059D01*
X184767376Y-52316856D01*
X184784473Y-52294141D01*
X184738380Y-52313724D01*
X184715597Y-52320031D01*
X184665077Y-52327569D01*
X184637439Y-52328579D01*
X184587552Y-52324122D01*
X184537544Y-52310750D01*
X184492872Y-52289956D01*
X184452278Y-52261004D01*
X184447174Y-52256528D01*
X184412666Y-52218278D01*
X184386366Y-52175121D01*
X184381472Y-52164937D01*
X184365026Y-52116702D01*
X184357287Y-52066166D01*
X184356071Y-52034023D01*
X184357390Y-52015460D01*
X184574180Y-52015460D01*
X184579178Y-52066259D01*
X184597640Y-52112240D01*
X184635399Y-52147274D01*
X184683013Y-52162601D01*
X184716329Y-52164937D01*
X184767606Y-52158205D01*
X184813649Y-52133708D01*
X184823552Y-52124148D01*
X184850550Y-52079952D01*
X184860578Y-52032011D01*
X184861165Y-52015460D01*
X184854983Y-51965818D01*
X184850175Y-51951468D01*
X184823675Y-51908825D01*
X184820133Y-51905307D01*
X184778340Y-51879084D01*
X184773238Y-51877219D01*
X184723425Y-51867687D01*
X184713399Y-51867449D01*
X184664655Y-51875027D01*
X184654780Y-51878928D01*
X184613350Y-51907508D01*
X184611061Y-51909947D01*
X184585565Y-51951823D01*
X184583706Y-51956842D01*
X184574413Y-52005721D01*
X184574180Y-52015460D01*
X184357390Y-52015460D01*
X184359678Y-51983247D01*
X184370497Y-51934600D01*
X184381717Y-51903353D01*
X184404157Y-51859355D01*
X184435288Y-51816574D01*
X184454990Y-51795642D01*
X184493172Y-51763733D01*
X184536643Y-51737252D01*
X184568563Y-51722613D01*
X184615886Y-51707178D01*
X184666846Y-51698149D01*
X184716329Y-51695502D01*
X184766514Y-51697983D01*
G37*
G36*
X185196999Y-52219159D02*
G01*
X185576797Y-52219159D01*
X185576797Y-52391106D01*
X185196999Y-52391106D01*
X185196999Y-52219159D01*
G37*
G36*
X186103888Y-51698555D02*
G01*
X186156069Y-51708966D01*
X186205478Y-51726765D01*
X186251390Y-51752212D01*
X186292742Y-51785567D01*
X186326378Y-51822752D01*
X186356112Y-51866521D01*
X186379161Y-51911581D01*
X186398693Y-51962013D01*
X186406246Y-51986151D01*
X186418962Y-52037610D01*
X186427108Y-52086318D01*
X186432472Y-52138462D01*
X186435055Y-52194042D01*
X186435311Y-52218914D01*
X186434289Y-52268027D01*
X186430514Y-52322135D01*
X186423957Y-52372806D01*
X186413058Y-52426509D01*
X186406246Y-52451678D01*
X186390446Y-52498786D01*
X186369351Y-52546747D01*
X186344739Y-52589375D01*
X186326378Y-52614832D01*
X186292742Y-52652065D01*
X186251390Y-52685583D01*
X186205478Y-52711308D01*
X186156069Y-52729246D01*
X186103888Y-52739738D01*
X186054048Y-52742815D01*
X186004254Y-52739738D01*
X185952237Y-52729246D01*
X185903105Y-52711308D01*
X185857610Y-52685583D01*
X185816502Y-52652065D01*
X185782938Y-52614832D01*
X185753486Y-52571088D01*
X185730649Y-52526089D01*
X185711291Y-52475759D01*
X185703803Y-52451678D01*
X185691408Y-52400219D01*
X185683467Y-52351511D01*
X185678238Y-52299367D01*
X185675720Y-52243786D01*
X185675471Y-52218914D01*
X185900663Y-52218914D01*
X185901472Y-52270297D01*
X185904316Y-52322190D01*
X185909879Y-52372508D01*
X185913608Y-52394769D01*
X185925536Y-52445420D01*
X185942806Y-52492142D01*
X185948046Y-52502480D01*
X185977393Y-52541998D01*
X185997383Y-52556458D01*
X186045065Y-52570516D01*
X186054048Y-52570868D01*
X186102161Y-52560609D01*
X186110956Y-52556458D01*
X186148304Y-52522648D01*
X186161270Y-52502480D01*
X186181237Y-52455769D01*
X186194133Y-52407295D01*
X186196685Y-52394769D01*
X186204333Y-52343245D01*
X186208230Y-52294134D01*
X186209909Y-52245224D01*
X186210119Y-52218914D01*
X186209279Y-52167730D01*
X186206327Y-52115951D01*
X186200555Y-52065623D01*
X186196685Y-52043304D01*
X186184478Y-51992418D01*
X186166685Y-51945824D01*
X186161270Y-51935593D01*
X186131198Y-51896380D01*
X186110956Y-51882103D01*
X186063036Y-51867807D01*
X186054048Y-51867449D01*
X186006108Y-51877882D01*
X185997383Y-51882103D01*
X185960638Y-51915562D01*
X185948046Y-51935593D01*
X185928690Y-51982060D01*
X185916110Y-52030695D01*
X185913608Y-52043304D01*
X185906238Y-52094909D01*
X185902483Y-52143959D01*
X185900777Y-52199151D01*
X185900663Y-52218914D01*
X185675471Y-52218914D01*
X185676467Y-52169802D01*
X185680147Y-52115694D01*
X185686538Y-52065022D01*
X185697163Y-52011319D01*
X185703803Y-51986151D01*
X185719465Y-51938936D01*
X185740370Y-51890891D01*
X185764751Y-51848218D01*
X185782938Y-51822752D01*
X185816502Y-51785567D01*
X185857610Y-51752212D01*
X185903105Y-51726765D01*
X185952237Y-51708966D01*
X186004254Y-51698555D01*
X186054048Y-51695502D01*
X186103888Y-51698555D01*
G37*
G36*
X186878367Y-51695502D02*
G01*
X186928939Y-51698128D01*
X186979961Y-51706984D01*
X187015387Y-51717728D01*
X187061818Y-51738450D01*
X187105148Y-51767168D01*
X187118946Y-51779033D01*
X187152680Y-51816339D01*
X187178652Y-51859442D01*
X187184648Y-51872822D01*
X187200342Y-51922537D01*
X187207046Y-51972385D01*
X187207606Y-51992501D01*
X187204118Y-52043341D01*
X187192707Y-52093549D01*
X187191731Y-52096549D01*
X187173107Y-52143077D01*
X187148500Y-52187407D01*
X187118885Y-52229783D01*
X187087018Y-52268402D01*
X187084752Y-52270938D01*
X187049844Y-52308988D01*
X187015423Y-52344985D01*
X187007816Y-52352759D01*
X186807537Y-52557679D01*
X186855393Y-52544837D01*
X186883740Y-52538872D01*
X186933381Y-52532481D01*
X186954571Y-52531789D01*
X187145813Y-52531789D01*
X187193130Y-52545011D01*
X187201256Y-52551817D01*
X187221452Y-52596350D01*
X187221773Y-52604330D01*
X187221773Y-52735000D01*
X186501500Y-52735000D01*
X186501500Y-52665146D01*
X186509805Y-52621915D01*
X186538057Y-52581085D01*
X186539358Y-52579905D01*
X186834892Y-52284616D01*
X186870307Y-52247857D01*
X186900837Y-52212808D01*
X186930952Y-52172430D01*
X186947488Y-52145397D01*
X186968289Y-52099724D01*
X186974843Y-52078963D01*
X186983165Y-52029321D01*
X186983880Y-52008866D01*
X186977440Y-51958075D01*
X186954571Y-51915565D01*
X186912213Y-51889298D01*
X186865911Y-51883080D01*
X186816022Y-51891581D01*
X186783845Y-51909947D01*
X186750128Y-51948587D01*
X186737683Y-51976625D01*
X186713146Y-52019213D01*
X186699093Y-52029870D01*
X186649320Y-52037408D01*
X186630949Y-52035244D01*
X186515422Y-52014972D01*
X186524472Y-51966624D01*
X186539109Y-51918125D01*
X186558653Y-51874532D01*
X186584963Y-51832320D01*
X186618271Y-51793024D01*
X186638276Y-51774637D01*
X186679033Y-51745477D01*
X186724303Y-51723090D01*
X186746720Y-51715041D01*
X186798022Y-51702390D01*
X186848025Y-51696437D01*
X186878367Y-51695502D01*
G37*
D12*
X242407200Y-77571428D02*
X242454819Y-77428571D01*
X242454819Y-77428571D02*
X242454819Y-77190476D01*
X242454819Y-77190476D02*
X242407200Y-77095238D01*
X242407200Y-77095238D02*
X242359580Y-77047619D01*
X242359580Y-77047619D02*
X242264342Y-77000000D01*
X242264342Y-77000000D02*
X242169104Y-77000000D01*
X242169104Y-77000000D02*
X242073866Y-77047619D01*
X242073866Y-77047619D02*
X242026247Y-77095238D01*
X242026247Y-77095238D02*
X241978628Y-77190476D01*
X241978628Y-77190476D02*
X241931009Y-77380952D01*
X241931009Y-77380952D02*
X241883390Y-77476190D01*
X241883390Y-77476190D02*
X241835771Y-77523809D01*
X241835771Y-77523809D02*
X241740533Y-77571428D01*
X241740533Y-77571428D02*
X241645295Y-77571428D01*
X241645295Y-77571428D02*
X241550057Y-77523809D01*
X241550057Y-77523809D02*
X241502438Y-77476190D01*
X241502438Y-77476190D02*
X241454819Y-77380952D01*
X241454819Y-77380952D02*
X241454819Y-77142857D01*
X241454819Y-77142857D02*
X241502438Y-77000000D01*
X242454819Y-76571428D02*
X241454819Y-76571428D01*
X242073866Y-76476190D02*
X242454819Y-76190476D01*
X241788152Y-76190476D02*
X242169104Y-76571428D01*
X241788152Y-75333333D02*
X242454819Y-75333333D01*
X241788152Y-75761904D02*
X242311961Y-75761904D01*
X242311961Y-75761904D02*
X242407200Y-75714285D01*
X242407200Y-75714285D02*
X242454819Y-75619047D01*
X242454819Y-75619047D02*
X242454819Y-75476190D01*
X242454819Y-75476190D02*
X242407200Y-75380952D01*
X242407200Y-75380952D02*
X242359580Y-75333333D01*
X242454819Y-74714285D02*
X242407200Y-74809523D01*
X242407200Y-74809523D02*
X242311961Y-74857142D01*
X242311961Y-74857142D02*
X241454819Y-74857142D01*
X242454819Y-74190475D02*
X242407200Y-74285713D01*
X242407200Y-74285713D02*
X242311961Y-74333332D01*
X242311961Y-74333332D02*
X241454819Y-74333332D01*
X242407200Y-73857141D02*
X242454819Y-73761903D01*
X242454819Y-73761903D02*
X242454819Y-73571427D01*
X242454819Y-73571427D02*
X242407200Y-73476189D01*
X242407200Y-73476189D02*
X242311961Y-73428570D01*
X242311961Y-73428570D02*
X242264342Y-73428570D01*
X242264342Y-73428570D02*
X242169104Y-73476189D01*
X242169104Y-73476189D02*
X242121485Y-73571427D01*
X242121485Y-73571427D02*
X242121485Y-73714284D01*
X242121485Y-73714284D02*
X242073866Y-73809522D01*
X242073866Y-73809522D02*
X241978628Y-73857141D01*
X241978628Y-73857141D02*
X241931009Y-73857141D01*
X241931009Y-73857141D02*
X241835771Y-73809522D01*
X241835771Y-73809522D02*
X241788152Y-73714284D01*
X241788152Y-73714284D02*
X241788152Y-73571427D01*
X241788152Y-73571427D02*
X241835771Y-73476189D01*
X242550057Y-52880952D02*
X242502438Y-52976190D01*
X242502438Y-52976190D02*
X242407200Y-53071428D01*
X242407200Y-53071428D02*
X242264342Y-53214285D01*
X242264342Y-53214285D02*
X242216723Y-53309523D01*
X242216723Y-53309523D02*
X242216723Y-53404761D01*
X242454819Y-53357142D02*
X242407200Y-53452380D01*
X242407200Y-53452380D02*
X242311961Y-53547618D01*
X242311961Y-53547618D02*
X242121485Y-53595237D01*
X242121485Y-53595237D02*
X241788152Y-53595237D01*
X241788152Y-53595237D02*
X241597676Y-53547618D01*
X241597676Y-53547618D02*
X241502438Y-53452380D01*
X241502438Y-53452380D02*
X241454819Y-53357142D01*
X241454819Y-53357142D02*
X241454819Y-53166666D01*
X241454819Y-53166666D02*
X241502438Y-53071428D01*
X241502438Y-53071428D02*
X241597676Y-52976190D01*
X241597676Y-52976190D02*
X241788152Y-52928571D01*
X241788152Y-52928571D02*
X242121485Y-52928571D01*
X242121485Y-52928571D02*
X242311961Y-52976190D01*
X242311961Y-52976190D02*
X242407200Y-53071428D01*
X242407200Y-53071428D02*
X242454819Y-53166666D01*
X242454819Y-53166666D02*
X242454819Y-53357142D01*
X241788152Y-52071428D02*
X242454819Y-52071428D01*
X241788152Y-52499999D02*
X242311961Y-52499999D01*
X242311961Y-52499999D02*
X242407200Y-52452380D01*
X242407200Y-52452380D02*
X242454819Y-52357142D01*
X242454819Y-52357142D02*
X242454819Y-52214285D01*
X242454819Y-52214285D02*
X242407200Y-52119047D01*
X242407200Y-52119047D02*
X242359580Y-52071428D01*
X242407200Y-51214285D02*
X242454819Y-51309523D01*
X242454819Y-51309523D02*
X242454819Y-51499999D01*
X242454819Y-51499999D02*
X242407200Y-51595237D01*
X242407200Y-51595237D02*
X242311961Y-51642856D01*
X242311961Y-51642856D02*
X241931009Y-51642856D01*
X241931009Y-51642856D02*
X241835771Y-51595237D01*
X241835771Y-51595237D02*
X241788152Y-51499999D01*
X241788152Y-51499999D02*
X241788152Y-51309523D01*
X241788152Y-51309523D02*
X241835771Y-51214285D01*
X241835771Y-51214285D02*
X241931009Y-51166666D01*
X241931009Y-51166666D02*
X242026247Y-51166666D01*
X242026247Y-51166666D02*
X242121485Y-51642856D01*
X242407200Y-50357142D02*
X242454819Y-50452380D01*
X242454819Y-50452380D02*
X242454819Y-50642856D01*
X242454819Y-50642856D02*
X242407200Y-50738094D01*
X242407200Y-50738094D02*
X242311961Y-50785713D01*
X242311961Y-50785713D02*
X241931009Y-50785713D01*
X241931009Y-50785713D02*
X241835771Y-50738094D01*
X241835771Y-50738094D02*
X241788152Y-50642856D01*
X241788152Y-50642856D02*
X241788152Y-50452380D01*
X241788152Y-50452380D02*
X241835771Y-50357142D01*
X241835771Y-50357142D02*
X241931009Y-50309523D01*
X241931009Y-50309523D02*
X242026247Y-50309523D01*
X242026247Y-50309523D02*
X242121485Y-50785713D01*
X241788152Y-49880951D02*
X242454819Y-49880951D01*
X241883390Y-49880951D02*
X241835771Y-49833332D01*
X241835771Y-49833332D02*
X241788152Y-49738094D01*
X241788152Y-49738094D02*
X241788152Y-49595237D01*
X241788152Y-49595237D02*
X241835771Y-49499999D01*
X241835771Y-49499999D02*
X241931009Y-49452380D01*
X241931009Y-49452380D02*
X242454819Y-49452380D01*
X167404819Y-63190476D02*
X167404819Y-63666666D01*
X167404819Y-63666666D02*
X166404819Y-63666666D01*
X167309580Y-62285714D02*
X167357200Y-62333333D01*
X167357200Y-62333333D02*
X167404819Y-62476190D01*
X167404819Y-62476190D02*
X167404819Y-62571428D01*
X167404819Y-62571428D02*
X167357200Y-62714285D01*
X167357200Y-62714285D02*
X167261961Y-62809523D01*
X167261961Y-62809523D02*
X167166723Y-62857142D01*
X167166723Y-62857142D02*
X166976247Y-62904761D01*
X166976247Y-62904761D02*
X166833390Y-62904761D01*
X166833390Y-62904761D02*
X166642914Y-62857142D01*
X166642914Y-62857142D02*
X166547676Y-62809523D01*
X166547676Y-62809523D02*
X166452438Y-62714285D01*
X166452438Y-62714285D02*
X166404819Y-62571428D01*
X166404819Y-62571428D02*
X166404819Y-62476190D01*
X166404819Y-62476190D02*
X166452438Y-62333333D01*
X166452438Y-62333333D02*
X166500057Y-62285714D01*
X167404819Y-61857142D02*
X166404819Y-61857142D01*
X166404819Y-61857142D02*
X166404819Y-61619047D01*
X166404819Y-61619047D02*
X166452438Y-61476190D01*
X166452438Y-61476190D02*
X166547676Y-61380952D01*
X166547676Y-61380952D02*
X166642914Y-61333333D01*
X166642914Y-61333333D02*
X166833390Y-61285714D01*
X166833390Y-61285714D02*
X166976247Y-61285714D01*
X166976247Y-61285714D02*
X167166723Y-61333333D01*
X167166723Y-61333333D02*
X167261961Y-61380952D01*
X167261961Y-61380952D02*
X167357200Y-61476190D01*
X167357200Y-61476190D02*
X167404819Y-61619047D01*
X167404819Y-61619047D02*
X167404819Y-61857142D01*
X242359580Y-102047619D02*
X242407200Y-102095238D01*
X242407200Y-102095238D02*
X242454819Y-102238095D01*
X242454819Y-102238095D02*
X242454819Y-102333333D01*
X242454819Y-102333333D02*
X242407200Y-102476190D01*
X242407200Y-102476190D02*
X242311961Y-102571428D01*
X242311961Y-102571428D02*
X242216723Y-102619047D01*
X242216723Y-102619047D02*
X242026247Y-102666666D01*
X242026247Y-102666666D02*
X241883390Y-102666666D01*
X241883390Y-102666666D02*
X241692914Y-102619047D01*
X241692914Y-102619047D02*
X241597676Y-102571428D01*
X241597676Y-102571428D02*
X241502438Y-102476190D01*
X241502438Y-102476190D02*
X241454819Y-102333333D01*
X241454819Y-102333333D02*
X241454819Y-102238095D01*
X241454819Y-102238095D02*
X241502438Y-102095238D01*
X241502438Y-102095238D02*
X241550057Y-102047619D01*
X242454819Y-101619047D02*
X241454819Y-101619047D01*
X242454819Y-101190476D02*
X241931009Y-101190476D01*
X241931009Y-101190476D02*
X241835771Y-101238095D01*
X241835771Y-101238095D02*
X241788152Y-101333333D01*
X241788152Y-101333333D02*
X241788152Y-101476190D01*
X241788152Y-101476190D02*
X241835771Y-101571428D01*
X241835771Y-101571428D02*
X241883390Y-101619047D01*
X242407200Y-100333333D02*
X242454819Y-100428571D01*
X242454819Y-100428571D02*
X242454819Y-100619047D01*
X242454819Y-100619047D02*
X242407200Y-100714285D01*
X242407200Y-100714285D02*
X242311961Y-100761904D01*
X242311961Y-100761904D02*
X241931009Y-100761904D01*
X241931009Y-100761904D02*
X241835771Y-100714285D01*
X241835771Y-100714285D02*
X241788152Y-100619047D01*
X241788152Y-100619047D02*
X241788152Y-100428571D01*
X241788152Y-100428571D02*
X241835771Y-100333333D01*
X241835771Y-100333333D02*
X241931009Y-100285714D01*
X241931009Y-100285714D02*
X242026247Y-100285714D01*
X242026247Y-100285714D02*
X242121485Y-100761904D01*
X242407200Y-99428571D02*
X242454819Y-99523809D01*
X242454819Y-99523809D02*
X242454819Y-99714285D01*
X242454819Y-99714285D02*
X242407200Y-99809523D01*
X242407200Y-99809523D02*
X242359580Y-99857142D01*
X242359580Y-99857142D02*
X242264342Y-99904761D01*
X242264342Y-99904761D02*
X241978628Y-99904761D01*
X241978628Y-99904761D02*
X241883390Y-99857142D01*
X241883390Y-99857142D02*
X241835771Y-99809523D01*
X241835771Y-99809523D02*
X241788152Y-99714285D01*
X241788152Y-99714285D02*
X241788152Y-99523809D01*
X241788152Y-99523809D02*
X241835771Y-99428571D01*
X242454819Y-98999999D02*
X241454819Y-98999999D01*
X242073866Y-98904761D02*
X242454819Y-98619047D01*
X241788152Y-98619047D02*
X242169104Y-98999999D01*
X242407200Y-97809523D02*
X242454819Y-97904761D01*
X242454819Y-97904761D02*
X242454819Y-98095237D01*
X242454819Y-98095237D02*
X242407200Y-98190475D01*
X242407200Y-98190475D02*
X242311961Y-98238094D01*
X242311961Y-98238094D02*
X241931009Y-98238094D01*
X241931009Y-98238094D02*
X241835771Y-98190475D01*
X241835771Y-98190475D02*
X241788152Y-98095237D01*
X241788152Y-98095237D02*
X241788152Y-97904761D01*
X241788152Y-97904761D02*
X241835771Y-97809523D01*
X241835771Y-97809523D02*
X241931009Y-97761904D01*
X241931009Y-97761904D02*
X242026247Y-97761904D01*
X242026247Y-97761904D02*
X242121485Y-98238094D01*
X242454819Y-97333332D02*
X241788152Y-97333332D01*
X241978628Y-97333332D02*
X241883390Y-97285713D01*
X241883390Y-97285713D02*
X241835771Y-97238094D01*
X241835771Y-97238094D02*
X241788152Y-97142856D01*
X241788152Y-97142856D02*
X241788152Y-97047618D01*
X242407200Y-96761903D02*
X242454819Y-96666665D01*
X242454819Y-96666665D02*
X242454819Y-96476189D01*
X242454819Y-96476189D02*
X242407200Y-96380951D01*
X242407200Y-96380951D02*
X242311961Y-96333332D01*
X242311961Y-96333332D02*
X242264342Y-96333332D01*
X242264342Y-96333332D02*
X242169104Y-96380951D01*
X242169104Y-96380951D02*
X242121485Y-96476189D01*
X242121485Y-96476189D02*
X242121485Y-96619046D01*
X242121485Y-96619046D02*
X242073866Y-96714284D01*
X242073866Y-96714284D02*
X241978628Y-96761903D01*
X241978628Y-96761903D02*
X241931009Y-96761903D01*
X241931009Y-96761903D02*
X241835771Y-96714284D01*
X241835771Y-96714284D02*
X241788152Y-96619046D01*
X241788152Y-96619046D02*
X241788152Y-96476189D01*
X241788152Y-96476189D02*
X241835771Y-96380951D01*
X164419104Y-53345237D02*
X164419104Y-52869047D01*
X164704819Y-53440475D02*
X163704819Y-53107142D01*
X163704819Y-53107142D02*
X164704819Y-52773809D01*
X164704819Y-52440475D02*
X163704819Y-52440475D01*
X164085771Y-52440475D02*
X164038152Y-52345237D01*
X164038152Y-52345237D02*
X164038152Y-52154761D01*
X164038152Y-52154761D02*
X164085771Y-52059523D01*
X164085771Y-52059523D02*
X164133390Y-52011904D01*
X164133390Y-52011904D02*
X164228628Y-51964285D01*
X164228628Y-51964285D02*
X164514342Y-51964285D01*
X164514342Y-51964285D02*
X164609580Y-52011904D01*
X164609580Y-52011904D02*
X164657200Y-52059523D01*
X164657200Y-52059523D02*
X164704819Y-52154761D01*
X164704819Y-52154761D02*
X164704819Y-52345237D01*
X164704819Y-52345237D02*
X164657200Y-52440475D01*
X164657200Y-51583332D02*
X164704819Y-51488094D01*
X164704819Y-51488094D02*
X164704819Y-51297618D01*
X164704819Y-51297618D02*
X164657200Y-51202380D01*
X164657200Y-51202380D02*
X164561961Y-51154761D01*
X164561961Y-51154761D02*
X164514342Y-51154761D01*
X164514342Y-51154761D02*
X164419104Y-51202380D01*
X164419104Y-51202380D02*
X164371485Y-51297618D01*
X164371485Y-51297618D02*
X164371485Y-51440475D01*
X164371485Y-51440475D02*
X164323866Y-51535713D01*
X164323866Y-51535713D02*
X164228628Y-51583332D01*
X164228628Y-51583332D02*
X164181009Y-51583332D01*
X164181009Y-51583332D02*
X164085771Y-51535713D01*
X164085771Y-51535713D02*
X164038152Y-51440475D01*
X164038152Y-51440475D02*
X164038152Y-51297618D01*
X164038152Y-51297618D02*
X164085771Y-51202380D01*
X164657200Y-80154761D02*
X164704819Y-80011904D01*
X164704819Y-80011904D02*
X164704819Y-79773809D01*
X164704819Y-79773809D02*
X164657200Y-79678571D01*
X164657200Y-79678571D02*
X164609580Y-79630952D01*
X164609580Y-79630952D02*
X164514342Y-79583333D01*
X164514342Y-79583333D02*
X164419104Y-79583333D01*
X164419104Y-79583333D02*
X164323866Y-79630952D01*
X164323866Y-79630952D02*
X164276247Y-79678571D01*
X164276247Y-79678571D02*
X164228628Y-79773809D01*
X164228628Y-79773809D02*
X164181009Y-79964285D01*
X164181009Y-79964285D02*
X164133390Y-80059523D01*
X164133390Y-80059523D02*
X164085771Y-80107142D01*
X164085771Y-80107142D02*
X163990533Y-80154761D01*
X163990533Y-80154761D02*
X163895295Y-80154761D01*
X163895295Y-80154761D02*
X163800057Y-80107142D01*
X163800057Y-80107142D02*
X163752438Y-80059523D01*
X163752438Y-80059523D02*
X163704819Y-79964285D01*
X163704819Y-79964285D02*
X163704819Y-79726190D01*
X163704819Y-79726190D02*
X163752438Y-79583333D01*
X164038152Y-79297618D02*
X164038152Y-78916666D01*
X163704819Y-79154761D02*
X164561961Y-79154761D01*
X164561961Y-79154761D02*
X164657200Y-79107142D01*
X164657200Y-79107142D02*
X164704819Y-79011904D01*
X164704819Y-79011904D02*
X164704819Y-78916666D01*
X164704819Y-78583332D02*
X164038152Y-78583332D01*
X164228628Y-78583332D02*
X164133390Y-78535713D01*
X164133390Y-78535713D02*
X164085771Y-78488094D01*
X164085771Y-78488094D02*
X164038152Y-78392856D01*
X164038152Y-78392856D02*
X164038152Y-78297618D01*
X164704819Y-77964284D02*
X164038152Y-77964284D01*
X163704819Y-77964284D02*
X163752438Y-78011903D01*
X163752438Y-78011903D02*
X163800057Y-77964284D01*
X163800057Y-77964284D02*
X163752438Y-77916665D01*
X163752438Y-77916665D02*
X163704819Y-77964284D01*
X163704819Y-77964284D02*
X163800057Y-77964284D01*
X164038152Y-77488094D02*
X165038152Y-77488094D01*
X164085771Y-77488094D02*
X164038152Y-77392856D01*
X164038152Y-77392856D02*
X164038152Y-77202380D01*
X164038152Y-77202380D02*
X164085771Y-77107142D01*
X164085771Y-77107142D02*
X164133390Y-77059523D01*
X164133390Y-77059523D02*
X164228628Y-77011904D01*
X164228628Y-77011904D02*
X164514342Y-77011904D01*
X164514342Y-77011904D02*
X164609580Y-77059523D01*
X164609580Y-77059523D02*
X164657200Y-77107142D01*
X164657200Y-77107142D02*
X164704819Y-77202380D01*
X164704819Y-77202380D02*
X164704819Y-77392856D01*
X164704819Y-77392856D02*
X164657200Y-77488094D01*
X164657200Y-76202380D02*
X164704819Y-76297618D01*
X164704819Y-76297618D02*
X164704819Y-76488094D01*
X164704819Y-76488094D02*
X164657200Y-76583332D01*
X164657200Y-76583332D02*
X164561961Y-76630951D01*
X164561961Y-76630951D02*
X164181009Y-76630951D01*
X164181009Y-76630951D02*
X164085771Y-76583332D01*
X164085771Y-76583332D02*
X164038152Y-76488094D01*
X164038152Y-76488094D02*
X164038152Y-76297618D01*
X164038152Y-76297618D02*
X164085771Y-76202380D01*
X164085771Y-76202380D02*
X164181009Y-76154761D01*
X164181009Y-76154761D02*
X164276247Y-76154761D01*
X164276247Y-76154761D02*
X164371485Y-76630951D01*
X164657200Y-75773808D02*
X164704819Y-75678570D01*
X164704819Y-75678570D02*
X164704819Y-75488094D01*
X164704819Y-75488094D02*
X164657200Y-75392856D01*
X164657200Y-75392856D02*
X164561961Y-75345237D01*
X164561961Y-75345237D02*
X164514342Y-75345237D01*
X164514342Y-75345237D02*
X164419104Y-75392856D01*
X164419104Y-75392856D02*
X164371485Y-75488094D01*
X164371485Y-75488094D02*
X164371485Y-75630951D01*
X164371485Y-75630951D02*
X164323866Y-75726189D01*
X164323866Y-75726189D02*
X164228628Y-75773808D01*
X164228628Y-75773808D02*
X164181009Y-75773808D01*
X164181009Y-75773808D02*
X164085771Y-75726189D01*
X164085771Y-75726189D02*
X164038152Y-75630951D01*
X164038152Y-75630951D02*
X164038152Y-75488094D01*
X164038152Y-75488094D02*
X164085771Y-75392856D01*
X223204819Y-89154762D02*
X223204819Y-88964286D01*
X223204819Y-88964286D02*
X223252438Y-88869048D01*
X223252438Y-88869048D02*
X223347676Y-88773810D01*
X223347676Y-88773810D02*
X223538152Y-88726191D01*
X223538152Y-88726191D02*
X223871485Y-88726191D01*
X223871485Y-88726191D02*
X224061961Y-88773810D01*
X224061961Y-88773810D02*
X224157200Y-88869048D01*
X224157200Y-88869048D02*
X224204819Y-88964286D01*
X224204819Y-88964286D02*
X224204819Y-89154762D01*
X224204819Y-89154762D02*
X224157200Y-89250000D01*
X224157200Y-89250000D02*
X224061961Y-89345238D01*
X224061961Y-89345238D02*
X223871485Y-89392857D01*
X223871485Y-89392857D02*
X223538152Y-89392857D01*
X223538152Y-89392857D02*
X223347676Y-89345238D01*
X223347676Y-89345238D02*
X223252438Y-89250000D01*
X223252438Y-89250000D02*
X223204819Y-89154762D01*
X224204819Y-88297619D02*
X223538152Y-88297619D01*
X223728628Y-88297619D02*
X223633390Y-88250000D01*
X223633390Y-88250000D02*
X223585771Y-88202381D01*
X223585771Y-88202381D02*
X223538152Y-88107143D01*
X223538152Y-88107143D02*
X223538152Y-88011905D01*
X224204819Y-87250000D02*
X223681009Y-87250000D01*
X223681009Y-87250000D02*
X223585771Y-87297619D01*
X223585771Y-87297619D02*
X223538152Y-87392857D01*
X223538152Y-87392857D02*
X223538152Y-87583333D01*
X223538152Y-87583333D02*
X223585771Y-87678571D01*
X224157200Y-87250000D02*
X224204819Y-87345238D01*
X224204819Y-87345238D02*
X224204819Y-87583333D01*
X224204819Y-87583333D02*
X224157200Y-87678571D01*
X224157200Y-87678571D02*
X224061961Y-87726190D01*
X224061961Y-87726190D02*
X223966723Y-87726190D01*
X223966723Y-87726190D02*
X223871485Y-87678571D01*
X223871485Y-87678571D02*
X223823866Y-87583333D01*
X223823866Y-87583333D02*
X223823866Y-87345238D01*
X223823866Y-87345238D02*
X223776247Y-87250000D01*
X223538152Y-86773809D02*
X224204819Y-86773809D01*
X223633390Y-86773809D02*
X223585771Y-86726190D01*
X223585771Y-86726190D02*
X223538152Y-86630952D01*
X223538152Y-86630952D02*
X223538152Y-86488095D01*
X223538152Y-86488095D02*
X223585771Y-86392857D01*
X223585771Y-86392857D02*
X223681009Y-86345238D01*
X223681009Y-86345238D02*
X224204819Y-86345238D01*
X223538152Y-85440476D02*
X224347676Y-85440476D01*
X224347676Y-85440476D02*
X224442914Y-85488095D01*
X224442914Y-85488095D02*
X224490533Y-85535714D01*
X224490533Y-85535714D02*
X224538152Y-85630952D01*
X224538152Y-85630952D02*
X224538152Y-85773809D01*
X224538152Y-85773809D02*
X224490533Y-85869047D01*
X224157200Y-85440476D02*
X224204819Y-85535714D01*
X224204819Y-85535714D02*
X224204819Y-85726190D01*
X224204819Y-85726190D02*
X224157200Y-85821428D01*
X224157200Y-85821428D02*
X224109580Y-85869047D01*
X224109580Y-85869047D02*
X224014342Y-85916666D01*
X224014342Y-85916666D02*
X223728628Y-85916666D01*
X223728628Y-85916666D02*
X223633390Y-85869047D01*
X223633390Y-85869047D02*
X223585771Y-85821428D01*
X223585771Y-85821428D02*
X223538152Y-85726190D01*
X223538152Y-85726190D02*
X223538152Y-85535714D01*
X223538152Y-85535714D02*
X223585771Y-85440476D01*
X224157200Y-84583333D02*
X224204819Y-84678571D01*
X224204819Y-84678571D02*
X224204819Y-84869047D01*
X224204819Y-84869047D02*
X224157200Y-84964285D01*
X224157200Y-84964285D02*
X224061961Y-85011904D01*
X224061961Y-85011904D02*
X223681009Y-85011904D01*
X223681009Y-85011904D02*
X223585771Y-84964285D01*
X223585771Y-84964285D02*
X223538152Y-84869047D01*
X223538152Y-84869047D02*
X223538152Y-84678571D01*
X223538152Y-84678571D02*
X223585771Y-84583333D01*
X223585771Y-84583333D02*
X223681009Y-84535714D01*
X223681009Y-84535714D02*
X223776247Y-84535714D01*
X223776247Y-84535714D02*
X223871485Y-85011904D01*
X224204819Y-84107142D02*
X223204819Y-84107142D01*
X223204819Y-84107142D02*
X223204819Y-83726190D01*
X223204819Y-83726190D02*
X223252438Y-83630952D01*
X223252438Y-83630952D02*
X223300057Y-83583333D01*
X223300057Y-83583333D02*
X223395295Y-83535714D01*
X223395295Y-83535714D02*
X223538152Y-83535714D01*
X223538152Y-83535714D02*
X223633390Y-83583333D01*
X223633390Y-83583333D02*
X223681009Y-83630952D01*
X223681009Y-83630952D02*
X223728628Y-83726190D01*
X223728628Y-83726190D02*
X223728628Y-84107142D01*
X224204819Y-83107142D02*
X223538152Y-83107142D01*
X223204819Y-83107142D02*
X223252438Y-83154761D01*
X223252438Y-83154761D02*
X223300057Y-83107142D01*
X223300057Y-83107142D02*
X223252438Y-83059523D01*
X223252438Y-83059523D02*
X223204819Y-83107142D01*
X223204819Y-83107142D02*
X223300057Y-83107142D01*
X224204819Y-81869047D02*
X223204819Y-81869047D01*
X223681009Y-81869047D02*
X223681009Y-81297619D01*
X224204819Y-81297619D02*
X223204819Y-81297619D01*
X224157200Y-80440476D02*
X224204819Y-80535714D01*
X224204819Y-80535714D02*
X224204819Y-80726190D01*
X224204819Y-80726190D02*
X224157200Y-80821428D01*
X224157200Y-80821428D02*
X224061961Y-80869047D01*
X224061961Y-80869047D02*
X223681009Y-80869047D01*
X223681009Y-80869047D02*
X223585771Y-80821428D01*
X223585771Y-80821428D02*
X223538152Y-80726190D01*
X223538152Y-80726190D02*
X223538152Y-80535714D01*
X223538152Y-80535714D02*
X223585771Y-80440476D01*
X223585771Y-80440476D02*
X223681009Y-80392857D01*
X223681009Y-80392857D02*
X223776247Y-80392857D01*
X223776247Y-80392857D02*
X223871485Y-80869047D01*
X224204819Y-79535714D02*
X223681009Y-79535714D01*
X223681009Y-79535714D02*
X223585771Y-79583333D01*
X223585771Y-79583333D02*
X223538152Y-79678571D01*
X223538152Y-79678571D02*
X223538152Y-79869047D01*
X223538152Y-79869047D02*
X223585771Y-79964285D01*
X224157200Y-79535714D02*
X224204819Y-79630952D01*
X224204819Y-79630952D02*
X224204819Y-79869047D01*
X224204819Y-79869047D02*
X224157200Y-79964285D01*
X224157200Y-79964285D02*
X224061961Y-80011904D01*
X224061961Y-80011904D02*
X223966723Y-80011904D01*
X223966723Y-80011904D02*
X223871485Y-79964285D01*
X223871485Y-79964285D02*
X223823866Y-79869047D01*
X223823866Y-79869047D02*
X223823866Y-79630952D01*
X223823866Y-79630952D02*
X223776247Y-79535714D01*
X224204819Y-78630952D02*
X223204819Y-78630952D01*
X224157200Y-78630952D02*
X224204819Y-78726190D01*
X224204819Y-78726190D02*
X224204819Y-78916666D01*
X224204819Y-78916666D02*
X224157200Y-79011904D01*
X224157200Y-79011904D02*
X224109580Y-79059523D01*
X224109580Y-79059523D02*
X224014342Y-79107142D01*
X224014342Y-79107142D02*
X223728628Y-79107142D01*
X223728628Y-79107142D02*
X223633390Y-79059523D01*
X223633390Y-79059523D02*
X223585771Y-79011904D01*
X223585771Y-79011904D02*
X223538152Y-78916666D01*
X223538152Y-78916666D02*
X223538152Y-78726190D01*
X223538152Y-78726190D02*
X223585771Y-78630952D01*
X224157200Y-77773809D02*
X224204819Y-77869047D01*
X224204819Y-77869047D02*
X224204819Y-78059523D01*
X224204819Y-78059523D02*
X224157200Y-78154761D01*
X224157200Y-78154761D02*
X224061961Y-78202380D01*
X224061961Y-78202380D02*
X223681009Y-78202380D01*
X223681009Y-78202380D02*
X223585771Y-78154761D01*
X223585771Y-78154761D02*
X223538152Y-78059523D01*
X223538152Y-78059523D02*
X223538152Y-77869047D01*
X223538152Y-77869047D02*
X223585771Y-77773809D01*
X223585771Y-77773809D02*
X223681009Y-77726190D01*
X223681009Y-77726190D02*
X223776247Y-77726190D01*
X223776247Y-77726190D02*
X223871485Y-78202380D01*
X224204819Y-77297618D02*
X223538152Y-77297618D01*
X223728628Y-77297618D02*
X223633390Y-77249999D01*
X223633390Y-77249999D02*
X223585771Y-77202380D01*
X223585771Y-77202380D02*
X223538152Y-77107142D01*
X223538152Y-77107142D02*
X223538152Y-77011904D01*
X200785714Y-88954819D02*
X200785714Y-87954819D01*
X200785714Y-87954819D02*
X201166666Y-87954819D01*
X201166666Y-87954819D02*
X201261904Y-88002438D01*
X201261904Y-88002438D02*
X201309523Y-88050057D01*
X201309523Y-88050057D02*
X201357142Y-88145295D01*
X201357142Y-88145295D02*
X201357142Y-88288152D01*
X201357142Y-88288152D02*
X201309523Y-88383390D01*
X201309523Y-88383390D02*
X201261904Y-88431009D01*
X201261904Y-88431009D02*
X201166666Y-88478628D01*
X201166666Y-88478628D02*
X200785714Y-88478628D01*
X201785714Y-88954819D02*
X201785714Y-87954819D01*
X201785714Y-87954819D02*
X202357142Y-88954819D01*
X202357142Y-88954819D02*
X202357142Y-87954819D01*
X203309523Y-87954819D02*
X202833333Y-87954819D01*
X202833333Y-87954819D02*
X202785714Y-88431009D01*
X202785714Y-88431009D02*
X202833333Y-88383390D01*
X202833333Y-88383390D02*
X202928571Y-88335771D01*
X202928571Y-88335771D02*
X203166666Y-88335771D01*
X203166666Y-88335771D02*
X203261904Y-88383390D01*
X203261904Y-88383390D02*
X203309523Y-88431009D01*
X203309523Y-88431009D02*
X203357142Y-88526247D01*
X203357142Y-88526247D02*
X203357142Y-88764342D01*
X203357142Y-88764342D02*
X203309523Y-88859580D01*
X203309523Y-88859580D02*
X203261904Y-88907200D01*
X203261904Y-88907200D02*
X203166666Y-88954819D01*
X203166666Y-88954819D02*
X202928571Y-88954819D01*
X202928571Y-88954819D02*
X202833333Y-88907200D01*
X202833333Y-88907200D02*
X202785714Y-88859580D01*
X203690476Y-87954819D02*
X204309523Y-87954819D01*
X204309523Y-87954819D02*
X203976190Y-88335771D01*
X203976190Y-88335771D02*
X204119047Y-88335771D01*
X204119047Y-88335771D02*
X204214285Y-88383390D01*
X204214285Y-88383390D02*
X204261904Y-88431009D01*
X204261904Y-88431009D02*
X204309523Y-88526247D01*
X204309523Y-88526247D02*
X204309523Y-88764342D01*
X204309523Y-88764342D02*
X204261904Y-88859580D01*
X204261904Y-88859580D02*
X204214285Y-88907200D01*
X204214285Y-88907200D02*
X204119047Y-88954819D01*
X204119047Y-88954819D02*
X203833333Y-88954819D01*
X203833333Y-88954819D02*
X203738095Y-88907200D01*
X203738095Y-88907200D02*
X203690476Y-88859580D01*
X204690476Y-88050057D02*
X204738095Y-88002438D01*
X204738095Y-88002438D02*
X204833333Y-87954819D01*
X204833333Y-87954819D02*
X205071428Y-87954819D01*
X205071428Y-87954819D02*
X205166666Y-88002438D01*
X205166666Y-88002438D02*
X205214285Y-88050057D01*
X205214285Y-88050057D02*
X205261904Y-88145295D01*
X205261904Y-88145295D02*
X205261904Y-88240533D01*
X205261904Y-88240533D02*
X205214285Y-88383390D01*
X205214285Y-88383390D02*
X204642857Y-88954819D01*
X204642857Y-88954819D02*
X205261904Y-88954819D01*
D13*
%TO.C,Skulls*%
X249250000Y-68900000D02*
X248000000Y-68900000D01*
X248960000Y-69190000D02*
X242990000Y-69190000D01*
X242990000Y-69190000D02*
X242990000Y-81810000D01*
X248950000Y-69200000D02*
X248200000Y-69200000D01*
X248200000Y-69200000D02*
X248200000Y-71000000D01*
X246700000Y-69200000D02*
X246700000Y-69950000D01*
X246700000Y-69950000D02*
X243750000Y-69950000D01*
X243750000Y-69950000D02*
X243750000Y-75500000D01*
X249250000Y-70150000D02*
X249250000Y-68900000D01*
X248950000Y-71000000D02*
X248950000Y-69200000D01*
X248200000Y-71000000D02*
X248950000Y-71000000D01*
X248950000Y-72500000D02*
X248200000Y-72500000D01*
X248200000Y-72500000D02*
X248200000Y-78500000D01*
X248950000Y-78500000D02*
X248950000Y-72500000D01*
X248200000Y-78500000D02*
X248950000Y-78500000D01*
X248950000Y-80000000D02*
X248200000Y-80000000D01*
X248200000Y-80000000D02*
X248200000Y-81800000D01*
X246700000Y-81050000D02*
X243750000Y-81050000D01*
X243750000Y-81050000D02*
X243750000Y-75500000D01*
X248950000Y-81800000D02*
X248950000Y-80000000D01*
X248200000Y-81800000D02*
X248950000Y-81800000D01*
X246700000Y-81800000D02*
X246700000Y-81050000D01*
X248960000Y-81810000D02*
X248960000Y-69190000D01*
X242990000Y-81810000D02*
X248960000Y-81810000D01*
%TO.C,Queen*%
X249250000Y-44900000D02*
X248000000Y-44900000D01*
X248960000Y-45190000D02*
X242990000Y-45190000D01*
X242990000Y-45190000D02*
X242990000Y-57810000D01*
X248950000Y-45200000D02*
X248200000Y-45200000D01*
X248200000Y-45200000D02*
X248200000Y-47000000D01*
X246700000Y-45200000D02*
X246700000Y-45950000D01*
X246700000Y-45950000D02*
X243750000Y-45950000D01*
X243750000Y-45950000D02*
X243750000Y-51500000D01*
X249250000Y-46150000D02*
X249250000Y-44900000D01*
X248950000Y-47000000D02*
X248950000Y-45200000D01*
X248200000Y-47000000D02*
X248950000Y-47000000D01*
X248950000Y-48500000D02*
X248200000Y-48500000D01*
X248200000Y-48500000D02*
X248200000Y-54500000D01*
X248950000Y-54500000D02*
X248950000Y-48500000D01*
X248200000Y-54500000D02*
X248950000Y-54500000D01*
X248950000Y-56000000D02*
X248200000Y-56000000D01*
X248200000Y-56000000D02*
X248200000Y-57800000D01*
X246700000Y-57050000D02*
X243750000Y-57050000D01*
X243750000Y-57050000D02*
X243750000Y-51500000D01*
X248950000Y-57800000D02*
X248950000Y-56000000D01*
X248200000Y-57800000D02*
X248950000Y-57800000D01*
X246700000Y-57800000D02*
X246700000Y-57050000D01*
X248960000Y-57810000D02*
X248960000Y-45190000D01*
X242990000Y-57810000D02*
X248960000Y-57810000D01*
%TO.C,LCD*%
X174010000Y-56190000D02*
X168040000Y-56190000D01*
X168040000Y-56190000D02*
X168040000Y-68810000D01*
X170300000Y-56200000D02*
X170300000Y-56950000D01*
X168800000Y-56200000D02*
X168050000Y-56200000D01*
X168050000Y-56200000D02*
X168050000Y-58000000D01*
X173250000Y-56950000D02*
X173250000Y-62500000D01*
X170300000Y-56950000D02*
X173250000Y-56950000D01*
X168800000Y-58000000D02*
X168800000Y-56200000D01*
X168050000Y-58000000D02*
X168800000Y-58000000D01*
X168800000Y-59500000D02*
X168050000Y-59500000D01*
X168050000Y-59500000D02*
X168050000Y-65500000D01*
X168800000Y-65500000D02*
X168800000Y-59500000D01*
X168050000Y-65500000D02*
X168800000Y-65500000D01*
X168800000Y-67000000D02*
X168050000Y-67000000D01*
X168050000Y-67000000D02*
X168050000Y-68800000D01*
X167750000Y-67850000D02*
X167750000Y-69100000D01*
X173250000Y-68050000D02*
X173250000Y-62500000D01*
X170300000Y-68050000D02*
X173250000Y-68050000D01*
X170300000Y-68800000D02*
X170300000Y-68050000D01*
X168800000Y-68800000D02*
X168800000Y-67000000D01*
X168050000Y-68800000D02*
X168800000Y-68800000D01*
X174010000Y-68810000D02*
X174010000Y-56190000D01*
X168040000Y-68810000D02*
X174010000Y-68810000D01*
X167750000Y-69100000D02*
X169000000Y-69100000D01*
%TO.C,Checkers*%
X249250000Y-92900000D02*
X248000000Y-92900000D01*
X248960000Y-93190000D02*
X242990000Y-93190000D01*
X242990000Y-93190000D02*
X242990000Y-105810000D01*
X248950000Y-93200000D02*
X248200000Y-93200000D01*
X248200000Y-93200000D02*
X248200000Y-95000000D01*
X246700000Y-93200000D02*
X246700000Y-93950000D01*
X246700000Y-93950000D02*
X243750000Y-93950000D01*
X243750000Y-93950000D02*
X243750000Y-99500000D01*
X249250000Y-94150000D02*
X249250000Y-92900000D01*
X248950000Y-95000000D02*
X248950000Y-93200000D01*
X248200000Y-95000000D02*
X248950000Y-95000000D01*
X248950000Y-96500000D02*
X248200000Y-96500000D01*
X248200000Y-96500000D02*
X248200000Y-102500000D01*
X248950000Y-102500000D02*
X248950000Y-96500000D01*
X248200000Y-102500000D02*
X248950000Y-102500000D01*
X248950000Y-104000000D02*
X248200000Y-104000000D01*
X248200000Y-104000000D02*
X248200000Y-105800000D01*
X246700000Y-105050000D02*
X243750000Y-105050000D01*
X243750000Y-105050000D02*
X243750000Y-99500000D01*
X248950000Y-105800000D02*
X248950000Y-104000000D01*
X248200000Y-105800000D02*
X248950000Y-105800000D01*
X246700000Y-105800000D02*
X246700000Y-105050000D01*
X248960000Y-105810000D02*
X248960000Y-93190000D01*
X242990000Y-105810000D02*
X248960000Y-105810000D01*
%TO.C,Abs*%
X156750000Y-58850000D02*
X158000000Y-58850000D01*
X157040000Y-58560000D02*
X163010000Y-58560000D01*
X163010000Y-58560000D02*
X163010000Y-45940000D01*
X157050000Y-58550000D02*
X157800000Y-58550000D01*
X157800000Y-58550000D02*
X157800000Y-56750000D01*
X159300000Y-58550000D02*
X159300000Y-57800000D01*
X159300000Y-57800000D02*
X162250000Y-57800000D01*
X162250000Y-57800000D02*
X162250000Y-52250000D01*
X156750000Y-57600000D02*
X156750000Y-58850000D01*
X157050000Y-56750000D02*
X157050000Y-58550000D01*
X157800000Y-56750000D02*
X157050000Y-56750000D01*
X157050000Y-55250000D02*
X157800000Y-55250000D01*
X157800000Y-55250000D02*
X157800000Y-49250000D01*
X157050000Y-49250000D02*
X157050000Y-55250000D01*
X157800000Y-49250000D02*
X157050000Y-49250000D01*
X157050000Y-47750000D02*
X157800000Y-47750000D01*
X157800000Y-47750000D02*
X157800000Y-45950000D01*
X159300000Y-46700000D02*
X162250000Y-46700000D01*
X162250000Y-46700000D02*
X162250000Y-52250000D01*
X157050000Y-45950000D02*
X157050000Y-47750000D01*
X157800000Y-45950000D02*
X157050000Y-45950000D01*
X159300000Y-45950000D02*
X159300000Y-46700000D01*
X157040000Y-45940000D02*
X157040000Y-58560000D01*
X163010000Y-45940000D02*
X157040000Y-45940000D01*
%TO.C,Stripes*%
X163010000Y-71440000D02*
X157040000Y-71440000D01*
X157040000Y-71440000D02*
X157040000Y-84060000D01*
X159300000Y-71450000D02*
X159300000Y-72200000D01*
X157800000Y-71450000D02*
X157050000Y-71450000D01*
X157050000Y-71450000D02*
X157050000Y-73250000D01*
X162250000Y-72200000D02*
X162250000Y-77750000D01*
X159300000Y-72200000D02*
X162250000Y-72200000D01*
X157800000Y-73250000D02*
X157800000Y-71450000D01*
X157050000Y-73250000D02*
X157800000Y-73250000D01*
X157800000Y-74750000D02*
X157050000Y-74750000D01*
X157050000Y-74750000D02*
X157050000Y-80750000D01*
X157800000Y-80750000D02*
X157800000Y-74750000D01*
X157050000Y-80750000D02*
X157800000Y-80750000D01*
X157800000Y-82250000D02*
X157050000Y-82250000D01*
X157050000Y-82250000D02*
X157050000Y-84050000D01*
X156750000Y-83100000D02*
X156750000Y-84350000D01*
X162250000Y-83300000D02*
X162250000Y-77750000D01*
X159300000Y-83300000D02*
X162250000Y-83300000D01*
X159300000Y-84050000D02*
X159300000Y-83300000D01*
X157800000Y-84050000D02*
X157800000Y-82250000D01*
X157050000Y-84050000D02*
X157800000Y-84050000D01*
X163010000Y-84060000D02*
X163010000Y-71440000D01*
X157040000Y-84060000D02*
X163010000Y-84060000D01*
X156750000Y-84350000D02*
X158000000Y-84350000D01*
%TO.C,PN532*%
X196900000Y-80750000D02*
X196900000Y-82000000D01*
X197190000Y-81040000D02*
X197190000Y-87010000D01*
X197190000Y-87010000D02*
X209810000Y-87010000D01*
X197200000Y-81050000D02*
X197200000Y-81800000D01*
X197200000Y-81800000D02*
X199000000Y-81800000D01*
X197200000Y-83300000D02*
X197950000Y-83300000D01*
X197950000Y-83300000D02*
X197950000Y-86250000D01*
X197950000Y-86250000D02*
X203500000Y-86250000D01*
X198150000Y-80750000D02*
X196900000Y-80750000D01*
X199000000Y-81050000D02*
X197200000Y-81050000D01*
X199000000Y-81800000D02*
X199000000Y-81050000D01*
X200500000Y-81050000D02*
X200500000Y-81800000D01*
X200500000Y-81800000D02*
X206500000Y-81800000D01*
X206500000Y-81050000D02*
X200500000Y-81050000D01*
X206500000Y-81800000D02*
X206500000Y-81050000D01*
X208000000Y-81050000D02*
X208000000Y-81800000D01*
X208000000Y-81800000D02*
X209800000Y-81800000D01*
X209050000Y-83300000D02*
X209050000Y-86250000D01*
X209050000Y-86250000D02*
X203500000Y-86250000D01*
X209800000Y-81050000D02*
X208000000Y-81050000D01*
X209800000Y-81800000D02*
X209800000Y-81050000D01*
X209800000Y-83300000D02*
X209050000Y-83300000D01*
X209810000Y-81040000D02*
X197190000Y-81040000D01*
X209810000Y-87010000D02*
X209810000Y-81040000D01*
%TD*%
M02*
