M48
; DRILL file {KiCad 8.0.4-8.0.4-0~ubuntu22.04.1} date 2024-09-02T17:21:40-0400
; FORMAT={-:-/ absolute / inch / decimal}
; #@! TF.CreationDate,2024-09-02T17:21:40-04:00
; #@! TF.GenerationSoftware,Kicad,Pcbnew,8.0.4-8.0.4-0~ubuntu22.04.1
; #@! TF.FileFunction,Plated,1,2,PTH
FMAT,2
INCH
; #@! TA.AperFunction,Plated,PTH,ViaDrill
T1C0.0118
; #@! TA.AperFunction,Plated,PTH,ComponentDrill
T2C0.0374
; #@! TA.AperFunction,Plated,PTH,ComponentDrill
T3C0.0394
; #@! TA.AperFunction,Plated,PTH,ComponentDrill
T4C0.1378
%
G90
G05
T1
X6.6437Y-1.8307
T2
X6.2795Y-1.9094
X6.2795Y-2.0079
X6.2795Y-2.1063
X6.2795Y-2.2047
X6.2795Y-2.9134
X6.2795Y-3.0118
X6.2795Y-3.1102
X6.2795Y-3.2087
X6.7126Y-2.313
X6.7126Y-2.4114
X6.7126Y-2.5098
X6.7126Y-2.6083
X7.8642Y-3.2874
X7.9626Y-3.2874
X8.061Y-3.2874
X8.1594Y-3.2874
X9.7047Y-1.8799
X9.7047Y-1.9783
X9.7047Y-2.0768
X9.7047Y-2.1752
X9.7047Y-2.8248
X9.7047Y-2.9232
X9.7047Y-3.0217
X9.7047Y-3.1201
X9.7047Y-3.7697
X9.7047Y-3.8681
X9.7047Y-3.9665
X9.7047Y-4.065
T3
X8.9315Y-2.7264
X8.9315Y-2.8264
X8.9315Y-2.9264
X8.9315Y-3.0264
X8.9315Y-3.1264
X8.9315Y-3.2264
X8.9315Y-3.3264
X8.9315Y-3.4264
X8.9315Y-3.5264
X8.9315Y-3.6264
X8.9315Y-3.7264
X8.9315Y-3.8264
X8.9315Y-3.9264
X9.0315Y-2.7264
X9.0315Y-2.8264
X9.0315Y-2.9264
X9.0315Y-3.0264
X9.0315Y-3.1264
X9.0315Y-3.2264
X9.0315Y-3.3264
X9.0315Y-3.4264
X9.0315Y-3.5264
X9.0315Y-3.6264
X9.0315Y-3.7264
X9.0315Y-3.8264
X9.0315Y-3.9264
T4
X7.0276Y-2.5197
X8.9961Y-2.5197
X8.9961Y-4.2972
M30
