%TF.GenerationSoftware,KiCad,Pcbnew,8.0.4-8.0.4-0~ubuntu22.04.1*%
%TF.CreationDate,2024-09-02T17:19:41-04:00*%
%TF.ProjectId,hivemind-pcb,68697665-6d69-46e6-942d-7063622e6b69,rev?*%
%TF.SameCoordinates,Original*%
%TF.FileFunction,Soldermask,Bot*%
%TF.FilePolarity,Negative*%
%FSLAX46Y46*%
G04 Gerber Fmt 4.6, Leading zero omitted, Abs format (unit mm)*
G04 Created by KiCad (PCBNEW 8.0.4-8.0.4-0~ubuntu22.04.1) date 2024-09-02 17:19:41*
%MOMM*%
%LPD*%
G01*
G04 APERTURE LIST*
G04 Aperture macros list*
%AMRoundRect*
0 Rectangle with rounded corners*
0 $1 Rounding radius*
0 $2 $3 $4 $5 $6 $7 $8 $9 X,Y pos of 4 corners*
0 Add a 4 corners polygon primitive as box body*
4,1,4,$2,$3,$4,$5,$6,$7,$8,$9,$2,$3,0*
0 Add four circle primitives for the rounded corners*
1,1,$1+$1,$2,$3*
1,1,$1+$1,$4,$5*
1,1,$1+$1,$6,$7*
1,1,$1+$1,$8,$9*
0 Add four rect primitives between the rounded corners*
20,1,$1+$1,$2,$3,$4,$5,0*
20,1,$1+$1,$4,$5,$6,$7,0*
20,1,$1+$1,$6,$7,$8,$9,0*
20,1,$1+$1,$8,$9,$2,$3,0*%
G04 Aperture macros list end*
%ADD10C,7.000000*%
%ADD11RoundRect,0.250000X-0.725000X0.600000X-0.725000X-0.600000X0.725000X-0.600000X0.725000X0.600000X0*%
%ADD12O,1.950000X1.700000*%
%ADD13RoundRect,0.250000X0.725000X-0.600000X0.725000X0.600000X-0.725000X0.600000X-0.725000X-0.600000X0*%
%ADD14R,1.700000X1.700000*%
%ADD15O,1.700000X1.700000*%
%ADD16RoundRect,0.250000X-0.600000X-0.725000X0.600000X-0.725000X0.600000X0.725000X-0.600000X0.725000X0*%
%ADD17O,1.700000X1.950000*%
G04 APERTURE END LIST*
D10*
%TO.C,REF\u002A\u002A*%
X228500000Y-109150000D03*
%TD*%
%TO.C,REF\u002A\u002A*%
X228500000Y-64000000D03*
%TD*%
%TO.C,REF\u002A\u002A*%
X178500000Y-64000000D03*
%TD*%
D11*
%TO.C,Skulls*%
X246500000Y-71750000D03*
D12*
X246500000Y-74250000D03*
X246500000Y-76750000D03*
X246500000Y-79250000D03*
%TD*%
D11*
%TO.C,Queen*%
X246500000Y-47750000D03*
D12*
X246500000Y-50250000D03*
X246500000Y-52750000D03*
X246500000Y-55250000D03*
%TD*%
%TO.C,LCD*%
X170500000Y-58750000D03*
X170500000Y-61250000D03*
X170500000Y-63750000D03*
D13*
X170500000Y-66250000D03*
%TD*%
D11*
%TO.C,Checkers*%
X246500000Y-95750000D03*
D12*
X246500000Y-98250000D03*
X246500000Y-100750000D03*
X246500000Y-103250000D03*
%TD*%
D13*
%TO.C,Abs*%
X159500000Y-56000000D03*
D12*
X159500000Y-53500000D03*
X159500000Y-51000000D03*
X159500000Y-48500000D03*
%TD*%
%TO.C,Stripes*%
X159500000Y-74000000D03*
X159500000Y-76500000D03*
X159500000Y-79000000D03*
D13*
X159500000Y-81500000D03*
%TD*%
D14*
%TO.C,OrangePi Header*%
X229400000Y-69250000D03*
D15*
X226860000Y-69250000D03*
X229400000Y-71790000D03*
X226860000Y-71790000D03*
X229400000Y-74330000D03*
X226860000Y-74330000D03*
X229400000Y-76870000D03*
X226860000Y-76870000D03*
X229400000Y-79410000D03*
X226860000Y-79410000D03*
X229400000Y-81950000D03*
X226860000Y-81950000D03*
X229400000Y-84490000D03*
X226860000Y-84490000D03*
X229400000Y-87030000D03*
X226860000Y-87030000D03*
X229400000Y-89570000D03*
X226860000Y-89570000D03*
X229400000Y-92110000D03*
X226860000Y-92110000D03*
X229400000Y-94650000D03*
X226860000Y-94650000D03*
X229400000Y-97190000D03*
X226860000Y-97190000D03*
X229400000Y-99730000D03*
X226860000Y-99730000D03*
%TD*%
D16*
%TO.C,PN532*%
X199750000Y-83500000D03*
D17*
X202250000Y-83500000D03*
X204750000Y-83500000D03*
X207250000Y-83500000D03*
%TD*%
M02*
