<svg width="179" height="36" viewBox="0 0 179 36" fill="none" xmlns="http://www.w3.org/2000/svg">
<rect width="178.542" height="36" rx="5" fill="#EBECF0"/>
<path d="M13.2958 19.2168C13.2958 19.2168 12.5581 17.6516 12.9013 15.9781C13.2445 14.3047 14.1914 13.0244 15.8075 12.1632C18.7033 10.6201 22.3141 11.7399 23.8724 14.6643C25.1104 16.9874 24.6807 19.7506 23 21.5622" stroke="#151515" stroke-width="1.6" stroke-linecap="square"/>
<path d="M14.5788 21.6414C14.4803 21.8758 14.1911 21.9601 13.9821 21.8152L10.5433 19.4314C10.2666 19.2397 10.3361 18.8128 10.6593 18.7187L15.7187 17.2447C16.0418 17.1506 16.3297 17.4734 16.1993 17.7837L14.5788 21.6414Z" fill="#151515"/>
<path d="M32.747 23V13.466C33.139 13.3727 33.573 13.3073 34.049 13.27C34.525 13.2233 34.959 13.2 35.351 13.2C36.723 13.2 37.7683 13.4567 38.487 13.97C39.2056 14.4833 39.565 15.2533 39.565 16.28C39.565 16.98 39.3876 17.5447 39.033 17.974C38.6876 18.4033 38.207 18.7207 37.591 18.926C37.759 19.1407 37.955 19.402 38.179 19.71C38.403 20.018 38.6316 20.3587 38.865 20.732C39.1076 21.096 39.341 21.474 39.565 21.866C39.789 22.258 39.985 22.636 40.153 23H38.557C38.3143 22.5333 38.0436 22.0667 37.745 21.6C37.4556 21.124 37.1663 20.6807 36.877 20.27C36.597 19.85 36.3403 19.4953 36.107 19.206C36.0136 19.206 35.9203 19.2107 35.827 19.22C35.743 19.2293 35.6543 19.234 35.561 19.234H34.189V23H32.747ZM34.189 18.058H35.225C35.8036 18.058 36.303 18.016 36.723 17.932C37.1523 17.8387 37.4836 17.6613 37.717 17.4C37.9503 17.1387 38.067 16.7607 38.067 16.266C38.067 15.79 37.9503 15.4213 37.717 15.16C37.493 14.8987 37.1803 14.7167 36.779 14.614C36.387 14.502 35.9483 14.446 35.463 14.446C35.1923 14.446 34.9496 14.4553 34.735 14.474C34.5203 14.4927 34.3383 14.5113 34.189 14.53V18.058ZM44.744 23.168C43.8853 23.168 43.1807 23.0047 42.63 22.678C42.0887 22.342 41.6873 21.8893 41.426 21.32C41.174 20.7507 41.048 20.102 41.048 19.374C41.048 18.5153 41.2067 17.806 41.524 17.246C41.8413 16.6767 42.252 16.252 42.756 15.972C43.2693 15.6827 43.806 15.538 44.366 15.538C45.0007 15.538 45.5467 15.6733 46.004 15.944C46.4707 16.2053 46.83 16.6067 47.082 17.148C47.334 17.68 47.46 18.3567 47.46 19.178C47.46 19.262 47.4553 19.3553 47.446 19.458C47.446 19.5607 47.4413 19.6587 47.432 19.752H42.476C42.5227 20.4427 42.7373 20.984 43.12 21.376C43.512 21.7587 44.0953 21.95 44.87 21.95C45.318 21.95 45.7007 21.908 46.018 21.824C46.3447 21.74 46.592 21.6607 46.76 21.586L46.97 22.734C46.8113 22.818 46.522 22.9113 46.102 23.014C45.6913 23.1167 45.2387 23.168 44.744 23.168ZM42.504 18.702H46.088C46.0787 18.31 46.0087 17.9647 45.878 17.666C45.7473 17.3673 45.556 17.134 45.304 16.966C45.0613 16.798 44.7533 16.714 44.38 16.714C43.9973 16.714 43.6707 16.8073 43.4 16.994C43.1293 17.1807 42.9193 17.428 42.77 17.736C42.6207 18.0347 42.532 18.3567 42.504 18.702ZM51.6953 25.632C51.238 25.632 50.804 25.5947 50.3933 25.52C49.9826 25.4453 49.6233 25.352 49.3153 25.24L49.5673 24.05C49.838 24.1527 50.16 24.2413 50.5333 24.316C50.9066 24.4 51.3033 24.442 51.7233 24.442C52.2273 24.442 52.6333 24.3767 52.9413 24.246C53.2586 24.1153 53.4873 23.91 53.6273 23.63C53.7766 23.35 53.8513 22.9953 53.8513 22.566V22.174C53.6926 22.2673 53.464 22.37 53.1653 22.482C52.876 22.5847 52.5213 22.636 52.1013 22.636C51.4946 22.636 50.9486 22.5147 50.4633 22.272C49.978 22.02 49.5953 21.6373 49.3153 21.124C49.0446 20.6107 48.9093 19.9573 48.9093 19.164C48.9093 18.464 49.0493 17.8433 49.3293 17.302C49.6186 16.7607 50.0293 16.336 50.5613 16.028C51.0933 15.72 51.728 15.566 52.4653 15.566C53.0626 15.566 53.5946 15.608 54.0613 15.692C54.528 15.776 54.9153 15.8647 55.2233 15.958V22.412C55.2233 23.5413 54.9293 24.358 54.3413 24.862C53.7626 25.3753 52.8806 25.632 51.6953 25.632ZM52.2553 21.474C52.582 21.474 52.8853 21.4273 53.1653 21.334C53.4546 21.2407 53.6786 21.1287 53.8373 20.998V16.882C53.7066 16.8447 53.534 16.812 53.3193 16.784C53.114 16.7467 52.834 16.728 52.4793 16.728C52.022 16.728 51.6346 16.8307 51.3173 17.036C51 17.2413 50.7573 17.5307 50.5893 17.904C50.4213 18.268 50.3373 18.6927 50.3373 19.178C50.3373 19.5793 50.3886 19.9247 50.4913 20.214C50.594 20.5033 50.734 20.7413 50.9113 20.928C51.0886 21.1147 51.2893 21.2547 51.5133 21.348C51.7466 21.432 51.994 21.474 52.2553 21.474ZM60.7401 23.168C59.8814 23.168 59.1767 23.0047 58.6261 22.678C58.0847 22.342 57.6834 21.8893 57.4221 21.32C57.1701 20.7507 57.0441 20.102 57.0441 19.374C57.0441 18.5153 57.2027 17.806 57.5201 17.246C57.8374 16.6767 58.2481 16.252 58.7521 15.972C59.2654 15.6827 59.8021 15.538 60.3621 15.538C60.9967 15.538 61.5427 15.6733 62.0001 15.944C62.4667 16.2053 62.8261 16.6067 63.0781 17.148C63.3301 17.68 63.4561 18.3567 63.4561 19.178C63.4561 19.262 63.4514 19.3553 63.4421 19.458C63.4421 19.5607 63.4374 19.6587 63.4281 19.752H58.4721C58.5187 20.4427 58.7334 20.984 59.1161 21.376C59.5081 21.7587 60.0914 21.95 60.8661 21.95C61.3141 21.95 61.6967 21.908 62.0141 21.824C62.3407 21.74 62.5881 21.6607 62.7561 21.586L62.9661 22.734C62.8074 22.818 62.5181 22.9113 62.0981 23.014C61.6874 23.1167 61.2347 23.168 60.7401 23.168ZM58.5001 18.702H62.0841C62.0747 18.31 62.0047 17.9647 61.8741 17.666C61.7434 17.3673 61.5521 17.134 61.3001 16.966C61.0574 16.798 60.7494 16.714 60.3761 16.714C59.9934 16.714 59.6667 16.8073 59.3961 16.994C59.1254 17.1807 58.9154 17.428 58.7661 17.736C58.6167 18.0347 58.5281 18.3567 58.5001 18.702ZM65.2974 23V15.958C65.6147 15.874 66.0207 15.79 66.5154 15.706C67.0101 15.6127 67.5794 15.566 68.2234 15.566C69.0074 15.566 69.6141 15.706 70.0434 15.986C70.4821 16.266 70.7901 16.658 70.9674 17.162C71.1447 17.6567 71.2334 18.24 71.2334 18.912V23H69.8474V19.192C69.8474 18.5947 69.7914 18.1233 69.6794 17.778C69.5767 17.4233 69.3994 17.1667 69.1474 17.008C68.8954 16.8493 68.5407 16.77 68.0834 16.77C67.7754 16.77 67.4907 16.7887 67.2294 16.826C66.9774 16.854 66.8001 16.882 66.6974 16.91V23H65.2974ZM76.6815 23.168C75.8228 23.168 75.1182 23.0047 74.5675 22.678C74.0262 22.342 73.6248 21.8893 73.3635 21.32C73.1115 20.7507 72.9855 20.102 72.9855 19.374C72.9855 18.5153 73.1442 17.806 73.4615 17.246C73.7788 16.6767 74.1895 16.252 74.6935 15.972C75.2068 15.6827 75.7435 15.538 76.3035 15.538C76.9382 15.538 77.4842 15.6733 77.9415 15.944C78.4082 16.2053 78.7675 16.6067 79.0195 17.148C79.2715 17.68 79.3975 18.3567 79.3975 19.178C79.3975 19.262 79.3928 19.3553 79.3835 19.458C79.3835 19.5607 79.3788 19.6587 79.3695 19.752H74.4135C74.4602 20.4427 74.6748 20.984 75.0575 21.376C75.4495 21.7587 76.0328 21.95 76.8075 21.95C77.2555 21.95 77.6382 21.908 77.9555 21.824C78.2822 21.74 78.5295 21.6607 78.6975 21.586L78.9075 22.734C78.7488 22.818 78.4595 22.9113 78.0395 23.014C77.6288 23.1167 77.1762 23.168 76.6815 23.168ZM74.4415 18.702H78.0255C78.0162 18.31 77.9462 17.9647 77.8155 17.666C77.6848 17.3673 77.4935 17.134 77.2415 16.966C76.9988 16.798 76.6908 16.714 76.3175 16.714C75.9348 16.714 75.6082 16.8073 75.3375 16.994C75.0668 17.1807 74.8568 17.428 74.7075 17.736C74.5582 18.0347 74.4695 18.3567 74.4415 18.702ZM81.2388 23V16.07C81.5281 15.958 81.8968 15.846 82.3448 15.734C82.8021 15.622 83.3341 15.566 83.9408 15.566C84.1181 15.566 84.3048 15.58 84.5008 15.608C84.7061 15.6267 84.8975 15.6547 85.0748 15.692C85.2521 15.72 85.3875 15.7573 85.4808 15.804L85.2288 16.966C85.1075 16.9287 84.9255 16.8867 84.6828 16.84C84.4495 16.7933 84.1648 16.77 83.8288 16.77C83.5488 16.77 83.2968 16.7933 83.0728 16.84C82.8581 16.8773 82.7135 16.9147 82.6388 16.952V23H81.2388ZM89.0462 23.154C88.4862 23.154 87.9869 23.0793 87.5482 22.93C87.1189 22.7807 86.7829 22.5333 86.5402 22.188C86.2976 21.8427 86.1762 21.39 86.1762 20.83C86.1762 20.2793 86.3116 19.8407 86.5822 19.514C86.8529 19.178 87.2216 18.9353 87.6882 18.786C88.1549 18.6367 88.6729 18.562 89.2422 18.562C89.5036 18.562 89.7649 18.5807 90.0262 18.618C90.2969 18.6553 90.4742 18.6927 90.5582 18.73V18.394C90.5582 18.0953 90.5162 17.82 90.4322 17.568C90.3482 17.316 90.1896 17.1107 89.9562 16.952C89.7322 16.7933 89.3962 16.714 88.9482 16.714C88.4816 16.714 88.0989 16.7467 87.8002 16.812C87.5109 16.8773 87.2822 16.9427 87.1142 17.008L86.9322 15.86C87.1189 15.7853 87.4036 15.7153 87.7862 15.65C88.1689 15.5753 88.5982 15.538 89.0742 15.538C89.7836 15.538 90.3436 15.6547 90.7542 15.888C91.1742 16.1213 91.4729 16.4527 91.6502 16.882C91.8276 17.302 91.9162 17.7873 91.9162 18.338V22.818C91.6829 22.874 91.3096 22.944 90.7962 23.028C90.2829 23.112 89.6996 23.154 89.0462 23.154ZM89.1862 22.02C89.4756 22.02 89.7369 22.0107 89.9702 21.992C90.2129 21.9733 90.4089 21.95 90.5582 21.922V19.766C90.4742 19.7287 90.3296 19.6913 90.1242 19.654C89.9189 19.6167 89.6716 19.598 89.3822 19.598C89.0929 19.598 88.8082 19.6307 88.5282 19.696C88.2576 19.752 88.0289 19.864 87.8422 20.032C87.6649 20.2 87.5762 20.4567 87.5762 20.802C87.5762 21.2593 87.7209 21.5767 88.0102 21.754C88.2996 21.9313 88.6916 22.02 89.1862 22.02ZM96.597 23.154C95.9344 23.154 95.4117 23.042 95.029 22.818C94.6557 22.5847 94.3897 22.244 94.231 21.796C94.0817 21.348 94.007 20.8067 94.007 20.172V13.704L95.393 13.466V15.706H98.123V16.868H95.393V20.214C95.393 20.6527 95.4444 21.0027 95.547 21.264C95.6497 21.516 95.799 21.6933 95.995 21.796C96.2004 21.8987 96.4524 21.95 96.751 21.95C97.0684 21.95 97.3437 21.9173 97.577 21.852C97.8197 21.7773 98.0204 21.7073 98.179 21.642L98.417 22.748C98.2397 22.832 97.9924 22.9207 97.675 23.014C97.3577 23.1073 96.9984 23.154 96.597 23.154ZM103 23.168C102.141 23.168 101.437 23.0047 100.886 22.678C100.345 22.342 99.9432 21.8893 99.6818 21.32C99.4298 20.7507 99.3038 20.102 99.3038 19.374C99.3038 18.5153 99.4625 17.806 99.7798 17.246C100.097 16.6767 100.508 16.252 101.012 15.972C101.525 15.6827 102.062 15.538 102.622 15.538C103.257 15.538 103.803 15.6733 104.26 15.944C104.727 16.2053 105.086 16.6067 105.338 17.148C105.59 17.68 105.716 18.3567 105.716 19.178C105.716 19.262 105.711 19.3553 105.702 19.458C105.702 19.5607 105.697 19.6587 105.688 19.752H100.732C100.779 20.4427 100.993 20.984 101.376 21.376C101.768 21.7587 102.351 21.95 103.126 21.95C103.574 21.95 103.957 21.908 104.274 21.824C104.601 21.74 104.848 21.6607 105.016 21.586L105.226 22.734C105.067 22.818 104.778 22.9113 104.358 23.014C103.947 23.1167 103.495 23.168 103 23.168ZM100.76 18.702H104.344C104.335 18.31 104.265 17.9647 104.134 17.666C104.003 17.3673 103.812 17.134 103.56 16.966C103.317 16.798 103.009 16.714 102.636 16.714C102.253 16.714 101.927 16.8073 101.656 16.994C101.385 17.1807 101.175 17.428 101.026 17.736C100.877 18.0347 100.788 18.3567 100.76 18.702ZM110.671 23C110.708 22.1693 110.75 21.3293 110.797 20.48C110.843 19.6213 110.895 18.7767 110.951 17.946C111.016 17.106 111.081 16.294 111.147 15.51C111.221 14.726 111.301 13.9887 111.385 13.298H112.729C112.962 13.6993 113.214 14.1753 113.485 14.726C113.765 15.2673 114.045 15.846 114.325 16.462C114.614 17.0687 114.894 17.6753 115.165 18.282C115.435 18.8793 115.678 19.4253 115.893 19.92C116.117 19.4253 116.359 18.8793 116.621 18.282C116.891 17.6753 117.167 17.0687 117.447 16.462C117.736 15.846 118.021 15.2673 118.301 14.726C118.581 14.1753 118.837 13.6993 119.071 13.298H120.331C120.424 13.9887 120.503 14.726 120.569 15.51C120.643 16.294 120.709 17.106 120.765 17.946C120.821 18.7767 120.872 19.6213 120.919 20.48C120.975 21.3293 121.021 22.1693 121.059 23H119.631C119.603 22.1507 119.57 21.3013 119.533 20.452C119.495 19.6027 119.449 18.7673 119.393 17.946C119.346 17.1153 119.285 16.322 119.211 15.566C119.108 15.79 118.963 16.098 118.777 16.49C118.59 16.882 118.385 17.3207 118.161 17.806C117.937 18.282 117.713 18.7673 117.489 19.262C117.265 19.7567 117.055 20.2187 116.859 20.648C116.672 21.068 116.527 21.4087 116.425 21.67H115.291C115.179 21.4087 115.029 21.068 114.843 20.648C114.656 20.2187 114.451 19.7567 114.227 19.262C114.003 18.7673 113.779 18.282 113.555 17.806C113.331 17.3207 113.125 16.882 112.939 16.49C112.752 16.098 112.607 15.79 112.505 15.566C112.43 16.322 112.365 17.1153 112.309 17.946C112.262 18.7673 112.22 19.6027 112.183 20.452C112.145 21.3013 112.113 22.1507 112.085 23H110.671ZM126.42 23.168C125.561 23.168 124.856 23.0047 124.306 22.678C123.764 22.342 123.363 21.8893 123.102 21.32C122.85 20.7507 122.724 20.102 122.724 19.374C122.724 18.5153 122.882 17.806 123.2 17.246C123.517 16.6767 123.928 16.252 124.432 15.972C124.945 15.6827 125.482 15.538 126.042 15.538C126.676 15.538 127.222 15.6733 127.68 15.944C128.146 16.2053 128.506 16.6067 128.758 17.148C129.01 17.68 129.136 18.3567 129.136 19.178C129.136 19.262 129.131 19.3553 129.122 19.458C129.122 19.5607 129.117 19.6587 129.108 19.752H124.152C124.198 20.4427 124.413 20.984 124.796 21.376C125.188 21.7587 125.771 21.95 126.546 21.95C126.994 21.95 127.376 21.908 127.694 21.824C128.02 21.74 128.268 21.6607 128.436 21.586L128.646 22.734C128.487 22.818 128.198 22.9113 127.778 23.014C127.367 23.1167 126.914 23.168 126.42 23.168ZM124.18 18.702H127.764C127.754 18.31 127.684 17.9647 127.554 17.666C127.423 17.3673 127.232 17.134 126.98 16.966C126.737 16.798 126.429 16.714 126.056 16.714C125.673 16.714 125.346 16.8073 125.076 16.994C124.805 17.1807 124.595 17.428 124.446 17.736C124.296 18.0347 124.208 18.3567 124.18 18.702ZM132.713 23.182C132.078 23.182 131.57 23.126 131.187 23.014C130.814 22.902 130.562 22.818 130.431 22.762L130.711 21.586C130.898 21.6513 131.159 21.74 131.495 21.852C131.831 21.9547 132.237 22.006 132.713 22.006C133.189 22.006 133.558 21.9407 133.819 21.81C134.09 21.6793 134.225 21.446 134.225 21.11C134.225 20.9047 134.169 20.7367 134.057 20.606C133.954 20.4753 133.791 20.354 133.567 20.242C133.343 20.1207 133.04 19.9853 132.657 19.836C132.274 19.6773 131.924 19.514 131.607 19.346C131.29 19.1687 131.038 18.9447 130.851 18.674C130.664 18.4033 130.571 18.0487 130.571 17.61C130.571 17.19 130.678 16.826 130.893 16.518C131.108 16.21 131.411 15.972 131.803 15.804C132.204 15.6267 132.676 15.538 133.217 15.538C133.693 15.538 134.108 15.58 134.463 15.664C134.827 15.7387 135.098 15.8133 135.275 15.888L134.995 17.036C134.836 16.9613 134.617 16.8867 134.337 16.812C134.066 16.728 133.707 16.686 133.259 16.686C132.886 16.686 132.573 16.756 132.321 16.896C132.078 17.036 131.957 17.2553 131.957 17.554C131.957 17.7593 132.004 17.9273 132.097 18.058C132.2 18.1887 132.358 18.31 132.573 18.422C132.788 18.534 133.068 18.6553 133.413 18.786C133.88 18.9633 134.276 19.1453 134.603 19.332C134.93 19.5187 135.177 19.752 135.345 20.032C135.522 20.3027 135.611 20.6573 135.611 21.096C135.611 21.5533 135.494 21.936 135.261 22.244C135.037 22.552 134.706 22.7853 134.267 22.944C133.838 23.1027 133.32 23.182 132.713 23.182ZM139.03 23.182C138.395 23.182 137.886 23.126 137.504 23.014C137.13 22.902 136.878 22.818 136.748 22.762L137.028 21.586C137.214 21.6513 137.476 21.74 137.812 21.852C138.148 21.9547 138.554 22.006 139.03 22.006C139.506 22.006 139.874 21.9407 140.136 21.81C140.406 21.6793 140.542 21.446 140.542 21.11C140.542 20.9047 140.486 20.7367 140.374 20.606C140.271 20.4753 140.108 20.354 139.883 20.242C139.66 20.1207 139.356 19.9853 138.974 19.836C138.591 19.6773 138.241 19.514 137.924 19.346C137.606 19.1687 137.354 18.9447 137.168 18.674C136.981 18.4033 136.888 18.0487 136.888 17.61C136.888 17.19 136.995 16.826 137.21 16.518C137.424 16.21 137.728 15.972 138.12 15.804C138.521 15.6267 138.992 15.538 139.534 15.538C140.01 15.538 140.425 15.58 140.78 15.664C141.144 15.7387 141.414 15.8133 141.592 15.888L141.312 17.036C141.153 16.9613 140.934 16.8867 140.654 16.812C140.383 16.728 140.024 16.686 139.576 16.686C139.202 16.686 138.89 16.756 138.638 16.896C138.395 17.036 138.274 17.2553 138.274 17.554C138.274 17.7593 138.32 17.9273 138.414 18.058C138.516 18.1887 138.675 18.31 138.89 18.422C139.104 18.534 139.384 18.6553 139.73 18.786C140.196 18.9633 140.593 19.1453 140.92 19.332C141.246 19.5187 141.494 19.752 141.662 20.032C141.839 20.3027 141.928 20.6573 141.928 21.096C141.928 21.5533 141.811 21.936 141.578 22.244C141.354 22.552 141.022 22.7853 140.584 22.944C140.154 23.1027 139.636 23.182 139.03 23.182ZM145.976 23.154C145.416 23.154 144.917 23.0793 144.478 22.93C144.049 22.7807 143.713 22.5333 143.47 22.188C143.227 21.8427 143.106 21.39 143.106 20.83C143.106 20.2793 143.241 19.8407 143.512 19.514C143.783 19.178 144.151 18.9353 144.618 18.786C145.085 18.6367 145.603 18.562 146.172 18.562C146.433 18.562 146.695 18.5807 146.956 18.618C147.227 18.6553 147.404 18.6927 147.488 18.73V18.394C147.488 18.0953 147.446 17.82 147.362 17.568C147.278 17.316 147.119 17.1107 146.886 16.952C146.662 16.7933 146.326 16.714 145.878 16.714C145.411 16.714 145.029 16.7467 144.73 16.812C144.441 16.8773 144.212 16.9427 144.044 17.008L143.862 15.86C144.049 15.7853 144.333 15.7153 144.716 15.65C145.099 15.5753 145.528 15.538 146.004 15.538C146.713 15.538 147.273 15.6547 147.684 15.888C148.104 16.1213 148.403 16.4527 148.58 16.882C148.757 17.302 148.846 17.7873 148.846 18.338V22.818C148.613 22.874 148.239 22.944 147.726 23.028C147.213 23.112 146.629 23.154 145.976 23.154ZM146.116 22.02C146.405 22.02 146.667 22.0107 146.9 21.992C147.143 21.9733 147.339 21.95 147.488 21.922V19.766C147.404 19.7287 147.259 19.6913 147.054 19.654C146.849 19.6167 146.601 19.598 146.312 19.598C146.023 19.598 145.738 19.6307 145.458 19.696C145.187 19.752 144.959 19.864 144.772 20.032C144.595 20.2 144.506 20.4567 144.506 20.802C144.506 21.2593 144.651 21.5767 144.94 21.754C145.229 21.9313 145.621 22.02 146.116 22.02ZM153.387 25.632C152.929 25.632 152.495 25.5947 152.085 25.52C151.674 25.4453 151.315 25.352 151.007 25.24L151.259 24.05C151.529 24.1527 151.851 24.2413 152.225 24.316C152.598 24.4 152.995 24.442 153.415 24.442C153.919 24.442 154.325 24.3767 154.633 24.246C154.95 24.1153 155.179 23.91 155.319 23.63C155.468 23.35 155.543 22.9953 155.543 22.566V22.174C155.384 22.2673 155.155 22.37 154.857 22.482C154.567 22.5847 154.213 22.636 153.793 22.636C153.186 22.636 152.64 22.5147 152.155 22.272C151.669 22.02 151.287 21.6373 151.007 21.124C150.736 20.6107 150.601 19.9573 150.601 19.164C150.601 18.464 150.741 17.8433 151.021 17.302C151.31 16.7607 151.721 16.336 152.253 16.028C152.785 15.72 153.419 15.566 154.157 15.566C154.754 15.566 155.286 15.608 155.753 15.692C156.219 15.776 156.607 15.8647 156.915 15.958V22.412C156.915 23.5413 156.621 24.358 156.033 24.862C155.454 25.3753 154.572 25.632 153.387 25.632ZM153.947 21.474C154.273 21.474 154.577 21.4273 154.857 21.334C155.146 21.2407 155.37 21.1287 155.529 20.998V16.882C155.398 16.8447 155.225 16.812 155.011 16.784C154.805 16.7467 154.525 16.728 154.171 16.728C153.713 16.728 153.326 16.8307 153.009 17.036C152.691 17.2413 152.449 17.5307 152.281 17.904C152.113 18.268 152.029 18.6927 152.029 19.178C152.029 19.5793 152.08 19.9247 152.183 20.214C152.285 20.5033 152.425 20.7413 152.603 20.928C152.78 21.1147 152.981 21.2547 153.205 21.348C153.438 21.432 153.685 21.474 153.947 21.474ZM162.431 23.168C161.573 23.168 160.868 23.0047 160.317 22.678C159.776 22.342 159.375 21.8893 159.113 21.32C158.861 20.7507 158.735 20.102 158.735 19.374C158.735 18.5153 158.894 17.806 159.211 17.246C159.529 16.6767 159.939 16.252 160.443 15.972C160.957 15.6827 161.493 15.538 162.053 15.538C162.688 15.538 163.234 15.6733 163.691 15.944C164.158 16.2053 164.517 16.6067 164.769 17.148C165.021 17.68 165.147 18.3567 165.147 19.178C165.147 19.262 165.143 19.3553 165.133 19.458C165.133 19.5607 165.129 19.6587 165.119 19.752H160.163C160.21 20.4427 160.425 20.984 160.807 21.376C161.199 21.7587 161.783 21.95 162.557 21.95C163.005 21.95 163.388 21.908 163.705 21.824C164.032 21.74 164.279 21.6607 164.447 21.586L164.657 22.734C164.499 22.818 164.209 22.9113 163.789 23.014C163.379 23.1167 162.926 23.168 162.431 23.168ZM160.191 18.702H163.775C163.766 18.31 163.696 17.9647 163.565 17.666C163.435 17.3673 163.243 17.134 162.991 16.966C162.749 16.798 162.441 16.714 162.067 16.714C161.685 16.714 161.358 16.8073 161.087 16.994C160.817 17.1807 160.607 17.428 160.457 17.736C160.308 18.0347 160.219 18.3567 160.191 18.702Z" fill="#151515"/>
</svg>
